<svg width="382" height="378" viewBox="0 0 382 378" fill="none" xmlns="http://www.w3.org/2000/svg">
<path d="M335.825 324.189C328.035 332.262 320.677 337.477 314.855 341.588C246.431 389.971 165.461 375.874 148.251 372.423C122.846 367.343 73.7225 357.504 38.2103 316.345C-15.5228 254.081 -7.15355 155.981 34.5176 91.2239C42.1457 79.3776 82.4017 13.6363 164.248 3.09724C213.776 -3.27743 271.512 9.57971 313.318 44.108C401.081 116.588 394.828 262.963 335.825 324.189Z" fill="url(#paint0_linear_1103_432)"/>
<path d="M176.89 256.197C176.89 256.197 108.79 114.297 17.5229 48.6905C11.3908 44.2835 2.80593 48.367 2.40161 55.9142C-0.239895 106.372 6.25608 256.251 176.89 256.197Z" fill="#5D8290"/>
<path opacity="0.5" d="M159.868 249.809C160.313 250.092 159.949 250.753 159.477 250.537C141.916 242.599 71.4312 200.119 25.8382 94.7825C25.69 94.4455 26.1886 94.1895 26.3638 94.5264C39.2614 118.421 89.787 205.942 159.868 249.809Z" fill="white"/>
<path d="M196.431 274.553C196.431 274.553 153.709 99.5527 67.0242 4.51221C61.2021 -1.87593 50.6091 0.671242 48.3854 9.02704C33.4932 64.9031 5.35306 234.27 196.431 274.553Z" fill="url(#paint1_linear_1103_432)"/>
<path opacity="0.5" d="M178.884 263.38C179.315 263.798 178.749 264.458 178.264 264.108C160.474 251.062 91.5929 186.844 65.4339 58.097C65.353 57.6792 65.9595 57.5175 66.0808 57.9218C74.8948 87.7466 110.771 197.693 178.884 263.38Z" fill="white"/>
<path d="M18.4662 322.8C18.4662 326.143 21.2021 328.878 24.5444 328.878H353.251C356.593 328.878 359.329 326.143 359.329 322.8L362.065 133.906C362.065 130.563 358.129 124.04 350.919 124.539L29.6792 116.21C25.4878 116.102 21.4312 117.72 18.4528 120.671C15.4743 123.623 13.8571 127.679 13.9514 131.871L18.4662 322.8Z" fill="url(#paint2_linear_1103_432)"/>
<path d="M24.4636 316.979C24.4636 320.146 27.0512 322.734 30.2183 322.734H345.326C348.493 322.734 351.081 320.146 351.081 316.979L353.668 145.483C353.358 135.159 344.315 131.453 338.83 131.669L30.9461 123.407C27.9946 123.327 25.151 124.459 23.062 126.548C20.9731 128.623 19.8275 131.48 19.8949 134.432L24.4636 316.979Z" fill="#91B3FA"/>
<path d="M347.671 235.509C347.199 235.509 346.822 235.118 346.822 234.66L347.024 220.752C347.024 220.293 347.402 219.916 347.86 219.916H347.873C348.345 219.916 348.709 220.307 348.709 220.765L348.507 234.673C348.507 235.132 348.129 235.509 347.671 235.509Z" fill="url(#paint3_linear_1103_432)"/>
<path d="M348.183 201.426C348.17 201.426 348.17 201.426 348.183 201.426C347.712 201.426 347.334 201.035 347.334 200.577L348.116 147.315C348.102 144.148 347.146 141.628 345.259 139.822C341.755 136.466 336.175 136.628 335.946 136.642L237.536 134C237.065 133.987 236.701 133.596 236.714 133.137C236.728 132.666 237.078 132.275 237.577 132.315L335.933 134.957C336.539 134.916 342.469 134.822 346.431 138.609C348.655 140.739 349.787 143.677 349.8 147.329L349.019 200.617C349.005 201.062 348.641 201.426 348.183 201.426Z" fill="url(#paint4_linear_1103_432)"/>
<path d="M3.96497 346.237H375.07C375.488 346.237 375.838 345.9 375.838 345.469V328.704C375.838 328.286 375.501 327.936 375.07 327.936H3.96497C3.54718 327.936 3.19678 328.272 3.19678 328.704V345.483C3.19678 345.9 3.54718 346.237 3.96497 346.237Z" fill="url(#paint5_linear_1103_432)"/>
<g opacity="0.64">
<path opacity="0.64" d="M292.065 119.499C292.024 119.499 291.984 119.499 291.943 119.499C291.31 119.432 290.852 118.879 290.919 118.246C290.987 117.653 291.027 117.046 291.081 116.453C291.135 115.82 291.674 115.361 292.307 115.402C292.941 115.456 293.412 115.995 293.359 116.628C293.318 117.248 293.264 117.855 293.197 118.475C293.143 119.054 292.644 119.499 292.065 119.499Z" fill="white"/>
<path opacity="0.64" d="M215.731 186.103C215.717 186.103 215.704 186.103 215.69 186.103C214.464 186.063 213.21 185.982 211.984 185.874C211.35 185.82 210.892 185.267 210.946 184.634C211 184.001 211.553 183.542 212.186 183.596C213.372 183.704 214.585 183.771 215.784 183.812C216.418 183.839 216.903 184.364 216.89 184.998C216.849 185.618 216.337 186.103 215.731 186.103ZM221.674 186.076C221.067 186.076 220.555 185.604 220.528 184.984C220.501 184.351 220.987 183.825 221.62 183.785C222.806 183.731 224.019 183.65 225.205 183.529C225.838 183.475 226.391 183.933 226.445 184.553C226.499 185.186 226.04 185.739 225.421 185.793C224.194 185.914 222.941 185.995 221.714 186.049C221.701 186.076 221.687 186.076 221.674 186.076ZM206.189 185.146C206.121 185.146 206.067 185.146 206 185.133C204.787 184.93 203.561 184.688 202.348 184.432C201.728 184.297 201.337 183.691 201.472 183.071C201.607 182.451 202.213 182.06 202.833 182.195C204.005 182.451 205.191 182.68 206.364 182.882C206.984 182.99 207.402 183.569 207.307 184.203C207.213 184.742 206.728 185.146 206.189 185.146ZM231.202 185.011C230.663 185.011 230.178 184.62 230.084 184.068C229.976 183.448 230.394 182.855 231.014 182.747C232.186 182.545 233.372 182.302 234.545 182.033C235.164 181.898 235.771 182.275 235.919 182.895C236.054 183.515 235.677 184.122 235.057 184.27C233.857 184.54 232.631 184.796 231.418 185.011C231.337 185.011 231.27 185.011 231.202 185.011ZM196.849 182.949C196.741 182.949 196.62 182.936 196.512 182.895C195.34 182.532 194.154 182.141 192.995 181.723C192.402 181.507 192.092 180.86 192.307 180.267C192.523 179.674 193.17 179.364 193.763 179.58C194.895 179.984 196.04 180.362 197.173 180.712C197.779 180.901 198.116 181.534 197.927 182.141C197.793 182.626 197.334 182.949 196.849 182.949ZM240.515 182.734C240.03 182.734 239.585 182.424 239.423 181.939C239.235 181.332 239.571 180.699 240.164 180.51C241.31 180.146 242.456 179.755 243.574 179.351C244.167 179.135 244.828 179.432 245.043 180.025C245.259 180.618 244.962 181.278 244.369 181.494C243.21 181.925 242.038 182.329 240.852 182.693C240.744 182.72 240.636 182.734 240.515 182.734ZM187.873 179.567C187.712 179.567 187.55 179.54 187.402 179.459L187.011 179.284C186.014 178.825 185.03 178.354 184.059 177.855C183.493 177.572 183.278 176.885 183.561 176.319C183.844 175.753 184.531 175.537 185.097 175.82C186.04 176.305 186.997 176.763 187.954 177.208L188.345 177.383C188.925 177.639 189.181 178.327 188.911 178.893C188.722 179.31 188.305 179.567 187.873 179.567ZM249.464 179.284C249.032 179.284 248.615 179.041 248.426 178.623C248.156 178.057 248.412 177.37 248.978 177.1C250.07 176.602 251.148 176.063 252.213 175.51C252.766 175.213 253.466 175.429 253.749 175.995C254.046 176.548 253.83 177.248 253.264 177.532C252.173 178.098 251.054 178.65 249.935 179.176C249.787 179.257 249.625 179.284 249.464 179.284ZM179.396 175.065C179.194 175.065 178.978 175.011 178.803 174.89C177.752 174.243 176.714 173.556 175.69 172.868C175.164 172.505 175.043 171.804 175.394 171.278C175.757 170.753 176.458 170.631 176.984 170.982C177.968 171.655 178.992 172.316 180.003 172.949C180.542 173.286 180.704 173.987 180.38 174.526C180.151 174.863 179.774 175.065 179.396 175.065ZM257.9 174.701C257.523 174.701 257.146 174.513 256.93 174.162C256.593 173.623 256.755 172.922 257.294 172.585C258.305 171.952 259.315 171.278 260.299 170.591C260.811 170.227 261.526 170.348 261.89 170.874C262.253 171.386 262.132 172.1 261.607 172.464C260.596 173.178 259.558 173.866 258.507 174.526C258.318 174.647 258.102 174.701 257.9 174.701ZM171.58 169.499C171.323 169.499 171.067 169.418 170.865 169.243C169.908 168.461 168.965 167.653 168.049 166.831C167.577 166.413 167.536 165.685 167.968 165.213C168.385 164.742 169.113 164.701 169.585 165.133C170.474 165.928 171.391 166.723 172.321 167.478C172.806 167.882 172.887 168.596 172.483 169.081C172.24 169.351 171.903 169.499 171.58 169.499ZM265.663 169.081C265.34 169.081 265.003 168.947 264.787 168.664C264.383 168.178 264.45 167.464 264.935 167.06C265.852 166.305 266.768 165.496 267.658 164.688C268.129 164.257 268.844 164.297 269.275 164.755C269.706 165.227 269.666 165.941 269.208 166.372C268.291 167.208 267.348 168.03 266.404 168.812C266.175 168.987 265.919 169.081 265.663 169.081ZM164.545 162.976C164.248 162.976 163.938 162.855 163.709 162.612C162.86 161.709 162.024 160.779 161.229 159.85C160.825 159.364 160.879 158.65 161.35 158.232C161.836 157.828 162.55 157.882 162.968 158.354C163.736 159.257 164.558 160.16 165.38 161.036C165.811 161.494 165.798 162.222 165.34 162.653C165.111 162.868 164.828 162.976 164.545 162.976ZM272.644 162.478C272.361 162.478 272.092 162.383 271.863 162.168C271.404 161.736 271.377 161.022 271.809 160.55C272.617 159.674 273.426 158.758 274.194 157.855C274.598 157.37 275.326 157.316 275.798 157.72C276.283 158.125 276.35 158.852 275.933 159.324C275.138 160.267 274.315 161.211 273.466 162.114C273.251 162.356 272.941 162.478 272.644 162.478ZM278.695 155.038C278.466 155.038 278.237 154.971 278.035 154.823C277.523 154.459 277.402 153.744 277.766 153.232C278.453 152.262 279.14 151.251 279.774 150.254C280.111 149.715 280.825 149.567 281.35 149.903C281.876 150.24 282.038 150.955 281.701 151.48C281.041 152.518 280.34 153.556 279.625 154.553C279.41 154.877 279.059 155.038 278.695 155.038ZM283.736 146.871C283.561 146.871 283.372 146.831 283.197 146.736C282.644 146.44 282.429 145.753 282.725 145.186C283.291 144.135 283.83 143.044 284.342 141.965C284.612 141.399 285.286 141.157 285.865 141.413C286.431 141.682 286.687 142.356 286.418 142.936C285.892 144.054 285.34 145.173 284.76 146.251C284.531 146.655 284.14 146.871 283.736 146.871ZM287.685 138.138C287.55 138.138 287.415 138.111 287.28 138.071C286.687 137.841 286.391 137.195 286.62 136.602C287.038 135.483 287.442 134.337 287.806 133.205C287.995 132.599 288.642 132.275 289.248 132.464C289.855 132.653 290.178 133.3 289.989 133.906C289.612 135.079 289.194 136.265 288.763 137.41C288.574 137.855 288.143 138.138 287.685 138.138ZM290.488 128.96C290.407 128.96 290.313 128.947 290.232 128.933C289.612 128.785 289.235 128.178 289.383 127.558C289.652 126.399 289.908 125.213 290.124 124.041C290.232 123.421 290.838 123.003 291.458 123.124C292.078 123.232 292.496 123.839 292.375 124.459C292.159 125.672 291.903 126.898 291.62 128.098C291.472 128.61 291 128.96 290.488 128.96Z" fill="white"/>
<path opacity="0.64" d="M158.412 155.563C158.062 155.563 157.712 155.402 157.483 155.092C157.119 154.593 156.768 154.081 156.418 153.582C156.054 153.057 156.189 152.356 156.714 151.992C157.24 151.628 157.941 151.763 158.305 152.288C158.642 152.787 158.992 153.272 159.342 153.757C159.706 154.269 159.598 154.984 159.086 155.348C158.871 155.496 158.642 155.563 158.412 155.563Z" fill="white"/>
</g>
<g opacity="0.64">
<path opacity="0.64" d="M145.245 100.253C145.178 100.253 145.124 100.253 145.057 100.24C144.437 100.146 144.005 99.5527 144.113 98.9327C144.208 98.3263 144.315 97.7198 144.437 97.0999C144.558 96.4799 145.151 96.0756 145.771 96.1834C146.391 96.3047 146.795 96.8977 146.687 97.5176C146.58 98.1106 146.472 98.7036 146.377 99.2831C146.27 99.8492 145.784 100.253 145.245 100.253Z" fill="white"/>
<path opacity="0.64" d="M146.863 92.7467C146.768 92.7467 146.66 92.7332 146.566 92.7063C145.96 92.5446 145.596 91.9111 145.757 91.3047C146.081 90.1322 146.431 88.9597 146.795 87.8006C146.984 87.1942 147.631 86.8707 148.237 87.0729C148.844 87.2615 149.167 87.9084 148.965 88.5149C148.601 89.6335 148.264 90.7791 147.954 91.9111C147.819 92.4233 147.361 92.7467 146.863 92.7467ZM149.908 83.8114C149.76 83.8114 149.612 83.7845 149.477 83.7305C148.898 83.488 148.615 82.8276 148.857 82.2346C149.221 81.3451 149.612 80.4556 150.016 79.5661C150.124 79.337 150.218 79.1214 150.326 78.8923C150.596 78.3262 151.27 78.0702 151.849 78.3397C152.415 78.6092 152.671 79.2831 152.402 79.8626C152.294 80.0782 152.199 80.2939 152.092 80.523C151.701 81.3721 151.323 82.2481 150.96 83.1106C150.784 83.5553 150.353 83.8114 149.908 83.8114ZM154.059 75.3343C153.871 75.3343 153.668 75.2804 153.493 75.1861C152.941 74.8761 152.752 74.1753 153.062 73.6227C153.668 72.5715 154.302 71.5068 154.949 70.496C155.286 69.957 156 69.8087 156.526 70.1456C157.065 70.4826 157.213 71.1969 156.876 71.7225C156.243 72.7063 155.636 73.7305 155.043 74.7548C154.841 75.1322 154.45 75.3343 154.059 75.3343ZM159.248 67.4502C159.005 67.4502 158.763 67.3694 158.561 67.2211C158.062 66.8437 157.954 66.1295 158.332 65.6173C159.059 64.647 159.827 63.6766 160.609 62.7467C161.013 62.2615 161.728 62.1942 162.213 62.5985C162.698 63.0028 162.765 63.7171 162.361 64.2022C161.606 65.1052 160.865 66.0486 160.151 66.9785C159.935 67.2885 159.585 67.4502 159.248 67.4502ZM276.863 66.6416C276.526 66.6416 276.189 66.4933 275.96 66.1969C275.245 65.2669 274.491 64.3505 273.722 63.4475C273.318 62.9623 273.372 62.2481 273.844 61.8303C274.329 61.426 275.043 61.4799 275.461 61.9516C276.256 62.868 277.024 63.8249 277.765 64.7818C278.156 65.2804 278.062 65.9947 277.563 66.3855C277.348 66.5607 277.105 66.6416 276.863 66.6416ZM165.407 60.2804C165.124 60.2804 164.827 60.1726 164.612 59.957C164.167 59.5122 164.154 58.7979 164.598 58.3397C165.447 57.4772 166.323 56.6146 167.226 55.7925C167.685 55.3613 168.412 55.3882 168.844 55.8599C169.275 56.3181 169.248 57.0459 168.776 57.4772C167.914 58.2723 167.051 59.1079 166.229 59.957C166 60.1726 165.703 60.2804 165.407 60.2804ZM270.609 59.5661C270.313 59.5661 270.03 59.4583 269.801 59.2292C268.965 58.4071 268.102 57.585 267.226 56.7898C266.755 56.3721 266.714 55.6443 267.146 55.1726C267.563 54.7009 268.291 54.6605 268.763 55.0917C269.666 55.9004 270.555 56.7494 271.418 57.6119C271.863 58.0567 271.863 58.7845 271.418 59.2292C271.189 59.4448 270.906 59.5661 270.609 59.5661ZM172.429 53.9731C172.092 53.9731 171.755 53.8249 171.526 53.5419C171.135 53.0432 171.216 52.3289 171.714 51.9381C172.671 51.1834 173.655 50.4421 174.639 49.7413C175.151 49.3774 175.865 49.4987 176.229 50.0109C176.593 50.523 176.472 51.2373 175.96 51.6012C175.003 52.2885 174.046 53.0028 173.129 53.7305C172.927 53.8923 172.671 53.9731 172.429 53.9731ZM263.493 53.3397C263.251 53.3397 263.008 53.2588 262.792 53.0971C261.863 52.3828 260.892 51.682 259.922 51.0082C259.41 50.6443 259.275 49.9435 259.639 49.4179C260.003 48.8923 260.704 48.771 261.229 49.1349C262.226 49.8222 263.224 50.5499 264.181 51.2912C264.679 51.6685 264.774 52.3963 264.396 52.895C264.181 53.1915 263.844 53.3397 263.493 53.3397ZM180.205 48.6093C179.814 48.6093 179.437 48.4071 179.221 48.0567C178.898 47.5176 179.073 46.8168 179.612 46.4933C180.65 45.8734 181.728 45.2669 182.792 44.6874C183.345 44.3909 184.046 44.5931 184.342 45.1591C184.639 45.7117 184.437 46.4125 183.871 46.709C182.833 47.2615 181.795 47.8545 180.784 48.461C180.596 48.5553 180.394 48.6093 180.205 48.6093ZM255.65 48.0836C255.461 48.0836 255.259 48.0297 255.07 47.9219C254.059 47.3289 253.008 46.7629 251.957 46.2103C251.391 45.9138 251.175 45.2265 251.472 44.6739C251.768 44.1079 252.456 43.8923 253.008 44.1888C254.086 44.7413 255.164 45.3343 256.216 45.9543C256.755 46.2777 256.943 46.965 256.633 47.5176C256.431 47.8815 256.054 48.0836 255.65 48.0836ZM188.588 44.2696C188.143 44.2696 187.725 44.0136 187.536 43.5823C187.28 43.0028 187.55 42.3289 188.129 42.0729C189.234 41.5877 190.38 41.116 191.512 40.6847C192.105 40.4556 192.765 40.7521 192.981 41.3451C193.21 41.9381 192.914 42.5985 192.321 42.8141C191.229 43.2319 190.124 43.6901 189.046 44.1618C188.898 44.2427 188.736 44.2696 188.588 44.2696ZM247.199 43.8653C247.051 43.8653 246.903 43.8384 246.755 43.771C245.677 43.3128 244.571 42.868 243.466 42.4637C242.873 42.2481 242.577 41.5877 242.792 40.9947C243.008 40.4017 243.668 40.1052 244.261 40.3208C245.407 40.7386 246.539 41.1969 247.658 41.6686C248.237 41.9111 248.507 42.585 248.264 43.1645C248.075 43.6092 247.644 43.8653 247.199 43.8653ZM197.456 41.0351C196.957 41.0351 196.512 40.7117 196.364 40.213C196.189 39.6066 196.526 38.9731 197.132 38.7979C198.291 38.461 199.477 38.1376 200.663 37.8545C201.283 37.7063 201.889 38.0836 202.038 38.6901C202.186 39.2966 201.809 39.9165 201.202 40.0648C200.057 40.3478 198.911 40.6578 197.779 40.9812C197.671 41.0216 197.563 41.0351 197.456 41.0351ZM238.305 40.7386C238.197 40.7386 238.102 40.7252 237.995 40.6982C236.863 40.3747 235.703 40.0917 234.558 39.8222C233.938 39.6874 233.561 39.0675 233.695 38.4475C233.83 37.8276 234.45 37.4502 235.07 37.585C236.256 37.8545 237.442 38.1645 238.615 38.488C239.221 38.6632 239.571 39.2831 239.41 39.903C239.261 40.4152 238.803 40.7386 238.305 40.7386ZM206.66 38.9462C206.108 38.9462 205.623 38.5419 205.528 37.9893C205.434 37.3694 205.852 36.7764 206.472 36.682C207.671 36.4933 208.884 36.3181 210.097 36.1834C210.73 36.116 211.283 36.5607 211.364 37.1942C211.431 37.8276 210.987 38.3801 210.353 38.461C209.181 38.5958 208.008 38.7575 206.849 38.9327C206.782 38.9327 206.714 38.9462 206.66 38.9462ZM229.059 38.7845C229.005 38.7845 228.951 38.7845 228.898 38.771C227.739 38.5958 226.553 38.461 225.38 38.3397C224.747 38.2723 224.288 37.7198 224.356 37.0863C224.423 36.4529 224.976 35.9947 225.609 36.0621C226.822 36.1834 228.035 36.3316 229.234 36.5068C229.854 36.6012 230.286 37.1807 230.205 37.8006C230.11 38.3667 229.625 38.7845 229.059 38.7845ZM216.054 38.0432C215.434 38.0432 214.935 37.558 214.908 36.9381C214.895 36.3047 215.38 35.7791 216.013 35.7656C217.226 35.7252 218.453 35.7117 219.666 35.7386C220.299 35.7521 220.798 36.2642 220.784 36.8977C220.771 37.5311 220.259 38.0432 219.625 38.0163C218.453 38.0028 217.253 38.0028 216.081 38.0432C216.081 38.0432 216.067 38.0432 216.054 38.0432Z" fill="white"/>
<path opacity="0.64" d="M281.243 72.9484C280.865 72.9484 280.488 72.7598 280.272 72.4094C279.962 71.8972 279.639 71.3986 279.302 70.8999C278.951 70.3743 279.1 69.66 279.625 69.3231C280.151 68.9727 280.865 69.121 281.202 69.6466C281.539 70.1587 281.876 70.6843 282.199 71.2099C282.536 71.749 282.361 72.4498 281.836 72.7867C281.66 72.8945 281.458 72.9484 281.243 72.9484Z" fill="white"/>
</g>
<path d="M270.07 87.2078C269.949 86.8439 269.612 86.6013 269.235 86.6013L258.412 86.507C255.757 82.2078 252.402 78.2995 248.399 74.9841L249.801 64.2698C249.855 63.8924 249.652 63.5286 249.315 63.3534L237.698 57.5717C237.361 57.3965 236.943 57.4639 236.674 57.7334L228.965 65.3075C223.911 64.1081 218.763 63.7846 213.736 64.2563L207.146 55.6849C206.917 55.3884 206.512 55.2671 206.162 55.3884L193.857 59.5124C193.493 59.6337 193.251 59.9706 193.251 60.348L193.156 71.1701C188.857 73.825 184.949 77.1809 181.633 81.1835L170.919 79.7819C170.542 79.728 170.178 79.9302 170.003 80.2671L164.221 91.8844C164.046 92.2213 164.113 92.6391 164.383 92.9086L171.957 100.618C170.757 105.671 170.434 110.82 170.906 115.847L162.334 122.437C162.038 122.666 161.917 123.07 162.038 123.421L166.162 135.725C166.283 136.089 166.62 136.332 166.997 136.332L177.819 136.426C180.474 140.725 183.83 144.634 187.833 147.949L186.431 158.663C186.377 159.041 186.58 159.405 186.917 159.58L198.534 165.361C198.871 165.537 199.288 165.469 199.558 165.2L207.267 157.626C212.321 158.825 217.469 159.149 222.496 158.677L229.086 167.248C229.315 167.545 229.72 167.666 230.07 167.545L242.375 163.421C242.739 163.299 242.981 162.963 242.981 162.585L243.076 151.763C247.375 149.108 251.283 145.752 254.598 141.75L265.313 143.151C265.69 143.205 266.054 143.003 266.229 142.666L272.011 131.049C272.186 130.712 272.119 130.294 271.849 130.025L264.275 122.316C265.474 117.262 265.798 112.113 265.326 107.087L273.898 100.496C274.194 100.267 274.315 99.8628 274.194 99.5124L270.07 87.2078Z" fill="url(#paint6_linear_1103_432)"/>
<path d="M218.13 123.677C217.254 123.677 216.378 123.582 215.502 123.394C212.321 122.693 209.585 120.806 207.833 118.057C206.068 115.307 205.488 112.046 206.175 108.865C206.876 105.685 208.763 102.949 211.512 101.197C214.262 99.4313 217.523 98.8518 220.704 99.5391C223.884 100.24 226.62 102.127 228.372 104.876C230.138 107.625 230.717 110.887 230.03 114.067C229.329 117.248 227.442 119.984 224.693 121.736C222.712 123.016 220.448 123.677 218.13 123.677ZM218.089 100.617C216.041 100.617 214.019 101.197 212.254 102.342C209.814 103.906 208.143 106.318 207.523 109.148C206.903 111.978 207.429 114.876 208.992 117.315C210.555 119.755 212.968 121.426 215.798 122.046C218.628 122.666 221.526 122.14 223.965 120.577C226.404 119.014 228.076 116.601 228.696 113.771C229.316 110.941 228.79 108.043 227.227 105.604C225.663 103.164 223.251 101.493 220.421 100.873C219.639 100.698 218.857 100.617 218.089 100.617Z" fill="#BDD0FB"/>
<path d="M217.806 143.569C213.022 143.569 208.156 142.491 203.588 140.213C192.361 134.62 185.865 123.286 185.865 111.521C185.865 106.736 186.943 101.871 189.221 97.3023C193.035 89.6474 199.598 83.9466 207.698 81.2242C215.798 78.5153 224.477 79.1083 232.132 82.9223C232.146 82.9358 232.159 82.9358 232.186 82.9492C232.186 82.9492 232.186 82.9492 232.199 82.9492C234.221 83.96 236.135 85.1864 237.887 86.5881C238.062 86.7228 238.143 86.925 238.143 87.1271C238.143 87.2754 238.089 87.4236 237.995 87.5584C237.752 87.8549 237.321 87.9088 237.038 87.6662C235.34 86.3185 233.493 85.1325 231.539 84.1622C224.221 80.5099 215.919 79.9439 208.156 82.5315C200.394 85.1325 194.113 90.5907 190.474 97.9223C188.291 102.289 187.267 106.938 187.267 111.534C187.267 122.788 193.493 133.65 204.235 139C219.342 146.534 237.766 140.362 245.299 125.24C247.415 120.982 248.52 116.318 248.52 111.602C248.52 110.806 248.493 110.025 248.426 109.23C248.426 109.216 248.426 109.189 248.426 109.176C248.426 108.825 248.695 108.515 249.059 108.488C249.437 108.461 249.76 108.744 249.801 109.122C249.868 109.944 249.895 110.779 249.895 111.602C249.895 116.521 248.749 121.413 246.539 125.847C240.906 137.06 229.571 143.569 217.806 143.569Z" fill="#BDD0FB"/>
<path d="M326.094 32.7066L321.189 33.057C319.828 31.2106 318.17 29.5529 316.243 28.2052L316.485 23.2996C316.499 23.1244 316.391 22.9626 316.229 22.9087L310.758 20.712C310.596 20.6446 310.421 20.6985 310.299 20.8198L307.078 24.526C304.747 24.1621 302.402 24.2025 300.138 24.5934L296.836 20.9411C296.714 20.8198 296.539 20.7794 296.377 20.8467L290.946 23.1513C290.784 23.2187 290.69 23.3804 290.704 23.5556L291.054 28.4613C289.208 29.8225 287.55 31.4802 286.202 33.4074L281.297 33.1648C281.121 33.1513 280.96 33.2591 280.906 33.4209L278.709 38.8926C278.642 39.0543 278.682 39.2295 278.817 39.3508L282.523 42.5718C282.159 44.9034 282.2 47.2484 282.59 49.5125L278.938 52.8144C278.817 52.9357 278.776 53.1109 278.844 53.2726L281.148 58.7039C281.216 58.8656 281.377 58.96 281.553 58.9465L286.458 58.5961C287.82 60.4424 289.477 62.1001 291.404 63.4478L291.162 68.3535C291.148 68.5287 291.256 68.6904 291.418 68.7443L296.89 70.9411C297.051 71.0085 297.227 70.9546 297.348 70.8333L300.569 67.1271C302.9 67.491 305.245 67.4505 307.51 67.0597L310.811 70.712C310.933 70.8333 311.108 70.8737 311.27 70.8063L316.701 68.5017C316.863 68.4343 316.957 68.2726 316.944 68.0974L316.593 63.1918C318.439 61.8306 320.097 60.1729 321.445 58.2457L326.351 58.4883C326.526 58.5017 326.687 58.3939 326.741 58.2322L328.938 52.7605C329.006 52.5988 328.965 52.4236 328.83 52.3023L325.124 49.0813C325.488 46.7497 325.448 44.4047 325.057 42.1405L328.709 38.8387C328.83 38.7174 328.871 38.5422 328.803 38.3804L326.499 32.9492C326.418 32.7874 326.256 32.6931 326.094 32.7066Z" fill="url(#paint7_linear_1103_432)"/>
<path opacity="0.56" d="M303.83 51.5073C303.574 51.5073 303.318 51.4938 303.062 51.4534C301.553 51.2512 300.219 50.4695 299.302 49.2566C298.386 48.0437 297.995 46.5477 298.197 45.0383C298.399 43.5288 299.181 42.1946 300.394 41.2782C301.607 40.3617 303.103 39.9574 304.612 40.173C307.725 40.5908 309.909 43.4749 309.477 46.5881C309.073 49.4318 306.634 51.5073 303.83 51.5073ZM303.817 41.0356C302.779 41.0356 301.782 41.3725 300.933 42.0059C299.922 42.7741 299.262 43.9062 299.087 45.1596C298.736 47.7741 300.569 50.1865 303.17 50.5369C304.437 50.7121 305.69 50.3752 306.701 49.607C307.712 48.8388 308.372 47.7067 308.547 46.4534C308.898 43.8388 307.065 41.4264 304.464 41.076C304.248 41.0491 304.033 41.0356 303.817 41.0356Z" fill="white"/>
<g opacity="0.64">
<path opacity="0.64" d="M335.03 41.8705C334.477 41.8705 333.992 41.4662 333.898 40.9136C333.803 40.3341 333.696 39.7546 333.561 39.1886C333.426 38.5686 333.817 37.9622 334.423 37.8274C335.043 37.6926 335.65 38.0835 335.785 38.6899C335.919 39.3099 336.041 39.9298 336.135 40.5498C336.229 41.1697 335.811 41.7627 335.191 41.857C335.151 41.8705 335.097 41.8705 335.03 41.8705Z" fill="white"/>
<path opacity="0.64" d="M303.871 78.5687C302.59 78.5687 301.31 78.4879 300.03 78.3396C299.396 78.2722 298.952 77.6927 299.032 77.0728C299.1 76.4528 299.679 75.9946 300.299 76.0755C301.485 76.2103 302.685 76.2776 303.871 76.2776C304.504 76.2776 305.016 76.7898 305.016 77.4232C305.016 78.0566 304.504 78.5687 303.871 78.5687ZM309.854 77.9892C309.315 77.9892 308.844 77.6119 308.736 77.0593C308.615 76.4394 309.019 75.8464 309.639 75.7251C310.798 75.496 311.97 75.1995 313.102 74.8356C313.709 74.6469 314.342 74.9704 314.545 75.5768C314.733 76.1833 314.41 76.8167 313.803 77.0189C312.59 77.4097 311.337 77.7332 310.084 77.9757C310.003 77.9757 309.935 77.9892 309.854 77.9892ZM294.275 77.0863C294.167 77.0863 294.046 77.0728 293.925 77.0324C292.712 76.6415 291.499 76.1833 290.34 75.6577C289.76 75.4016 289.504 74.7278 289.774 74.1483C290.03 73.5687 290.717 73.3127 291.283 73.5822C292.361 74.0674 293.493 74.4987 294.625 74.8625C295.232 75.0512 295.555 75.6981 295.367 76.2911C295.218 76.7763 294.76 77.0863 294.275 77.0863ZM318.978 74.7008C318.574 74.7008 318.183 74.4852 317.981 74.1078C317.685 73.5553 317.887 72.8545 318.439 72.558C319.477 71.9919 320.501 71.345 321.472 70.6577C321.984 70.2938 322.698 70.4151 323.062 70.9272C323.426 71.4394 323.305 72.1536 322.792 72.5175C321.755 73.2588 320.65 73.9461 319.531 74.5526C319.356 74.6469 319.167 74.7008 318.978 74.7008ZM326.674 68.7979C326.391 68.7979 326.108 68.69 325.879 68.4744C325.421 68.0431 325.407 67.3154 325.838 66.8572C326.66 65.9946 327.442 65.0782 328.156 64.1348C328.534 63.6361 329.248 63.5283 329.76 63.9057C330.259 64.283 330.367 64.9973 329.989 65.5094C329.221 66.5337 328.386 67.5175 327.496 68.434C327.28 68.6766 326.97 68.7979 326.674 68.7979ZM332.226 60.8464C332.065 60.8464 331.89 60.8059 331.728 60.7251C331.162 60.4421 330.933 59.7682 331.202 59.2022C331.728 58.1375 332.186 57.0324 332.577 55.9003C332.779 55.3073 333.439 54.9973 334.032 55.1995C334.625 55.4016 334.935 56.062 334.733 56.655C334.315 57.8679 333.817 59.0539 333.251 60.1995C333.062 60.6038 332.658 60.8464 332.226 60.8464ZM335.097 51.5741C335.043 51.5741 334.989 51.5741 334.935 51.5607C334.315 51.4663 333.884 50.8868 333.965 50.2669L334.019 49.9299C334.167 48.8652 334.262 47.7736 334.288 46.7089C334.302 46.0755 334.814 45.5903 335.461 45.6038C336.094 45.6173 336.593 46.1563 336.566 46.7763C336.526 47.9218 336.431 49.0809 336.283 50.2264L336.229 50.5903C336.148 51.1698 335.65 51.5741 335.097 51.5741Z" fill="white"/>
<path opacity="0.64" d="M285.582 72.7732C285.353 72.7732 285.124 72.7058 284.922 72.5575C284.41 72.1936 283.898 71.8163 283.412 71.4254C282.914 71.0346 282.833 70.3068 283.237 69.8217C283.628 69.323 284.356 69.2422 284.841 69.6465C285.299 70.0103 285.771 70.3742 286.243 70.7112C286.755 71.075 286.876 71.7893 286.512 72.3015C286.283 72.598 285.933 72.7732 285.582 72.7732Z" fill="white"/>
</g>
<g opacity="0.64">
<path opacity="0.64" d="M272.496 51.1835C271.93 51.1835 271.445 50.7657 271.364 50.1997C271.283 49.5797 271.216 48.9463 271.162 48.3129C271.108 47.6795 271.58 47.1404 272.213 47.0865C272.833 47.046 273.386 47.5043 273.44 48.1377C273.48 48.7172 273.547 49.3102 273.628 49.8897C273.709 50.5096 273.278 51.0892 272.644 51.17C272.59 51.1835 272.55 51.1835 272.496 51.1835Z" fill="white"/>
<path opacity="0.64" d="M272.415 43.4476C272.375 43.4476 272.334 43.4476 272.28 43.4341C271.647 43.3667 271.202 42.8007 271.27 42.1673C271.297 41.8977 271.337 41.6417 271.364 41.3721C271.499 40.3883 271.674 39.4045 271.903 38.4476C272.038 37.8277 272.658 37.4503 273.278 37.5851C273.898 37.7198 274.275 38.3398 274.14 38.9597C273.938 39.8492 273.763 40.7657 273.642 41.6821C273.601 41.9247 273.574 42.1808 273.547 42.4233C273.48 43.0163 272.995 43.4476 272.415 43.4476ZM274.882 34.2293C274.733 34.2293 274.572 34.2023 274.423 34.1349C273.844 33.8789 273.588 33.205 273.83 32.6255C274.329 31.4799 274.908 30.3479 275.542 29.2562C275.865 28.7171 276.566 28.5285 277.105 28.8519C277.644 29.1754 277.833 29.8762 277.51 30.4153C276.917 31.426 276.377 32.4773 275.906 33.5419C275.744 33.9732 275.326 34.2293 274.882 34.2293ZM280.003 26.1834C279.733 26.1834 279.464 26.0891 279.248 25.9004C278.776 25.4826 278.723 24.7684 279.14 24.2832C279.962 23.3398 280.852 22.4233 281.782 21.5878C282.254 21.1565 282.968 21.1969 283.399 21.6686C283.817 22.1403 283.79 22.8546 283.318 23.2859C282.456 24.0675 281.62 24.9166 280.852 25.7926C280.636 26.0487 280.313 26.1834 280.003 26.1834ZM287.28 20.0109C286.903 20.0109 286.526 19.8223 286.31 19.4719C285.973 18.9328 286.148 18.232 286.687 17.895C287.752 17.2347 288.871 16.6417 290.016 16.1026C290.582 15.833 291.27 16.0891 291.539 16.6551C291.809 17.2212 291.553 17.9085 290.987 18.1781C289.922 18.6767 288.884 19.2293 287.887 19.8492C287.698 19.957 287.496 20.0109 287.28 20.0109ZM318.251 18.8115C318.076 18.8115 317.9 18.771 317.725 18.6902C316.687 18.1511 315.609 17.6794 314.504 17.2751C313.911 17.0595 313.615 16.3991 313.83 15.8061C314.046 15.2131 314.706 14.9166 315.299 15.1322C316.472 15.577 317.644 16.0891 318.763 16.6551C319.329 16.9382 319.545 17.6255 319.262 18.1915C319.059 18.5824 318.655 18.8115 318.251 18.8115ZM296.068 16.3047C295.555 16.3047 295.097 15.9543 294.962 15.4422C294.814 14.8357 295.178 14.2158 295.785 14.0541C296.997 13.7441 298.251 13.5015 299.491 13.3398C300.124 13.2589 300.69 13.6902 300.771 14.3236C300.852 14.9435 300.421 15.5231 299.787 15.6039C298.628 15.7522 297.469 15.9813 296.337 16.2643C296.256 16.2913 296.162 16.3047 296.068 16.3047ZM309.194 15.8061C309.127 15.8061 309.059 15.8061 309.006 15.7926C308.655 15.7387 308.305 15.6848 307.941 15.6309C307.132 15.5231 306.31 15.4422 305.502 15.4018C304.868 15.3613 304.396 14.8223 304.423 14.2023C304.464 13.5689 304.989 13.0972 305.623 13.1241C306.499 13.1781 307.375 13.2589 308.237 13.3802C308.615 13.4341 308.992 13.488 309.369 13.5554C309.989 13.6632 310.407 14.2562 310.299 14.8762C310.218 15.4018 309.733 15.8061 309.194 15.8061Z" fill="white"/>
<path opacity="0.64" d="M324.666 23.1779C324.397 23.1779 324.127 23.0836 323.911 22.8949C323.467 22.504 323.022 22.1267 322.55 21.7763C322.052 21.3854 321.971 20.6712 322.348 20.1725C322.739 19.6739 323.453 19.593 323.952 19.9704C324.45 20.3612 324.936 20.7655 325.407 21.1833C325.879 21.6011 325.933 22.3154 325.515 22.8005C325.3 23.0431 324.976 23.1779 324.666 23.1779Z" fill="white"/>
</g>
<path opacity="0.56" d="M303.83 60.4966C301.971 60.4966 300.124 60.1462 298.345 59.4319C292.631 57.1273 289.14 51.6152 289.14 45.7931C289.14 43.9737 289.477 42.1138 290.205 40.3214C291.674 36.6826 294.464 33.8389 298.076 32.289C301.688 30.7526 305.677 30.7122 309.316 32.1812C309.693 32.3295 310.057 32.5047 310.421 32.6799C310.865 32.909 311.31 33.1516 311.728 33.4211C311.741 33.4211 311.741 33.4346 311.755 33.4346C311.863 33.502 311.971 33.5694 312.065 33.6367C312.2 33.7311 312.267 33.8659 312.267 34.0141C312.267 34.1084 312.24 34.1893 312.186 34.2702C312.051 34.4858 311.755 34.5397 311.553 34.3915C310.744 33.8389 309.882 33.3807 308.965 33.0168C308.723 32.9225 308.48 32.8281 308.237 32.7473C306.122 32.033 303.911 31.8443 301.741 32.1812H301.728H301.715C300.69 32.3429 299.679 32.626 298.696 33.0168C298.682 33.0168 298.669 33.0303 298.655 33.0303C298.628 33.0438 298.601 33.0572 298.574 33.0572C298.52 33.0707 298.48 33.0977 298.426 33.1111C295.043 34.5532 292.429 37.2217 291.054 40.6314C290.38 42.289 290.057 44.0411 290.043 45.7796C290.043 47.6125 290.407 49.4454 291.148 51.1704C292.591 54.5532 295.259 57.1812 298.669 58.5424C302.078 59.9171 305.825 59.8766 309.208 58.4346C312.591 56.9925 315.219 54.3241 316.58 50.9144C317.24 49.2702 317.577 47.5181 317.577 45.7661C317.577 45.0518 317.523 44.3376 317.402 43.6233C317.402 43.5963 317.402 43.5694 317.402 43.5559C317.402 43.3403 317.564 43.1381 317.793 43.1111C318.049 43.0707 318.278 43.2459 318.318 43.4885C318.44 44.2432 318.493 45.0114 318.493 45.7796C318.493 47.6529 318.13 49.5128 317.429 51.2648C315.96 54.9036 313.17 57.7473 309.558 59.2971C307.739 60.1057 305.785 60.4966 303.83 60.4966Z" fill="white"/>
<g opacity="0.64">
<path opacity="0.64" d="M177.833 169.31C177.442 169.31 177.051 169.108 176.836 168.731C176.539 168.205 176.229 167.693 175.919 167.181C175.596 166.642 175.771 165.941 176.31 165.617C176.849 165.294 177.55 165.469 177.873 166.008C178.197 166.534 178.507 167.073 178.817 167.612C179.127 168.165 178.938 168.852 178.385 169.175C178.21 169.256 178.022 169.31 177.833 169.31Z" fill="white"/>
<path opacity="0.64" d="M108.129 289.243C107.617 289.243 107.105 289.243 106.607 289.229C105.973 289.216 105.474 288.69 105.488 288.07C105.501 287.437 106.027 286.938 106.647 286.952C107.819 286.979 108.992 286.965 110.178 286.938C110.191 286.938 110.205 286.938 110.205 286.938C110.825 286.938 111.337 287.437 111.35 288.057C111.364 288.69 110.865 289.216 110.232 289.229C109.531 289.243 108.83 289.243 108.129 289.243ZM100.825 288.906C100.784 288.906 100.757 288.906 100.717 288.906C99.5176 288.798 98.3046 288.65 97.1052 288.488C96.4852 288.407 96.0405 287.828 96.1348 287.194C96.2157 286.574 96.7952 286.13 97.4286 286.224C98.5876 286.386 99.7602 286.52 100.933 286.628C101.566 286.682 102.024 287.248 101.97 287.868C101.903 288.461 101.404 288.906 100.825 288.906ZM116.014 288.865C115.434 288.865 114.935 288.421 114.881 287.841C114.814 287.208 115.272 286.655 115.906 286.588C117.065 286.466 118.251 286.332 119.41 286.157C120.03 286.076 120.609 286.507 120.704 287.127C120.798 287.747 120.367 288.326 119.733 288.421C118.534 288.596 117.334 288.744 116.135 288.852C116.081 288.852 116.04 288.865 116.014 288.865ZM91.5391 287.504C91.4583 287.504 91.3774 287.491 91.2965 287.477C90.1106 287.221 88.9246 286.938 87.7656 286.642C87.1591 286.48 86.7952 285.86 86.9435 285.254C87.1052 284.647 87.7251 284.283 88.3316 284.431C89.4637 284.728 90.6092 284.997 91.7682 285.24C92.3882 285.375 92.779 285.981 92.6443 286.601C92.5364 287.127 92.0647 287.504 91.5391 287.504ZM125.286 287.396C124.76 287.396 124.288 287.033 124.167 286.493C124.032 285.874 124.423 285.267 125.043 285.132C126.189 284.89 127.334 284.607 128.48 284.31C129.086 284.148 129.72 284.512 129.881 285.119C130.043 285.725 129.679 286.359 129.073 286.52C127.914 286.83 126.714 287.113 125.542 287.369C125.447 287.383 125.367 287.396 125.286 287.396ZM134.329 284.876C133.857 284.876 133.412 284.58 133.251 284.108C133.049 283.515 133.359 282.868 133.965 282.652C135.07 282.275 136.189 281.857 137.28 281.44C137.873 281.21 138.534 281.493 138.763 282.086C138.992 282.679 138.709 283.34 138.116 283.569C136.997 284.014 135.852 284.431 134.706 284.822C134.585 284.849 134.45 284.876 134.329 284.876ZM143.022 281.305C142.59 281.305 142.186 281.062 141.997 280.658C141.728 280.092 141.957 279.404 142.536 279.135C143.601 278.623 144.652 278.084 145.677 277.531C146.229 277.235 146.93 277.437 147.226 278.003C147.523 278.555 147.321 279.256 146.755 279.553C145.704 280.119 144.612 280.671 143.52 281.197C143.359 281.278 143.183 281.305 143.022 281.305ZM151.216 276.75C150.838 276.75 150.474 276.561 150.245 276.224C149.908 275.685 150.07 274.984 150.596 274.647C151.58 274.027 152.563 273.367 153.52 272.693C154.032 272.329 154.747 272.45 155.111 272.976C155.474 273.488 155.353 274.202 154.828 274.566C153.844 275.254 152.833 275.941 151.809 276.574C151.647 276.696 151.431 276.75 151.216 276.75ZM158.83 271.251C158.493 271.251 158.17 271.103 157.941 270.833C157.536 270.348 157.617 269.62 158.102 269.229C159.005 268.488 159.908 267.72 160.784 266.938C161.256 266.52 161.984 266.561 162.402 267.033C162.819 267.504 162.779 268.232 162.307 268.65C161.418 269.445 160.488 270.24 159.544 271.008C159.342 271.17 159.086 271.251 158.83 271.251ZM165.744 264.903C165.461 264.903 165.164 264.795 164.949 264.58C164.491 264.135 164.491 263.421 164.922 262.962C165.73 262.127 166.539 261.251 167.321 260.375C167.739 259.903 168.466 259.863 168.938 260.281C169.41 260.698 169.45 261.426 169.032 261.898C168.237 262.801 167.402 263.69 166.566 264.553C166.337 264.795 166.04 264.903 165.744 264.903ZM171.863 257.801C171.62 257.801 171.377 257.72 171.175 257.572C170.677 257.194 170.582 256.467 170.96 255.968C171.674 255.038 172.375 254.081 173.035 253.124C173.399 252.612 174.113 252.477 174.625 252.841C175.137 253.205 175.272 253.919 174.908 254.431C174.221 255.415 173.507 256.399 172.766 257.356C172.55 257.639 172.213 257.801 171.863 257.801ZM177.132 250.024C176.93 250.024 176.728 249.971 176.553 249.863C176.014 249.539 175.838 248.838 176.148 248.299C176.741 247.289 177.334 246.264 177.887 245.227C178.183 244.674 178.884 244.458 179.437 244.755C179.989 245.051 180.205 245.752 179.908 246.305C179.342 247.369 178.736 248.434 178.116 249.472C177.9 249.822 177.523 250.024 177.132 250.024ZM181.445 241.682C181.283 241.682 181.135 241.655 180.973 241.588C180.394 241.332 180.137 240.658 180.394 240.078C180.865 239 181.337 237.909 181.755 236.817C181.984 236.224 182.644 235.941 183.237 236.17C183.83 236.399 184.113 237.059 183.884 237.652C183.439 238.771 182.968 239.903 182.483 241.008C182.307 241.426 181.89 241.682 181.445 241.682ZM184.774 232.895C184.666 232.895 184.544 232.882 184.437 232.841C183.83 232.652 183.493 232.019 183.682 231.413C184.032 230.294 184.356 229.148 184.652 228.016C184.814 227.41 185.434 227.046 186.054 227.208C186.66 227.369 187.024 227.989 186.863 228.609C186.553 229.782 186.216 230.954 185.852 232.1C185.704 232.572 185.259 232.895 184.774 232.895ZM187.038 223.771C186.97 223.771 186.903 223.771 186.822 223.758C186.202 223.636 185.798 223.043 185.906 222.423C186.121 221.278 186.31 220.105 186.472 218.933C186.553 218.313 187.132 217.868 187.766 217.962C188.385 218.043 188.83 218.623 188.736 219.256C188.574 220.456 188.372 221.669 188.143 222.841C188.049 223.394 187.577 223.771 187.038 223.771ZM188.21 214.445C188.183 214.445 188.156 214.445 188.129 214.445C187.496 214.405 187.024 213.852 187.065 213.232C187.146 212.073 187.199 210.887 187.213 209.714C187.226 209.081 187.766 208.569 188.385 208.596C189.019 208.609 189.518 209.135 189.504 209.768C189.477 210.981 189.423 212.194 189.342 213.394C189.315 213.987 188.803 214.445 188.21 214.445ZM188.278 205.051C187.671 205.051 187.173 204.58 187.132 203.973C187.078 202.801 186.984 201.615 186.876 200.456C186.809 199.822 187.28 199.27 187.9 199.202C188.534 199.135 189.086 199.607 189.154 200.227C189.275 201.426 189.356 202.639 189.423 203.852C189.45 204.485 188.965 205.024 188.345 205.051C188.318 205.051 188.305 205.051 188.278 205.051ZM187.253 195.725C186.701 195.725 186.229 195.334 186.135 194.768C186.04 194.256 185.96 193.731 185.852 193.219C185.73 192.572 185.596 191.938 185.461 191.305C185.326 190.685 185.717 190.078 186.337 189.944C186.957 189.809 187.563 190.2 187.698 190.82C187.833 191.467 187.968 192.127 188.102 192.787C188.197 193.326 188.305 193.852 188.385 194.391C188.493 195.011 188.075 195.604 187.456 195.712C187.375 195.712 187.307 195.725 187.253 195.725ZM185.151 186.574C184.652 186.574 184.194 186.251 184.059 185.752C183.736 184.634 183.372 183.502 182.995 182.383C182.792 181.79 183.116 181.143 183.709 180.927C184.302 180.725 184.949 181.049 185.164 181.642C185.555 182.787 185.919 183.946 186.256 185.105C186.431 185.712 186.081 186.345 185.474 186.52C185.367 186.547 185.259 186.574 185.151 186.574ZM181.997 177.72C181.553 177.72 181.135 177.464 180.946 177.019C180.488 175.941 180.003 174.863 179.491 173.798C179.221 173.232 179.464 172.545 180.03 172.275C180.596 172.006 181.283 172.248 181.553 172.814C182.078 173.906 182.577 175.011 183.049 176.13C183.291 176.709 183.022 177.383 182.442 177.626C182.294 177.693 182.146 177.72 181.997 177.72Z" fill="white"/>
<path opacity="0.64" d="M82.4287 284.984C82.3074 284.984 82.1861 284.971 82.0648 284.917C81.4853 284.714 80.8923 284.512 80.3128 284.297C79.7198 284.081 79.4098 283.421 79.6389 282.828C79.8546 282.235 80.5149 281.925 81.1079 282.154C81.674 282.356 82.24 282.558 82.806 282.76C83.399 282.962 83.7225 283.609 83.5203 284.216C83.3586 284.687 82.9139 284.984 82.4287 284.984Z" fill="white"/>
</g>
<path opacity="0.64" d="M36.2831 244.485C35.8653 244.485 35.461 244.256 35.2588 243.852C34.7198 242.747 34.1942 241.614 33.6955 240.482C33.4394 239.903 33.709 239.229 34.2885 238.973C34.868 238.717 35.5419 238.986 35.7979 239.566C36.2696 240.658 36.7818 241.763 37.3074 242.841C37.5904 243.407 37.3478 244.094 36.7818 244.364C36.62 244.445 36.4583 244.485 36.2831 244.485ZM32.5769 235.631C32.1052 235.631 31.6605 235.334 31.4987 234.862C31.0944 233.703 30.7036 232.517 30.3532 231.331C30.178 230.725 30.5149 230.092 31.1214 229.916C31.7278 229.741 32.3613 230.078 32.5365 230.685C32.8734 231.83 33.2508 232.976 33.6416 234.108C33.8438 234.701 33.5338 235.361 32.9408 235.563C32.833 235.617 32.7117 235.631 32.5769 235.631ZM29.9623 226.412C29.4367 226.412 28.965 226.048 28.8437 225.509C28.6685 224.714 28.4933 223.892 28.3451 223.083C28.2642 222.679 28.1968 222.275 28.1295 221.871C28.0216 221.251 28.4394 220.658 29.0594 220.55C29.6793 220.442 30.2723 220.86 30.3801 221.48C30.4475 221.871 30.5149 222.261 30.5958 222.652C30.744 223.434 30.9057 224.229 31.081 225.011C31.2157 225.631 30.8249 226.237 30.2049 226.372C30.1241 226.399 30.0432 226.412 29.9623 226.412ZM28.4394 216.938C27.8599 216.938 27.3613 216.493 27.3074 215.914C27.1861 214.687 27.0917 213.447 27.0243 212.221C26.9839 211.588 27.4691 211.048 28.1025 211.021C28.7225 210.995 29.275 211.466 29.302 212.1C29.3694 213.286 29.4637 214.499 29.5715 215.698C29.6389 216.331 29.1807 216.884 28.5473 216.951C28.5203 216.938 28.4799 216.938 28.4394 216.938ZM28.0621 207.356C28.0486 207.356 28.0486 207.356 28.0351 207.356C27.4017 207.342 26.903 206.817 26.9165 206.197C26.9435 204.97 26.9974 203.717 27.0783 202.49C27.1187 201.857 27.6712 201.385 28.2912 201.426C28.9246 201.466 29.3963 202.005 29.3559 202.639C29.275 203.838 29.2211 205.051 29.1942 206.237C29.1942 206.857 28.682 207.356 28.0621 207.356ZM28.8437 197.8C28.7898 197.8 28.7359 197.8 28.682 197.787C28.0621 197.693 27.6173 197.113 27.7117 196.493C27.8869 195.267 28.089 194.04 28.3181 192.827C28.4394 192.207 29.0324 191.803 29.6524 191.911C30.2723 192.032 30.6766 192.625 30.5553 193.245C30.3397 194.418 30.1375 195.617 29.9623 196.803C29.895 197.383 29.3963 197.8 28.8437 197.8ZM30.7575 188.393C30.6632 188.393 30.5553 188.38 30.461 188.353C29.8545 188.191 29.4906 187.558 29.6524 186.951C29.9758 185.765 30.3262 184.566 30.6901 183.393C30.8788 182.787 31.5257 182.464 32.1187 182.652C32.7251 182.841 33.0486 183.488 32.8599 184.081C32.496 185.226 32.1591 186.385 31.8491 187.544C31.7278 188.057 31.2696 188.393 30.7575 188.393ZM33.7898 179.296C33.6551 179.296 33.5068 179.269 33.3586 179.216C32.7791 178.986 32.4826 178.313 32.7251 177.733C33.1834 176.588 33.682 175.442 34.1807 174.323C34.4367 173.744 35.1241 173.501 35.6901 173.757C36.2696 174.013 36.5122 174.701 36.2561 175.267C35.7575 176.345 35.2858 177.464 34.8411 178.582C34.6793 179.027 34.2481 179.296 33.7898 179.296ZM37.8869 170.617C37.6982 170.617 37.5095 170.577 37.3343 170.482C36.7818 170.186 36.5796 169.485 36.8761 168.933C37.4691 167.854 38.089 166.763 38.7359 165.725C39.0594 165.186 39.7737 165.011 40.2993 165.348C40.8384 165.671 41.0136 166.385 40.6766 166.911C40.0567 167.922 39.4502 168.973 38.8707 170.038C38.682 170.402 38.2912 170.617 37.8869 170.617ZM42.9947 162.49C42.7656 162.49 42.5365 162.423 42.3343 162.275C41.8222 161.911 41.7009 161.197 42.0648 160.685C42.7791 159.687 43.5338 158.676 44.2885 157.72C44.6793 157.221 45.3936 157.14 45.8923 157.531C46.3909 157.922 46.4718 158.636 46.0809 159.135C45.3397 160.078 44.6119 161.048 43.9246 162.019C43.6955 162.329 43.3451 162.49 42.9947 162.49ZM49.019 155.038C48.7494 155.038 48.4664 154.943 48.2508 154.741C47.7791 154.31 47.7521 153.596 48.1699 153.124C48.992 152.221 49.8545 151.318 50.7305 150.442C51.1753 149.997 51.9031 149.997 52.3478 150.442C52.7925 150.887 52.7925 151.614 52.3478 152.059C51.4987 152.908 50.6632 153.784 49.868 154.66C49.6389 154.916 49.3289 155.038 49.019 155.038ZM55.8923 148.353C55.5688 148.353 55.2588 148.218 55.0297 147.962C54.6119 147.49 54.6659 146.763 55.151 146.345C56.0809 145.536 57.0513 144.741 58.0082 143.986C58.5068 143.596 59.2211 143.676 59.6119 144.175C60.0028 144.674 59.9219 145.388 59.4233 145.779C58.4933 146.52 57.5499 147.288 56.647 148.07C56.4179 148.259 56.1483 148.353 55.8923 148.353ZM63.5068 142.531C63.1429 142.531 62.7791 142.356 62.5634 142.032C62.213 141.507 62.3478 140.792 62.8734 140.442C63.8977 139.755 64.9354 139.081 65.9866 138.447C66.5257 138.124 67.2265 138.286 67.5499 138.825C67.8734 139.364 67.7117 140.065 67.1726 140.388C66.1483 141.008 65.1376 141.655 64.1402 142.329C63.9381 142.477 63.7225 142.531 63.5068 142.531ZM71.7548 137.679C71.337 137.679 70.9327 137.45 70.7305 137.059C70.4475 136.493 70.6632 135.806 71.2292 135.523C72.3208 134.957 73.4529 134.418 74.5715 133.919C75.151 133.663 75.8249 133.919 76.0809 134.485C76.337 135.065 76.0809 135.738 75.5149 135.995C74.4233 136.493 73.3316 137.019 72.2669 137.558C72.1052 137.639 71.93 137.679 71.7548 137.679ZM139.181 135.145C139.032 135.145 138.884 135.118 138.736 135.051C137.995 134.741 137.24 134.431 136.472 134.148C135.879 133.919 135.582 133.259 135.811 132.666C136.041 132.073 136.701 131.776 137.294 132.005C138.076 132.302 138.857 132.625 139.625 132.935C140.205 133.178 140.474 133.852 140.232 134.431C140.057 134.876 139.625 135.145 139.181 135.145ZM80.5419 133.852C80.0702 133.852 79.6389 133.569 79.4637 133.097C79.2481 132.504 79.5446 131.844 80.1376 131.628C81.2966 131.21 82.4691 130.806 83.6416 130.428C84.2481 130.24 84.8815 130.577 85.0702 131.17C85.2588 131.776 84.9219 132.41 84.3289 132.598C83.1834 132.962 82.0378 133.353 80.9192 133.757C80.8114 133.825 80.6766 133.852 80.5419 133.852ZM131.27 132.302C131.162 132.302 131.054 132.288 130.946 132.248C129.801 131.897 128.642 131.574 127.469 131.291C126.863 131.143 126.485 130.509 126.647 129.903C126.795 129.296 127.415 128.919 128.035 129.081C129.235 129.377 130.434 129.714 131.607 130.065C132.213 130.253 132.55 130.887 132.375 131.493C132.213 131.978 131.755 132.302 131.27 132.302ZM89.7198 131.089C89.2076 131.089 88.7359 130.738 88.6146 130.213C88.4664 129.593 88.8437 128.986 89.4637 128.838C90.6497 128.555 91.8626 128.299 93.0621 128.07L93.1025 128.056C93.7225 127.949 94.3155 128.366 94.4233 129C94.5311 129.633 94.0998 130.213 93.4799 130.321C92.3074 130.536 91.1349 130.792 89.9758 131.062C89.895 131.075 89.8141 131.089 89.7198 131.089ZM121.943 130.092C121.876 130.092 121.809 130.092 121.741 130.078C120.569 129.876 119.369 129.687 118.183 129.539C117.563 129.458 117.119 128.892 117.2 128.259C117.28 127.639 117.846 127.194 118.48 127.275C119.706 127.423 120.933 127.612 122.146 127.827C122.766 127.935 123.183 128.528 123.076 129.148C122.968 129.701 122.483 130.092 121.943 130.092ZM99.1672 129.431C98.5877 129.431 98.1025 129 98.0351 128.42C97.9677 127.787 98.4125 127.221 99.0459 127.154C100.272 127.019 101.512 126.897 102.739 126.817C103.359 126.776 103.911 127.248 103.952 127.881C103.992 128.515 103.52 129.054 102.887 129.094C101.701 129.175 100.488 129.283 99.302 129.418C99.2615 129.431 99.2211 129.431 99.1672 129.431ZM112.402 129.013C112.388 129.013 112.361 129.013 112.348 129.013C111.162 128.946 109.949 128.919 108.749 128.906C108.116 128.906 107.604 128.393 107.617 127.76C107.617 127.127 108.129 126.628 108.763 126.628C110.003 126.628 111.243 126.668 112.469 126.736C113.103 126.763 113.588 127.302 113.547 127.935C113.52 128.542 113.008 129.013 112.402 129.013Z" fill="white"/>
<path d="M143.871 146.103C143.48 145.82 142.968 145.82 142.577 146.089L131.445 153.852C125.609 151.386 119.329 149.836 112.833 149.351L106.472 137.369C106.243 136.952 105.784 136.723 105.313 136.79L89.2345 139.31C88.7628 139.378 88.3989 139.741 88.3046 140.213L85.9191 153.569C79.8814 156.022 74.3827 159.418 69.5714 163.555L56.593 159.58C56.1347 159.445 55.6496 159.607 55.3665 159.984L45.7709 173.138C45.4878 173.529 45.4878 174.041 45.7574 174.431L53.5202 185.564C51.0539 191.399 49.504 197.679 49.0188 204.175L37.0377 210.537C36.6199 210.766 36.3908 211.224 36.4582 211.696L38.9784 227.774C39.0458 228.246 39.4097 228.609 39.8814 228.704L53.2372 231.089C55.69 237.127 59.0862 242.626 63.2237 247.437L59.248 260.415C59.1132 260.874 59.2749 261.359 59.6523 261.642L72.8059 271.237C73.1967 271.52 73.7089 271.52 74.0997 271.251L85.2318 263.488C91.0674 265.954 97.3477 267.504 103.844 267.989L110.205 279.971C110.434 280.388 110.892 280.617 111.364 280.55L127.442 278.03C127.914 277.963 128.278 277.599 128.372 277.127L130.757 263.771C136.795 261.318 142.294 257.922 147.105 253.785L160.084 257.76C160.542 257.895 161.027 257.733 161.31 257.356L170.906 244.202C171.189 243.812 171.189 243.299 170.919 242.909L163.156 231.777C165.623 225.941 167.173 219.661 167.658 213.165L179.639 206.803C180.057 206.574 180.286 206.116 180.218 205.644L177.698 189.566C177.631 189.095 177.267 188.731 176.795 188.636L163.439 186.251C160.987 180.213 157.59 174.715 153.453 169.903L157.429 156.925C157.563 156.467 157.402 155.981 157.024 155.698L143.871 146.103Z" fill="url(#paint8_linear_1103_432)"/>
<path d="M108.359 223.811C102.469 223.811 96.8626 220.361 94.4097 214.607C91.1348 206.925 94.7197 198.016 102.402 194.741C106.121 193.151 110.232 193.111 113.992 194.62C117.739 196.13 120.677 199.014 122.267 202.733C123.857 206.453 123.898 210.564 122.388 214.324C120.879 218.07 117.995 221.022 114.275 222.599C112.348 223.421 110.34 223.811 108.359 223.811ZM108.345 194.89C106.512 194.89 104.679 195.254 102.954 195.995C95.9731 198.973 92.7116 207.073 95.69 214.068C98.6685 221.049 106.768 224.31 113.763 221.332C117.146 219.89 119.76 217.221 121.135 213.798C122.509 210.388 122.469 206.642 121.027 203.259C119.585 199.876 116.916 197.262 113.493 195.887C111.822 195.227 110.084 194.89 108.345 194.89Z" fill="#BDD0FB"/>
<path d="M108.143 248.933C88.8167 248.933 71.7682 234.836 68.682 215.146C68.3585 213.057 68.1968 210.981 68.1968 208.933C68.1968 189.606 82.2938 172.558 101.97 169.472C104.302 169.108 106.66 168.946 109.005 168.987C109.491 169 109.989 169.013 110.474 169.04C110.838 169.067 111.121 169.364 111.121 169.728C111.121 169.741 111.121 169.755 111.121 169.768C111.094 170.146 110.798 170.429 110.394 170.415C107.671 170.253 104.908 170.402 102.186 170.819C100.03 171.156 97.9407 171.668 95.9326 172.342C80.6766 177.437 70.1375 191.615 69.5984 207.625C69.5849 208.057 69.5714 208.488 69.5714 208.919C69.5714 210.9 69.7197 212.908 70.0431 214.93C73.0216 233.933 89.4906 247.544 108.156 247.558C110.138 247.558 112.146 247.41 114.154 247.086C133.156 244.108 146.768 227.652 146.782 208.973C146.782 206.992 146.633 204.984 146.31 202.962C145.232 196.049 142.294 189.566 137.833 184.229C137.725 184.094 137.671 183.946 137.671 183.784C137.671 183.582 137.752 183.394 137.914 183.259C138.21 183.016 138.642 183.057 138.884 183.34C143.507 188.879 146.539 195.577 147.658 202.733C147.981 204.822 148.143 206.898 148.143 208.946C148.143 228.272 134.046 245.321 114.356 248.407C112.267 248.771 110.191 248.933 108.143 248.933Z" fill="#BDD0FB"/>
<path d="M243.143 240.605L248.453 245.847C255.987 245.119 261.809 242.774 266.27 239.796C263.588 233.111 260.852 229.149 258.709 226.831C251.701 236.71 243.143 240.605 243.143 240.605Z" fill="url(#paint9_linear_1103_432)"/>
<path d="M280.124 221.009L267.59 201.413C266.768 212.464 263.035 220.78 258.722 226.844C260.865 229.162 263.588 233.125 266.283 239.809C277.415 232.37 280.124 221.009 280.124 221.009Z" fill="url(#paint10_linear_1103_432)"/>
<path d="M293.453 375.901C287.2 376.184 281.148 376.009 277.119 375.807C280.798 373.192 289.262 367.491 296.364 365.227L301.229 364.931C301.229 364.931 302.873 367.437 303.466 373.179C302.644 374.189 300.286 375.591 293.453 375.901Z" fill="url(#paint11_linear_1103_432)"/>
<path d="M277.065 375.847C277.078 375.834 277.105 375.82 277.119 375.807C281.162 376.009 287.213 376.198 293.453 375.901C300.299 375.591 302.658 374.189 303.453 373.179C303.48 373.448 303.507 373.704 303.534 373.987C303.641 375.241 302.698 376.359 301.445 376.454C296.323 376.844 283.641 377.72 277.523 377.397C276.701 377.343 276.404 376.305 277.065 375.847Z" fill="url(#paint12_linear_1103_432)"/>
<path d="M338.817 374.229C339.275 371.291 340.003 367.059 340.569 365.968C341.458 364.269 344.504 365.968 344.504 365.968C344.504 365.968 346.647 366.965 347.631 368.623C348.264 369.687 349.989 372.693 351.162 374.741C351.296 374.97 351.35 375.226 351.35 375.469L339.154 375.9C338.871 375.429 338.722 374.849 338.817 374.229Z" fill="url(#paint13_linear_1103_432)"/>
<path d="M351.351 375.482C351.324 376.183 350.785 376.817 350.003 376.83L341.31 377.073C340.394 377.1 339.599 376.614 339.154 375.914L351.351 375.482Z" fill="url(#paint14_linear_1103_432)"/>
<path d="M338.156 357.222C338.601 353.893 344.572 355.24 344.572 355.24C344.585 355.604 345.367 363.354 345.717 366.763C345.811 367.707 345.259 368.583 344.41 368.825C343.952 368.96 343.399 369.095 342.82 369.216C341.795 369.418 340.771 368.798 340.421 367.734C339.491 364.984 337.833 359.634 338.156 357.222Z" fill="url(#paint15_linear_1103_432)"/>
<path d="M302.173 358.407C301.499 358.38 302.442 361.898 301.418 365.348C301.189 366.13 300.609 366.736 299.787 366.75C299.262 366.75 298.642 366.75 298.008 366.696C297.051 366.615 296.297 365.887 296.202 364.93L295.367 355.981L302.173 358.407Z" fill="url(#paint16_linear_1103_432)"/>
<path d="M283.278 263.272C283.574 264.741 294.221 326.844 294.868 358.973C294.881 359.512 295.272 359.97 295.811 360.038C297.159 360.226 299.801 360.469 302.348 359.997C302.698 359.93 302.954 359.647 302.981 359.296C303.358 353.313 306.35 302.679 302.685 278.852C302.685 278.852 332.954 342.558 337.55 360.132C337.658 360.563 338.048 360.846 338.493 360.819C339.787 360.752 342.482 360.523 344.625 359.728C345.393 359.445 345.825 358.636 345.636 357.841C343.075 347.329 325.11 274.889 312.914 258.933L283.278 263.272Z" fill="url(#paint17_linear_1103_432)"/>
<path d="M302.671 279.229C302.766 279.229 302.874 279.189 302.954 279.121C303.116 278.973 303.116 278.717 302.954 278.555L298.898 274.404C298.75 274.243 298.493 274.243 298.332 274.404C298.17 274.553 298.17 274.809 298.332 274.971L302.388 279.121C302.469 279.189 302.577 279.229 302.671 279.229Z" fill="url(#paint18_linear_1103_432)"/>
<path d="M265.973 185.524C273.749 183.489 288.089 180.295 299.504 180.982C302.132 181.144 304.234 183.206 304.383 185.834C306.108 216.238 308.466 243.233 312.9 258.933C302.927 262.882 293.035 264.715 283.278 263.273C275.973 247.613 269.571 229.54 264.113 209.014C264.113 209.014 260.906 192.64 264.019 187.181C264.504 186.332 265.137 185.739 265.973 185.524Z" fill="url(#paint19_linear_1103_432)"/>
<path d="M284.666 164.229C284.666 164.229 286.633 175.941 287.213 181.359C287.307 182.235 286.849 183.07 286.054 183.475C283.911 184.58 279.329 186.359 274.329 184.728C273.507 184.459 272.968 183.663 272.981 182.801L273.318 167.168L284.666 164.229Z" fill="url(#paint20_linear_1103_432)"/>
<path d="M362.914 254.715L368.035 256.008C376.809 258.232 382.725 264.822 381.229 270.739L379.45 277.774C377.954 283.69 369.626 286.696 360.838 284.472L355.717 283.178C355.38 283.097 355.043 283.003 354.706 282.895L204.679 238.003L208.561 222.666L361.89 254.472C362.227 254.553 362.564 254.634 362.914 254.715ZM360.704 261.736C354.1 260.065 347.927 261.898 346.944 265.82C345.946 269.741 350.502 274.283 357.119 275.954C363.723 277.626 369.895 275.793 370.879 271.871C371.876 267.949 367.321 263.407 360.704 261.736Z" fill="url(#paint21_linear_1103_432)"/>
<path d="M158.669 201.857L188.359 209.364C190.475 209.903 192.213 211.386 193.089 213.38L197.536 223.636C198.803 226.561 197.941 229.984 195.434 231.952L186.647 238.866C184.935 240.213 182.698 240.685 180.582 240.159L150.892 232.653C146.418 231.521 142.604 236.197 144.72 240.308C149.774 250.132 159.059 257.895 170.865 260.887C192.213 266.278 211.108 253.353 216.297 232.814C221.485 212.275 211.014 191.925 189.652 186.521C177.846 183.529 165.987 185.968 156.863 192.208C153.062 194.795 154.194 200.725 158.669 201.857Z" fill="url(#paint22_linear_1103_432)"/>
<path d="M157.954 204.648L187.644 212.154C189.76 212.693 191.499 214.176 192.375 216.17L196.822 226.427C198.089 229.351 197.226 232.774 194.72 234.742L185.933 241.656C184.221 243.003 181.984 243.475 179.868 242.949L150.178 235.443C145.704 234.311 141.89 238.987 144.005 243.098C149.059 252.922 158.345 260.685 170.151 263.677C191.499 269.068 210.394 256.143 215.582 235.604C220.771 215.065 210.299 194.715 188.938 189.311C177.132 186.319 165.272 188.758 156.148 194.998C152.361 197.599 153.48 203.515 157.954 204.648Z" fill="url(#paint23_linear_1103_432)"/>
<path d="M362.348 256.938L367.469 258.232C376.243 260.456 382.159 267.046 380.663 272.962L378.884 279.997C377.388 285.914 369.059 288.919 360.272 286.696L355.151 285.402C354.814 285.321 354.477 285.227 354.14 285.119L204.113 240.227L207.995 224.89L361.337 256.682C361.66 256.776 362.011 256.857 362.348 256.938ZM360.138 263.973C353.534 262.302 347.361 264.135 346.377 268.057C345.38 271.979 349.935 276.52 356.553 278.192C363.156 279.863 369.329 278.03 370.313 274.108C371.31 270.173 366.755 265.644 360.138 263.973Z" fill="url(#paint24_linear_1103_432)"/>
<path d="M324.504 226.023C328.345 236.804 326.189 248.381 326.189 248.381L331.256 249.729C331.256 249.729 337.806 241.939 336.31 224.661C331.62 223.947 327.24 225.039 324.504 226.023Z" fill="url(#paint25_linear_1103_432)"/>
<path d="M336.297 224.661C336.135 222.72 335.865 220.658 335.475 218.475C332.051 199.418 307.617 184.755 301.863 181.548C301.324 181.251 300.677 181.655 300.69 182.262L301.512 208.178C315.124 210.011 321.566 217.801 324.504 226.036C327.24 225.038 331.62 223.947 336.297 224.661Z" fill="url(#paint26_linear_1103_432)"/>
<path d="M232.456 250.118C231.512 249.862 230.73 249.175 230.326 248.285C229.545 246.547 228.668 243.744 230.542 242.895C233.332 241.628 238.399 246.816 238.399 246.816L240.879 250.833L243.143 251.938C241.067 252.504 237.078 251.547 232.456 250.118Z" fill="url(#paint27_linear_1103_432)"/>
<path d="M326.512 245.847H320.245C320.245 245.847 325.326 248.893 325.501 252.1C325.677 255.308 323.48 261.952 322.456 263.758C321.337 265.739 336.647 260.82 331.243 245.847H326.512Z" fill="url(#paint28_linear_1103_432)"/>
<path d="M269.814 148.866C269.679 149.109 266.768 167.586 266.768 167.586L277.348 169.028L282.712 151.939C282.712 151.925 272.092 144.715 269.814 148.866Z" fill="url(#paint29_linear_1103_432)"/>
<path d="M278.79 153.636C279.086 154 279.208 154.485 279.1 154.957L277.011 164.041C276.984 164.176 276.93 164.31 276.863 164.432C276.485 165.119 275.111 167.181 273.022 165.658C271.243 164.351 269.585 163.178 268.156 162.936C267.321 162.801 266.526 163.38 266.404 164.229C266.135 165.968 265.663 169.472 265.69 172.653C265.69 173.448 266.324 174.108 267.119 174.162C269.208 174.31 273.318 174.472 276.714 173.866C277.267 173.771 277.725 173.367 277.9 172.828C278.669 170.456 280.879 163.825 281.782 162.06C282.631 160.415 285.084 160.132 286.216 160.092C286.647 160.078 287.051 159.89 287.334 159.566C288.183 158.583 289.504 156.413 286.957 154.283C286.323 153.758 286.243 152.801 286.768 152.154C287.698 150.995 288.493 149.135 286.512 147.167C284.504 145.186 282.24 145.685 280.798 146.359C280.164 146.655 279.383 146.521 278.925 145.995C278.722 145.752 278.426 145.591 277.981 145.645C277.146 145.739 276.391 145.186 276.297 144.351C276.121 142.922 275.353 141.238 272.819 140.752C268.17 139.863 265.865 144.526 265.96 147.801C266.054 151.076 271.148 151.75 274.032 151.197C276.121 150.752 277.968 152.612 278.79 153.636Z" fill="url(#paint30_linear_1103_432)"/>
<path d="M280.96 165.389C280.96 165.389 281.041 159.688 283.345 159.149C285.65 158.61 288.143 160.267 286.175 163.691C283.736 167.936 280.96 165.389 280.96 165.389Z" fill="url(#paint31_linear_1103_432)"/>
<defs>
<linearGradient id="paint0_linear_1103_432" x1="427.022" y1="489.641" x2="90.9791" y2="72.296" gradientUnits="userSpaceOnUse">
<stop stop-color="#DAE3FE"/>
<stop offset="1" stop-color="#E9EFFD"/>
</linearGradient>
<linearGradient id="paint1_linear_1103_432" x1="37.3296" y1="25.2175" x2="126.25" y2="204.625" gradientUnits="userSpaceOnUse">
<stop stop-color="#83C0D7"/>
<stop offset="1" stop-color="#FF928E"/>
</linearGradient>
<linearGradient id="paint2_linear_1103_432" x1="218.926" y1="314.35" x2="141.292" y2="81.4468" gradientUnits="userSpaceOnUse">
<stop stop-color="#09005D"/>
<stop offset="1" stop-color="#1A0F91"/>
</linearGradient>
<linearGradient id="paint3_linear_1103_432" x1="346.833" y1="227.708" x2="348.722" y2="227.708" gradientUnits="userSpaceOnUse">
<stop stop-color="#DAE3FE"/>
<stop offset="1" stop-color="#E9EFFD"/>
</linearGradient>
<linearGradient id="paint4_linear_1103_432" x1="236.718" y1="166.867" x2="349.801" y2="166.867" gradientUnits="userSpaceOnUse">
<stop stop-color="#DAE3FE"/>
<stop offset="1" stop-color="#E9EFFD"/>
</linearGradient>
<linearGradient id="paint5_linear_1103_432" x1="210.84" y1="59.8942" x2="202.566" y2="167.445" gradientUnits="userSpaceOnUse">
<stop stop-color="#09005D"/>
<stop offset="1" stop-color="#1A0F91"/>
</linearGradient>
<linearGradient id="paint6_linear_1103_432" x1="233.842" y1="68.7125" x2="170.773" y2="240.094" gradientUnits="userSpaceOnUse">
<stop stop-color="#3C5762"/>
<stop offset="1" stop-color="#4042E2"/>
</linearGradient>
<linearGradient id="paint7_linear_1103_432" x1="297.36" y1="64.495" x2="327.716" y2="-23.2112" gradientUnits="userSpaceOnUse">
<stop stop-color="#525882"/>
<stop offset="1" stop-color="#4042E2"/>
</linearGradient>
<linearGradient id="paint8_linear_1103_432" x1="120.924" y1="166.609" x2="72.9369" y2="327.022" gradientUnits="userSpaceOnUse">
<stop stop-color="#51437B"/>
<stop offset="1" stop-color="#4042E2"/>
</linearGradient>
<linearGradient id="paint9_linear_1103_432" x1="250.181" y1="228.202" x2="277.213" y2="299.838" gradientUnits="userSpaceOnUse">
<stop stop-color="#FEBBBA"/>
<stop offset="1" stop-color="#FF928E"/>
</linearGradient>
<linearGradient id="paint10_linear_1103_432" x1="265.876" y1="209.521" x2="284.084" y2="283.571" gradientUnits="userSpaceOnUse">
<stop stop-color="#B90C0C"/>
<stop offset="1" stop-color="#FF928E"/>
</linearGradient>
<linearGradient id="paint11_linear_1103_432" x1="303.539" y1="370.496" x2="276.701" y2="370.496" gradientUnits="userSpaceOnUse">
<stop stop-color="#4F52FF"/>
<stop offset="1" stop-color="#4042E2"/>
</linearGradient>
<linearGradient id="paint12_linear_1103_432" x1="290.12" y1="277.186" x2="290.12" y2="316.79" gradientUnits="userSpaceOnUse">
<stop stop-color="#09005D"/>
<stop offset="1" stop-color="#1A0F91"/>
</linearGradient>
<linearGradient id="paint13_linear_1103_432" x1="351.357" y1="370.562" x2="338.791" y2="370.562" gradientUnits="userSpaceOnUse">
<stop stop-color="#4F52FF"/>
<stop offset="1" stop-color="#4042E2"/>
</linearGradient>
<linearGradient id="paint14_linear_1103_432" x1="345.26" y1="277.187" x2="345.26" y2="316.79" gradientUnits="userSpaceOnUse">
<stop stop-color="#09005D"/>
<stop offset="1" stop-color="#1A0F91"/>
</linearGradient>
<linearGradient id="paint15_linear_1103_432" x1="345.732" y1="362.116" x2="338.118" y2="362.116" gradientUnits="userSpaceOnUse">
<stop stop-color="#FEBBBA"/>
<stop offset="1" stop-color="#FF928E"/>
</linearGradient>
<linearGradient id="paint16_linear_1103_432" x1="302.174" y1="361.365" x2="295.378" y2="361.365" gradientUnits="userSpaceOnUse">
<stop stop-color="#FEBBBA"/>
<stop offset="1" stop-color="#FF928E"/>
</linearGradient>
<linearGradient id="paint17_linear_1103_432" x1="313.975" y1="341.361" x2="316.002" y2="216.336" gradientUnits="userSpaceOnUse">
<stop stop-color="#5D8290"/>
<stop offset="1" stop-color="#5D8290"/>
</linearGradient>
<linearGradient id="paint18_linear_1103_432" x1="285.275" y1="256.884" x2="313.089" y2="292.845" gradientUnits="userSpaceOnUse">
<stop stop-color="#4F52FF"/>
<stop offset="1" stop-color="#4042E2"/>
</linearGradient>
<linearGradient id="paint19_linear_1103_432" x1="231.392" y1="-39.0098" x2="221.074" y2="-85.1389" gradientUnits="userSpaceOnUse">
<stop stop-color="#B90C0C"/>
<stop offset="1" stop-color="#FF928E"/>
</linearGradient>
<linearGradient id="paint20_linear_1103_432" x1="281.884" y1="192.377" x2="278.536" y2="171.73" gradientUnits="userSpaceOnUse">
<stop stop-color="#FEBBBA"/>
<stop offset="1" stop-color="#FF928E"/>
</linearGradient>
<linearGradient id="paint21_linear_1103_432" x1="301.96" y1="237.102" x2="337.909" y2="176.477" gradientUnits="userSpaceOnUse">
<stop stop-color="#09005D"/>
<stop offset="1" stop-color="#1A0F91"/>
</linearGradient>
<linearGradient id="paint22_linear_1103_432" x1="206.344" y1="180.406" x2="242.292" y2="119.781" gradientUnits="userSpaceOnUse">
<stop stop-color="#09005D"/>
<stop offset="1" stop-color="#1A0F91"/>
</linearGradient>
<linearGradient id="paint23_linear_1103_432" x1="689.023" y1="1148.6" x2="640.93" y2="1061.66" gradientUnits="userSpaceOnUse">
<stop stop-color="#09005D"/>
<stop offset="1" stop-color="#1A0F91"/>
</linearGradient>
<linearGradient id="paint24_linear_1103_432" x1="798.449" y1="974.629" x2="756.184" y2="874.57" gradientUnits="userSpaceOnUse">
<stop stop-color="#09005D"/>
<stop offset="1" stop-color="#1A0F91"/>
</linearGradient>
<linearGradient id="paint25_linear_1103_432" x1="267.785" y1="-47.1488" x2="257.466" y2="-93.2779" gradientUnits="userSpaceOnUse">
<stop stop-color="#FEBBBA"/>
<stop offset="1" stop-color="#FF928E"/>
</linearGradient>
<linearGradient id="paint26_linear_1103_432" x1="260.598" y1="-45.5424" x2="250.28" y2="-91.6715" gradientUnits="userSpaceOnUse">
<stop stop-color="#B90C0C"/>
<stop offset="1" stop-color="#FF928E"/>
</linearGradient>
<linearGradient id="paint27_linear_1103_432" x1="231.168" y1="235.375" x2="258.201" y2="307.011" gradientUnits="userSpaceOnUse">
<stop stop-color="#FEBBBA"/>
<stop offset="1" stop-color="#FF928E"/>
</linearGradient>
<linearGradient id="paint28_linear_1103_432" x1="315.922" y1="239.175" x2="346.686" y2="283.611" gradientUnits="userSpaceOnUse">
<stop stop-color="#FEBBBA"/>
<stop offset="1" stop-color="#FF928E"/>
</linearGradient>
<linearGradient id="paint29_linear_1103_432" x1="273.451" y1="150.999" x2="278.63" y2="186.189" gradientUnits="userSpaceOnUse">
<stop stop-color="#FEBBBA"/>
<stop offset="1" stop-color="#FF928E"/>
</linearGradient>
<linearGradient id="paint30_linear_1103_432" x1="284.543" y1="164.845" x2="262.073" y2="152.536" gradientUnits="userSpaceOnUse">
<stop stop-color="#09005D"/>
<stop offset="1" stop-color="#1A0F91"/>
</linearGradient>
<linearGradient id="paint31_linear_1103_432" x1="267.681" y1="172.563" x2="316.23" y2="141.996" gradientUnits="userSpaceOnUse">
<stop stop-color="#FEBBBA"/>
<stop offset="1" stop-color="#FF928E"/>
</linearGradient>
</defs>
</svg>
