<svg width="45" height="45" viewBox="0 0 45 45" fill="none" xmlns="http://www.w3.org/2000/svg">
<path d="M38.5444 10.4897L33.8643 5.81396C33.293 5.24268 32.5283 4.92188 31.7197 4.92188C30.9111 4.92188 30.1465 5.23828 29.5752 5.81396L24.5347 10.8457C23.9634 11.417 23.6426 12.186 23.6426 12.9946C23.6426 13.8076 23.959 14.5679 24.5347 15.1436L28.4722 19.0854C27.5752 21.1754 26.2863 23.0744 24.6753 24.6797C23.0625 26.3013 21.1772 27.5801 19.0854 28.4854L15.1479 24.5435C14.5767 23.9722 13.812 23.6514 13.0034 23.6514C12.6046 23.6499 12.2095 23.728 11.8412 23.8812C11.473 24.0344 11.139 24.2595 10.8589 24.5435L5.81396 29.5752C5.24268 30.1465 4.92188 30.9155 4.92188 31.7241C4.92188 32.5371 5.23828 33.2974 5.81396 33.873L10.4897 38.5488C11.4653 39.5244 12.8101 40.0825 14.1899 40.0825C14.4756 40.0825 14.7524 40.0605 15.0337 40.0122C20.852 39.0542 26.6265 35.9561 31.2891 31.2979C35.9473 26.6309 39.041 20.8564 40.0078 15.0337C40.2847 13.3813 39.731 11.6807 38.5444 10.4897ZM36.8921 14.5107C36.0352 19.6919 33.249 24.8599 29.0522 29.0566C24.8555 33.2534 19.6919 36.0395 14.5107 36.8965C13.8604 37.0063 13.1924 36.7866 12.7178 36.3164L8.12549 31.7241L12.9946 26.8506L18.2593 32.124L18.2988 32.1636L19.248 31.812C22.1261 30.7538 24.7397 29.0825 26.9077 26.9138C29.0756 24.7451 30.746 22.1309 31.8032 19.2524L32.1548 18.3032L26.8462 12.999L31.7153 8.12549L36.3076 12.7178C36.7822 13.1924 37.0019 13.8604 36.8921 14.5107Z" fill="#3C5762"/>
</svg>
