<svg width="32" height="32" viewBox="0 0 32 32" fill="none" xmlns="http://www.w3.org/2000/svg">
<path d="M28 16H16V18H28V16Z" fill="white"/>
<path d="M30 11H20V13H30V11Z" fill="white"/>
<path d="M2.08091 16.606L5.08091 9.606C5.1579 9.42608 5.28603 9.27273 5.44941 9.165C5.61279 9.05727 5.80421 8.99989 5.99991 9H8.99991V7C8.99991 6.73478 9.10526 6.48043 9.2928 6.29289C9.48034 6.10536 9.73469 6 9.99991 6H25.9999V8H10.9999V20.556C11.4556 20.8206 11.8544 21.1728 12.1732 21.5922C12.4921 22.0117 12.7248 22.4902 12.8579 23H19.1419C19.3853 22.0573 19.9641 21.2358 20.7699 20.6894C21.5757 20.143 22.5531 19.9092 23.5189 20.0319C24.4847 20.1546 25.3726 20.6253 26.0162 21.3558C26.6598 22.0863 27.0149 23.0264 27.0149 24C27.0149 24.9736 26.6598 25.9137 26.0162 26.6442C25.3726 27.3747 24.4847 27.8454 23.5189 27.9681C22.5531 28.0908 21.5757 27.857 20.7699 27.3106C19.9641 26.7642 19.3853 25.9427 19.1419 25H12.8579C12.6404 25.8582 12.1429 26.6194 11.4441 27.1632C10.7454 27.7069 9.88529 28.0021 8.99991 28.0021C8.11453 28.0021 7.25443 27.7069 6.55569 27.1632C5.85694 26.6194 5.35945 25.8582 5.14191 25H2.99991C2.73469 25 2.48034 24.8946 2.2928 24.7071C2.10526 24.5196 1.99991 24.2652 1.99991 24V17C1.99986 16.8645 2.02742 16.7305 2.08091 16.606ZM22.9999 26C23.3955 26 23.7822 25.8827 24.111 25.6629C24.4399 25.4432 24.6963 25.1308 24.8477 24.7654C24.999 24.3999 25.0387 23.9978 24.9615 23.6098C24.8843 23.2219 24.6938 22.8655 24.4141 22.5858C24.1344 22.3061 23.7781 22.1156 23.3901 22.0384C23.0021 21.9613 22.6 22.0009 22.2345 22.1522C21.8691 22.3036 21.5567 22.56 21.337 22.8889C21.1172 23.2178 20.9999 23.6044 20.9999 24C21.0004 24.5303 21.2113 25.0387 21.5863 25.4136C21.9612 25.7886 22.4696 25.9995 22.9999 26ZM8.99991 11H6.65991L4.51591 16H8.99991V11ZM8.99991 26C9.39547 26 9.78215 25.8827 10.111 25.6629C10.4399 25.4432 10.6963 25.1308 10.8477 24.7654C10.999 24.3999 11.0386 23.9978 10.9615 23.6098C10.8843 23.2219 10.6938 22.8655 10.4141 22.5858C10.1344 22.3061 9.77805 22.1156 9.39009 22.0384C9.00213 21.9613 8.59999 22.0009 8.23454 22.1522C7.86909 22.3036 7.55673 22.56 7.33697 22.8889C7.11721 23.2178 6.99991 23.6044 6.99991 24C7.00044 24.5303 7.21132 25.0387 7.58628 25.4136C7.96124 25.7886 8.46964 25.9995 8.99991 26ZM3.99991 23H5.14191C5.36219 22.1434 5.86048 21.3842 6.55867 20.8413C7.25686 20.2983 8.11547 20.0025 8.99991 20V18H3.99991V23Z" fill="white"/>
</svg>
