<svg width="26" height="25" viewBox="0 0 26 25" fill="none" xmlns="http://www.w3.org/2000/svg">
<path d="M4.75 6H21.9875C22.3368 6.00001 22.6822 6.07321 23.0014 6.21488C23.3207 6.35655 23.6067 6.56354 23.8411 6.82252C24.0754 7.08149 24.2529 7.3867 24.3621 7.71847C24.4713 8.05024 24.5098 8.40121 24.475 8.74875L23.725 16.2488C23.6633 16.8656 23.3746 17.4376 22.915 17.8536C22.4553 18.2696 21.8575 18.5 21.2375 18.5H9.3C8.72184 18.5002 8.16147 18.3001 7.71431 17.9336C7.26714 17.5671 6.96082 17.0569 6.8475 16.49L4.75 6Z" stroke="white" stroke-width="2" stroke-linejoin="round"/>
<path d="M4.75 6L3.7375 1.94625C3.66979 1.67594 3.51369 1.43601 3.29401 1.26457C3.07433 1.09313 2.80366 1.00001 2.525 1H1" stroke="white" stroke-width="2" stroke-linecap="round" stroke-linejoin="round"/>
<path d="M8.5 23.5H11" stroke="white" stroke-width="2" stroke-linecap="round" stroke-linejoin="round"/>
<path d="M18.5 23.5H21" stroke="white" stroke-width="2" stroke-linecap="round" stroke-linejoin="round"/>
</svg>
