<svg width="183" height="257" viewBox="0 0 183 257" fill="none" xmlns="http://www.w3.org/2000/svg">
<path d="M35.0307 134.282C33.7807 135.532 26.8907 148.052 26.2707 158.372C25.6507 168.692 27.1207 226.692 27.1207 226.692L27.3907 230.532C43.7307 249.652 103.131 278.082 156.631 230.442L159.631 194.772L150.801 119.262L120.141 111.752L112.951 100.102L65.0207 111.312L60.7507 121.422L35.0307 134.282Z" fill="#455A64"/>
<path d="M109.591 69.7319C111.701 61.8919 113.781 53.9919 114.511 45.9019C115.241 37.8119 114.561 29.4519 111.341 21.9919C110.861 20.8619 106.811 13.3119 105.591 13.4919C104.721 13.6319 107.341 20.7319 106.941 21.4919C103.091 28.9519 102.391 37.7319 103.501 46.0619C104.645 54.1538 106.687 62.0928 109.591 69.7319" fill="#263238"/>
<path d="M108.831 38.7422C108.441 18.3722 96.2606 1.62221 75.9106 2.57221L74.0406 2.76221C64.9447 3.71903 56.5417 8.06318 50.5018 14.9313C44.4619 21.7994 41.2272 30.6886 41.4406 39.8322C41.8706 57.4922 42.5806 76.9922 43.6806 86.3722C45.9706 105.832 65.7406 106.832 65.7406 106.832L66.6406 119.592L74.9906 128.672L113.701 104.672L108.831 38.7422Z" fill="#FFBF9D"/>
<path d="M65.7402 106.952C65.7402 106.952 78.0702 106.372 90.2602 96.792C90.2602 96.792 86.1802 114.402 66.5902 114.702L65.7402 106.952Z" fill="#FF9A6C"/>
<path d="M52.5901 55.7119C52.6587 56.4419 53.012 57.1155 53.5734 57.5871C54.1348 58.0587 54.8593 58.2903 55.5901 58.2319C55.9469 58.2231 56.2983 58.1428 56.6236 57.9958C56.9488 57.8488 57.2412 57.6381 57.4836 57.3761C57.726 57.1141 57.9134 56.8062 58.0348 56.4706C58.1561 56.1349 58.209 55.7783 58.1901 55.4219C58.1215 54.692 57.7683 54.0183 57.2069 53.5468C56.6455 53.0752 55.921 52.8435 55.1901 52.9019C54.8338 52.9122 54.483 52.9934 54.1584 53.1408C53.8338 53.2883 53.5419 53.499 53.2998 53.7607C53.0577 54.0224 52.8702 54.3298 52.7483 54.6648C52.6265 54.9999 52.5727 55.3558 52.5901 55.7119V55.7119Z" fill="#263238"/>
<path d="M46.441 47.5119C46.831 47.8319 48.771 46.0519 51.751 45.7519C54.731 45.4519 57.091 46.7519 57.371 46.3019C57.521 46.1219 57.101 45.5119 56.071 44.9119C54.6829 44.1518 53.0932 43.8408 51.521 44.022C49.9727 44.1734 48.5108 44.8064 47.341 45.8319C46.501 46.6719 46.261 47.3619 46.441 47.5119Z" fill="#263238"/>
<path d="M79.0101 53.4722C79.0812 54.2011 79.4351 54.8732 79.9959 55.3443C80.5567 55.8154 81.2798 56.048 82.0101 55.9922C82.3656 55.9821 82.7155 55.9008 83.039 55.7531C83.3626 55.6053 83.6532 55.3943 83.8938 55.1323C84.1343 54.8703 84.3199 54.5627 84.4395 54.2278C84.5591 53.8928 84.6103 53.5373 84.5901 53.1822C84.5215 52.4522 84.1682 51.7786 83.6068 51.307C83.0454 50.8354 82.3209 50.6038 81.5901 50.6622C81.2354 50.675 80.8868 50.7581 80.5646 50.9067C80.2423 51.0554 79.9527 51.2665 79.7127 51.5279C79.4727 51.7893 79.287 52.0958 79.1664 52.4296C79.0458 52.7633 78.9926 53.1177 79.0101 53.4722V53.4722Z" fill="#263238"/>
<path d="M75.8404 45.6321C76.2204 45.9621 78.1604 44.1821 81.1504 43.8721C84.1404 43.5621 86.4804 44.872 86.7704 44.432C86.9104 44.252 86.4904 43.632 85.4604 43.042C84.0773 42.278 82.4905 41.9634 80.9204 42.1421C79.3645 42.3009 77.9 42.9525 76.7404 44.002C75.8904 44.832 75.6504 45.4921 75.8404 45.6321Z" fill="#263238"/>
<path d="M67.5906 69.7223C67.5906 69.5423 65.6906 69.4223 62.6406 69.3523C61.8706 69.3523 61.1306 69.2823 60.9506 68.7723C60.8049 67.9927 60.899 67.1873 61.2206 66.4623C61.7406 64.5323 62.2906 62.5223 62.8706 60.4623C65.1306 51.8623 66.6806 44.8223 66.3306 44.7323C65.9806 44.6423 63.8706 51.5423 61.6106 60.1423C61.0706 62.2623 60.5506 64.2823 60.0606 66.2223C59.6891 67.1832 59.6608 68.243 59.9806 69.2223C60.1178 69.4823 60.3125 69.7076 60.5499 69.8809C60.7873 70.0542 61.0612 70.171 61.3506 70.2223C61.7866 70.2967 62.2304 70.3135 62.6706 70.2723C65.6706 70.0723 67.5906 69.8923 67.5906 69.7223Z" fill="#263238"/>
<path d="M76.5904 70.832C76.1004 70.832 76.4404 74.092 73.9004 76.692C71.3604 79.292 67.9004 79.292 67.9004 79.692C67.9004 79.902 68.7404 80.242 70.2004 80.132C72.0938 79.9543 73.8641 79.1152 75.2004 77.762C76.473 76.4511 77.1896 74.699 77.2004 72.872C77.2204 71.582 76.7704 70.832 76.5904 70.832Z" fill="#263238"/>
<path d="M74.7208 33.4919C75.1008 34.2719 78.0508 33.5719 81.5908 33.6219C85.1308 33.6719 88.0808 34.3319 88.4708 33.5619C88.6408 33.1919 88.0708 32.4719 86.8408 31.8119C85.2143 30.9871 83.4145 30.562 81.5908 30.5719C79.7739 30.5415 77.9764 30.9497 76.3508 31.7619C75.1408 32.4119 74.5908 33.1219 74.7208 33.4919Z" fill="#263238"/>
<path d="M46.5907 37.4422C47.1907 38.0722 49.1707 37.1522 51.6407 36.8522C54.1107 36.5522 56.2607 36.8522 56.6407 36.0722C56.8107 35.7022 56.4107 35.0722 55.4307 34.5122C54.1196 33.8714 52.6477 33.6348 51.2019 33.8325C49.7561 34.0301 48.4016 34.6531 47.3107 35.6222C46.5907 36.4122 46.3607 37.1422 46.5907 37.4422Z" fill="#263238"/>
<path d="M108.761 53.302C109.071 53.122 121.701 47.942 122.681 61.302C123.661 74.662 110.061 72.832 110.011 72.462C109.961 72.092 108.761 53.302 108.761 53.302Z" fill="#FFBF9D"/>
<path d="M113.711 67.112C113.771 67.112 113.961 67.262 114.361 67.412C114.93 67.6092 115.555 67.5769 116.101 67.322C117.481 66.702 118.501 64.382 118.391 61.972C118.338 60.8254 118.03 59.705 117.491 58.692C117.333 58.2819 117.077 57.9166 116.746 57.6274C116.415 57.3382 116.018 57.1338 115.591 57.032C115.319 56.983 115.039 57.0301 114.798 57.1651C114.557 57.3001 114.371 57.5147 114.271 57.772C114.121 58.162 114.221 58.422 114.151 58.442C114.081 58.462 113.851 58.242 113.921 57.682C113.969 57.3475 114.131 57.04 114.381 56.812C114.728 56.5092 115.181 56.3548 115.641 56.382C116.197 56.4478 116.727 56.6565 117.179 56.9877C117.631 57.3188 117.99 57.7612 118.221 58.272C118.876 59.3809 119.247 60.6348 119.301 61.922C119.411 64.622 118.221 67.232 116.301 67.922C115.95 68.0521 115.575 68.1018 115.203 68.0671C114.831 68.0325 114.471 67.9145 114.151 67.722C113.761 67.432 113.671 67.142 113.711 67.112Z" fill="#FF9A6C"/>
<path d="M48.6507 17.2121C46.4107 16.1621 52.4407 8.75209 57.6007 6.00209C65.3807 1.83209 77.4907 -1.16791 85.0207 0.442091C94.0807 2.39209 101.771 6.34209 106.761 14.1621C111.751 21.9821 114.041 31.3121 114.371 40.5821C114.481 43.4121 114.371 46.3721 113.021 48.8521C111.351 51.9221 107.891 54.0121 108.311 58.0721C108.406 58.8057 108.355 59.551 108.161 60.265C107.967 60.9789 107.634 61.6474 107.181 62.2321C104.911 64.9921 101.771 62.7421 100.181 60.3821C96.9207 55.3821 96.1807 49.1221 95.5407 43.1521C95.0907 38.9121 94.6307 34.5721 95.5407 30.4121C96.0507 28.1421 96.9607 25.9721 97.3507 23.6821C97.7407 21.3921 97.5007 18.8321 95.9707 17.0821C95.6181 16.715 95.2332 16.3803 94.8207 16.0821C92.85 14.5787 90.5156 13.6255 88.0559 13.3197C85.5962 13.014 83.0994 13.3668 80.8207 14.3421C73.4807 17.4921 60.9007 22.2821 57.3907 19.9521C52.3307 16.5921 51.0207 14.2721 51.0207 14.2721L48.6507 17.2121Z" fill="#263238"/>
<path d="M35.03 134.282C34.25 135.352 23.32 138.982 19.18 145.892C15.04 152.802 10.93 183.832 10.93 183.832L8.29004 204.262C13.49 212.482 20.46 223.372 27.86 231.052L35.03 134.282Z" fill="#455A64"/>
<g opacity="0.3">
<path d="M117.15 164.232C117.446 168.414 118.238 172.547 119.51 176.542C120.95 180.472 123.46 184.172 127.12 186.192C128.66 187.042 130.39 187.602 131.67 188.802C132.95 190.002 133.75 191.942 135 193.352C136.561 194.906 138.492 196.038 140.61 196.642C146.566 198.833 152.888 199.852 159.23 199.642C159.42 197.502 159.44 189.642 159.63 187.502L117.15 164.232Z" fill="black"/>
</g>
<path d="M150.801 119.262C150.801 119.262 164.591 123.342 168.591 129.212C172.591 135.082 179.791 157.832 181.261 162.052C182.731 166.272 181.441 176.052 178.691 183.052C175.941 190.052 171.161 196.142 162.901 197.052C154.641 197.962 141.611 193.202 138.681 190.052C135.751 186.902 134.591 180.012 134.591 180.012C138.258 179.367 141.874 178.458 145.411 177.292" fill="#455A64"/>
<path d="M145.371 177.292L145.201 177.372L144.681 177.562C144.221 177.712 143.531 177.942 142.621 178.222C139.991 179.009 137.321 179.65 134.621 180.142L134.741 179.982C135.073 181.703 135.541 183.395 136.141 185.042C136.476 185.971 136.873 186.876 137.331 187.752C137.808 188.683 138.433 189.53 139.181 190.262C140.031 190.989 140.968 191.607 141.971 192.102C142.971 192.652 144.081 193.102 145.211 193.592C147.592 194.546 150.042 195.318 152.541 195.902C155.232 196.566 157.989 196.921 160.761 196.962C161.481 196.962 162.191 196.902 162.911 196.862C163.634 196.776 164.352 196.649 165.061 196.482C166.513 196.153 167.908 195.61 169.201 194.872C171.89 193.316 174.149 191.113 175.771 188.462C177.488 185.709 178.805 182.726 179.681 179.602C180.384 177.196 180.915 174.743 181.271 172.262C181.643 169.864 181.764 167.435 181.631 165.012C181.543 163.845 181.301 162.695 180.911 161.592C180.541 160.472 180.171 159.362 179.811 158.262C179.071 156.072 178.361 153.922 177.661 151.832C176.241 147.652 174.841 143.692 173.431 140.032C172.206 136.612 170.725 133.289 169.001 130.092C168.204 128.738 167.147 127.555 165.891 126.612C164.786 125.735 163.612 124.95 162.381 124.262C160.411 123.138 158.373 122.136 156.281 121.262C154.551 120.542 153.191 120.052 152.281 119.722L151.221 119.352L150.861 119.212C150.99 119.227 151.118 119.258 151.241 119.302L152.311 119.622C153.251 119.922 154.621 120.382 156.311 121.072C158.431 121.9 160.495 122.866 162.491 123.962C163.741 124.646 164.935 125.429 166.061 126.302C167.357 127.262 168.451 128.469 169.281 129.852C171.034 133.068 172.545 136.411 173.801 139.852C175.221 143.522 176.641 147.472 178.071 151.652L180.241 158.082C180.601 159.182 180.971 160.292 181.351 161.402C181.763 162.545 182.012 163.74 182.091 164.952C182.233 167.414 182.115 169.884 181.741 172.322C181.388 174.825 180.85 177.299 180.131 179.722C179.237 182.899 177.89 185.93 176.131 188.722C174.455 191.437 172.132 193.694 169.371 195.292C168.037 196.05 166.598 196.607 165.101 196.942C164.371 197.111 163.634 197.241 162.891 197.332C162.141 197.332 161.411 197.462 160.681 197.422C157.872 197.374 155.077 197.008 152.351 196.332C149.838 195.725 147.374 194.93 144.981 193.952C143.861 193.504 142.766 192.996 141.701 192.432C140.674 191.913 139.717 191.268 138.851 190.512C138.077 189.747 137.432 188.862 136.941 187.892C136.478 187.003 136.083 186.081 135.761 185.132C135.164 183.466 134.706 181.753 134.391 180.012V179.882H134.531C137.242 179.42 139.929 178.823 142.581 178.092L144.661 177.502L145.191 177.342L145.371 177.292Z" fill="#263238"/>
<path d="M170.651 169.932C170.551 169.932 170.241 168.232 169.081 165.692C167.577 162.386 165.467 159.391 162.861 156.862C161.428 155.485 159.8 154.326 158.031 153.422L156.811 152.882C156.423 152.727 156.025 152.596 155.621 152.492C154.901 152.267 154.161 152.112 153.411 152.032L152.911 151.952H151.591C151.118 151.935 150.644 151.975 150.181 152.072C149.784 152.16 149.377 152.2 148.971 152.192C149.35 152.04 149.746 151.933 150.151 151.872C150.613 151.739 151.09 151.669 151.571 151.662H152.471H152.971C153.142 151.672 153.312 151.692 153.481 151.722C154.256 151.77 155.024 151.904 155.771 152.122C156.19 152.227 156.604 152.354 157.011 152.502L158.281 153.042C160.117 153.941 161.804 155.118 163.281 156.532C165.941 159.1 168.05 162.183 169.481 165.592C169.731 166.176 169.948 166.774 170.131 167.382C170.294 167.836 170.424 168.3 170.521 168.772C170.61 169.152 170.654 169.542 170.651 169.932V169.932Z" fill="#263238"/>
<path d="M178.17 157.562C177.616 156.099 176.923 154.693 176.1 153.362C174.023 150.201 170.918 147.856 167.31 146.722C163.08 145.432 158.97 145.832 156.11 146.102L152.68 146.512C152.262 146.595 151.836 146.628 151.41 146.612C151.813 146.473 152.228 146.373 152.65 146.312C153.45 146.152 154.65 145.942 156.06 145.732C159.855 145.074 163.746 145.241 167.47 146.222C169.503 146.838 171.391 147.858 173.02 149.222C174.35 150.341 175.495 151.664 176.41 153.142C177.024 154.129 177.518 155.187 177.88 156.292C178.041 156.698 178.138 157.126 178.17 157.562V157.562Z" fill="#263238"/>
<path d="M167.78 142.772C165.084 142.232 162.34 141.968 159.59 141.982C156.845 142.18 154.128 142.659 151.48 143.412C152.178 142.965 152.94 142.628 153.74 142.412C155.633 141.829 157.592 141.493 159.57 141.412C161.549 141.333 163.529 141.514 165.46 141.952C166.272 142.101 167.056 142.377 167.78 142.772V142.772Z" fill="#263238"/>
<path d="M145.481 122.702C145.561 122.702 145.371 124.112 145.201 126.362C144.995 129.303 145.022 132.255 145.281 135.192C145.532 138.031 146.003 140.846 146.691 143.612L146.331 143.732C145.921 142.572 145.601 141.632 145.381 140.982C145.244 140.663 145.153 140.327 145.111 139.982C145.311 140.293 145.469 140.629 145.581 140.982C145.851 141.612 146.231 142.532 146.681 143.662L146.321 143.782C144.721 138.137 144.219 132.237 144.841 126.402C144.961 125.272 145.111 124.402 145.231 123.732C145.269 123.379 145.353 123.033 145.481 122.702V122.702Z" fill="#263238"/>
<path d="M126 97.042C126 97.042 118.84 97.042 117.95 105.642C117.26 112.242 117.95 118.642 117.95 121.542C117.95 124.442 116.67 134.702 116.67 134.702C116.67 134.702 111.79 139.032 111.88 144.232C111.97 149.432 115.68 151.062 115.68 151.062C115.053 152.671 114.914 154.43 115.281 156.117C115.647 157.805 116.502 159.347 117.74 160.552C117.74 160.552 115.66 165.352 117.37 168.552C118.345 170.149 119.871 171.334 121.66 171.882C121.368 172.514 121.215 173.201 121.211 173.898C121.207 174.594 121.352 175.283 121.636 175.918C121.92 176.554 122.337 177.121 122.859 177.582C123.38 178.044 123.995 178.388 124.66 178.592C127.067 179.331 129.586 179.639 132.1 179.502L137.44 179.402L142.14 181.992C142.14 181.992 150.19 178.492 150.4 173.742L150.6 168.992C150.6 168.992 148.33 161.142 148.13 158.672C147.93 156.202 149.99 150.202 148.75 147.522C147.51 144.842 143.17 143.262 143.59 139.522C144.01 135.782 143.17 133.712 141.31 131.642C139.45 129.572 131.24 125.452 131.24 125.452C131.24 125.452 129.13 119.452 129.13 115.332C129.13 111.212 133.22 98.622 126 97.042Z" fill="#FFBF9D"/>
<path d="M130.82 127.022C130.203 127.525 129.532 127.957 128.82 128.312C127.56 129.042 125.82 130.032 123.82 131.092C121.82 132.152 120.09 133.092 118.82 133.742C118.142 134.159 117.417 134.495 116.66 134.742C117.279 134.244 117.949 133.815 118.66 133.462C119.91 132.722 121.66 131.742 123.66 130.682C125.66 129.622 127.39 128.682 128.66 128.032C129.343 127.621 130.067 127.283 130.82 127.022Z" fill="#FF9A6C"/>
<path d="M135.511 143.192C135.511 143.192 135.311 143.412 134.891 143.752C134.471 144.092 133.831 144.532 133.031 145.062C128.775 147.775 124.012 149.592 119.031 150.402C118.031 150.552 117.311 150.642 116.771 150.672C116.492 150.711 116.209 150.711 115.931 150.672C115.931 150.592 117.101 150.432 118.931 150.042C121.362 149.533 123.749 148.834 126.071 147.952C128.383 147.062 130.62 145.988 132.761 144.742C133.65 144.179 134.568 143.661 135.511 143.192Z" fill="#FF9A6C"/>
<path d="M141.651 138.052C141.781 138.052 141.521 139.052 140.651 139.782C139.781 140.512 138.871 140.782 138.831 140.602C138.791 140.422 139.551 140.082 140.301 139.392C141.051 138.702 141.521 137.982 141.651 138.052Z" fill="#FF9A6C"/>
<path d="M138.71 157.352C137.75 157.817 136.745 158.183 135.71 158.442C133.251 159.182 130.746 159.756 128.21 160.162C125.676 160.575 123.117 160.815 120.55 160.882C119.487 160.964 118.417 160.931 117.36 160.782C118.41 160.625 119.469 160.535 120.53 160.512C122.48 160.382 125.18 160.122 128.12 159.652C131.06 159.182 133.71 158.572 135.61 158.092C136.626 157.778 137.662 157.531 138.71 157.352V157.352Z" fill="#FF9A6C"/>
<path d="M145.241 156.162C145.398 155.643 145.582 155.133 145.791 154.632C146.192 153.412 146.325 152.119 146.181 150.842C146.018 149.566 145.585 148.338 144.911 147.242C144.588 146.81 144.291 146.359 144.021 145.892C144.021 145.842 144.591 146.212 145.211 147.042C146.026 148.137 146.54 149.427 146.701 150.782C146.862 152.141 146.669 153.52 146.141 154.782C145.959 155.309 145.65 155.783 145.241 156.162V156.162Z" fill="#FF9A6C"/>
<path d="M139.081 171.832C138.264 172.144 137.41 172.346 136.541 172.432C134.461 172.77 132.357 172.934 130.251 172.922C128.147 172.921 126.046 172.747 123.971 172.402C123.101 172.304 122.248 172.096 121.431 171.782C122.299 171.804 123.164 171.888 124.021 172.032C126.089 172.266 128.169 172.39 130.251 172.402C132.335 172.406 134.418 172.295 136.491 172.072C137.347 171.933 138.213 171.853 139.081 171.832V171.832Z" fill="#FF9A6C"/>
<path d="M126.381 115.462C126.381 115.522 126.061 115.792 125.381 116.022C124.5 116.322 123.563 116.421 122.639 116.312C121.715 116.203 120.828 115.889 120.041 115.392C119.451 115.002 119.171 114.662 119.211 114.612C120.313 115.169 121.488 115.566 122.701 115.792C123.937 115.854 125.176 115.743 126.381 115.462V115.462Z" fill="#FF9A6C"/>
<path d="M146.731 156.762C146.819 157.012 146.856 157.277 146.841 157.542C146.846 158.25 146.762 158.956 146.591 159.642C146.401 160.522 146.071 161.532 145.761 162.642C145.37 163.813 145.24 165.056 145.381 166.282C145.551 167.542 146.501 168.572 146.651 169.862C146.751 170.951 146.476 172.041 145.871 172.952C145.495 173.555 145.06 174.117 144.571 174.632C144.231 175.002 144.031 175.182 144.001 175.152C143.971 175.122 144.691 174.282 145.551 172.772C146.063 171.915 146.284 170.915 146.181 169.922C146.061 168.842 145.101 167.812 144.871 166.372C144.714 165.066 144.861 163.742 145.301 162.502C145.641 161.372 146.001 160.392 146.241 159.502C146.473 158.602 146.637 157.687 146.731 156.762V156.762Z" fill="#FF9A6C"/>
<path d="M149.421 163.052C149.57 163.347 149.681 163.659 149.751 163.982C149.931 164.602 150.171 165.502 150.401 166.622C150.672 167.94 150.833 169.278 150.881 170.622C150.969 172.305 150.657 173.984 149.971 175.522C149.193 177.004 148.153 178.332 146.901 179.442C145.903 180.349 144.84 181.181 143.721 181.932C142.771 182.582 141.981 183.062 141.421 183.372C141.143 183.558 140.84 183.703 140.521 183.802C140.521 183.732 141.681 182.982 143.521 181.632C144.591 180.848 145.613 180 146.581 179.092C147.763 178.003 148.754 176.721 149.511 175.302C150.159 173.833 150.467 172.237 150.411 170.632C150.387 169.309 150.267 167.988 150.051 166.682C149.671 164.442 149.331 163.062 149.421 163.052Z" fill="#263238"/>
<path d="M73.9609 129.762C73.5477 129.509 73.1593 129.218 72.8009 128.892L69.8009 126.392L67.7309 124.642C67.3756 124.309 66.979 124.024 66.5509 123.792C66.3473 123.679 66.1198 123.615 65.8869 123.606C65.6541 123.598 65.4225 123.644 65.2109 123.742C64.3509 124.192 63.7709 125.302 63.0309 126.222L60.8309 129.222L57.3609 133.832L56.7109 134.692L56.9109 133.632C57.4909 130.66 58.3239 127.742 59.4009 124.912C59.8109 123.862 60.1609 123.052 60.4009 122.502C60.512 122.208 60.6599 121.929 60.8409 121.672C60.7787 121.979 60.6814 122.277 60.5509 122.562C60.3409 123.132 60.0309 123.962 59.6709 125.012C58.6956 127.855 57.9302 130.766 57.3809 133.722L56.9409 133.532L60.3609 128.912L62.5709 125.912L63.6309 124.502C63.9726 124.006 64.4244 123.595 64.9509 123.302C65.2288 123.18 65.5308 123.123 65.834 123.135C66.1372 123.147 66.4337 123.228 66.7009 123.372C67.1567 123.63 67.5798 123.942 67.9609 124.302L69.9609 126.102L72.8909 128.732C73.2804 129.039 73.6388 129.384 73.9609 129.762V129.762Z" fill="#263238"/>
<path d="M116.191 121.302C116.191 121.302 116.061 121.442 115.801 121.652L114.621 122.572L110.211 125.892L95.501 136.722L95.271 136.882L95.121 136.652L94.761 136.082L87.381 124.422L87.651 124.512C84.8086 125.641 82.0657 127.006 79.451 128.592C78.451 129.172 77.781 129.642 77.281 129.962C77.0377 130.145 76.7763 130.303 76.501 130.432C76.7156 130.217 76.9499 130.023 77.201 129.852C77.671 129.492 78.381 128.982 79.311 128.382C81.891 126.697 84.6269 125.264 87.481 124.102L87.651 124.032L87.751 124.182L95.201 135.832L95.561 136.402L95.191 136.332L110.001 125.622L114.501 122.442L115.731 121.602C115.872 121.485 116.027 121.384 116.191 121.302V121.302Z" fill="#263238"/>
<path d="M26.4408 161.072C26.4849 161.306 26.5017 161.544 26.4908 161.782C26.4908 162.292 26.4909 162.972 26.5509 163.782C26.5509 165.602 26.6308 168.132 26.6908 171.232C26.8108 177.512 27.0608 186.232 27.3808 195.772C27.7008 205.312 27.9008 214.052 27.9308 220.342C27.9308 223.482 27.9308 226.032 27.9308 227.782C27.9308 228.622 27.9308 229.292 27.9308 229.782C27.9357 230.017 27.919 230.251 27.8808 230.482C27.8352 230.252 27.8151 230.017 27.8208 229.782C27.8208 229.262 27.8208 228.592 27.8208 227.782C27.8208 225.962 27.7408 223.432 27.6808 220.332C27.5608 214.052 27.3108 205.332 26.9808 195.782C26.6508 186.232 26.4708 177.512 26.4408 171.222C26.4408 168.082 26.4408 165.532 26.4408 163.772C26.4408 162.942 26.4408 162.262 26.4408 161.772C26.4142 161.54 26.4142 161.305 26.4408 161.072V161.072Z" fill="#263238"/>
<path d="M74.2908 251.402C74.2767 251.306 74.2767 251.208 74.2908 251.112C74.2908 250.892 74.2308 250.612 74.1908 250.262C74.1208 249.482 74.0108 248.392 73.8708 246.992C73.6008 244.152 73.2808 239.992 72.9608 234.942C72.6408 229.892 72.3608 223.782 72.1908 217.032C72.0208 210.282 72.0108 202.872 72.1908 195.082C72.3708 187.292 72.7308 179.882 73.1908 173.152C73.6508 166.422 74.1908 160.362 74.7408 155.282C75.2908 150.202 75.7408 146.112 76.1808 143.282C76.3708 141.892 76.5308 140.802 76.6408 140.022C76.6908 139.682 76.7408 139.402 76.7708 139.182C76.7843 139.083 76.8078 138.986 76.8408 138.892C76.8408 138.892 76.8408 138.992 76.8408 139.192C76.8408 139.392 76.8408 139.692 76.7508 140.042C76.6708 140.822 76.5408 141.912 76.3908 143.302C76.0508 146.132 75.6108 150.242 75.1108 155.302C74.6108 160.362 74.1108 166.432 73.6808 173.162C73.2508 179.892 72.9308 187.292 72.7508 195.072C72.5708 202.852 72.6108 210.262 72.7508 217.002C72.8908 223.742 73.1208 229.812 73.4008 234.902C73.6808 239.992 73.9408 244.112 74.1608 246.962C74.2508 248.352 74.3208 249.452 74.3808 250.242C74.3808 250.592 74.3808 250.872 74.3808 251.092C74.3667 251.199 74.3363 251.304 74.2908 251.402V251.402Z" fill="#263238"/>
<path d="M44.4905 87.7119C44.4905 87.7119 44.1405 87.9619 43.4405 88.4219L40.3105 90.4219C38.9405 91.3219 37.3105 92.5819 35.4105 93.9919C34.4605 94.7119 33.5005 95.5819 32.4105 96.4519L30.8005 97.8319C30.2505 98.3119 29.7205 98.8319 29.1505 99.3819C23.612 104.53 18.7528 110.364 14.6905 116.742C14.1005 117.682 13.5105 118.642 12.9105 119.612C12.3105 120.582 11.7905 121.612 11.2205 122.612C10.6505 123.612 10.0605 124.692 9.55051 125.792C9.04051 126.892 8.5505 128.022 8.0105 129.152C7.7605 129.732 7.4705 130.292 7.2405 130.882C7.0105 131.472 6.79051 132.072 6.56051 132.672C6.11051 133.882 5.6205 135.092 5.1805 136.342C4.4405 138.872 3.51051 141.432 2.95051 144.152C0.11052 155.99 -0.351744 168.274 1.59051 180.292C4.11153 195.725 10.5872 210.242 20.3866 222.428C30.186 234.615 42.9749 244.055 57.5074 249.829C72.0399 255.603 87.8202 257.515 103.311 255.377C118.802 253.24 133.475 247.126 145.9 237.632C149.04 235.217 152.029 232.612 154.851 229.832C155.531 229.122 156.201 228.412 156.851 227.712C157.501 227.012 158.191 226.292 158.851 225.552L160.761 223.352L162.541 221.082C171.588 209.441 177.629 195.751 180.131 181.222C180.716 177.843 181.114 174.435 181.321 171.012C181.431 169.332 181.431 167.652 181.481 166.012C181.531 164.372 181.36 162.702 181.3 161.072L181.21 158.632C181.16 157.822 181.031 157.032 180.941 156.232L180.37 151.492C180.12 149.942 179.761 148.422 179.471 146.902C179.222 145.394 178.888 143.902 178.471 142.432L177.221 138.102C177.028 137.389 176.794 136.688 176.52 136.002L175.74 134.002C175.21 132.652 174.74 131.272 174.18 130.002L172.39 126.182C168.037 117.119 162.188 108.853 155.09 101.732C149.729 96.3974 143.742 91.7302 137.261 87.8319L133.45 85.6419C132.875 85.302 132.281 84.9948 131.67 84.7219L129.99 83.9219L126.991 82.4919C126.091 82.0419 125.21 81.7819 124.45 81.4919L120.981 80.1419C120.191 79.8419 119.8 79.6719 119.8 79.6719C119.8 79.6719 120.201 79.8019 120.991 80.0919L124.491 81.3919C125.251 81.7019 126.14 81.9519 127.05 82.3919L130.05 83.8019L131.74 84.5919C132.355 84.8592 132.953 85.163 133.531 85.5019L137.37 87.6819C143.888 91.5562 149.909 96.2105 155.3 101.542C162.416 108.649 168.288 116.9 172.67 125.952L174.481 129.782C175.081 131.082 175.481 132.462 176.061 133.782C176.311 134.472 176.57 135.152 176.83 135.842C177.111 136.531 177.351 137.235 177.55 137.952L178.8 142.292C179.236 143.768 179.59 145.267 179.86 146.782C180.16 148.312 180.52 149.842 180.77 151.402C181.02 152.962 181.161 154.562 181.351 156.162C181.441 156.962 181.57 157.762 181.62 158.572C181.67 159.382 181.691 160.202 181.721 161.022C181.781 162.662 181.881 164.312 181.911 166.022C181.941 167.732 181.861 169.372 181.761 171.022C181.56 174.468 181.17 177.899 180.59 181.302C179.384 188.397 177.326 195.32 174.46 201.922C171.453 208.867 167.586 215.408 162.95 221.392L161.15 223.672L159.24 225.882C158.61 226.632 157.95 227.352 157.24 228.052L155.24 230.182C152.407 232.984 149.402 235.606 146.24 238.032C133.748 247.583 118.994 253.734 103.416 255.886C87.8384 258.037 71.9691 256.114 57.3557 250.306C42.7423 244.497 29.8834 235.001 20.0331 222.743C10.1828 210.485 3.67711 195.883 1.1505 180.362C-0.7712 168.312 -0.281738 156.001 2.59051 144.142C3.16051 141.402 4.1005 138.842 4.8505 136.292C5.3005 135.042 5.7805 133.832 6.2405 132.622L6.9305 130.822C7.1605 130.232 7.4505 129.662 7.7105 129.092L9.2605 125.722C9.7805 124.612 10.3905 123.582 10.9405 122.532C11.4905 121.482 12.0205 120.442 12.6505 119.532C13.2805 118.622 13.8505 117.612 14.4405 116.672C18.5417 110.291 23.4377 104.458 29.0105 99.3119C29.5805 98.7819 30.1205 98.2519 30.6705 97.7719L32.3205 96.4019C33.3905 95.5219 34.3205 94.6619 35.3205 93.9519C37.3205 92.5519 38.8705 91.3019 40.2505 90.4219L43.4105 88.4219L44.4905 87.7119Z" fill="#263238"/>
</svg>
