<svg width="297" height="297" viewBox="0 0 297 297" fill="none" xmlns="http://www.w3.org/2000/svg">
<path d="M296.429 148.327C296.429 157.837 284.269 166.037 282.489 175.027C280.659 184.287 288.719 196.497 285.189 205.027C281.659 213.557 267.189 216.617 262.069 224.317C256.949 232.017 259.639 246.467 253.069 253.057C246.499 259.647 232.069 256.867 224.329 262.057C216.589 267.247 213.699 281.587 205.009 285.177C196.489 288.717 184.279 280.647 175.009 282.487C166.009 284.257 157.829 296.417 148.319 296.417C138.809 296.417 130.619 284.257 121.629 282.487C112.369 280.647 100.159 288.717 91.6292 285.177C82.9592 281.587 80.0393 267.177 72.3293 262.057C64.6193 256.937 50.1793 259.627 43.5993 253.057C37.0193 246.487 39.7893 232.057 34.5993 224.317C29.4093 216.577 15.0693 213.697 11.4693 205.027C7.86925 196.357 15.9993 184.297 14.1693 175.027C12.3893 166.027 0.239258 157.837 0.239258 148.327C0.239258 138.817 12.3893 130.627 14.1693 121.637C15.9993 112.377 7.93925 100.167 11.4693 91.6366C14.9993 83.1066 29.4693 80.0466 34.5993 72.3466C39.7293 64.6466 37.0193 50.1866 43.5993 43.6066C50.1793 37.0266 64.5993 39.7966 72.3293 34.6066C80.0593 29.4166 83.0092 15.0766 91.6592 11.4866C100.179 7.94658 112.389 16.0066 121.659 14.1766C130.659 12.3966 138.839 0.246582 148.349 0.246582C157.859 0.246582 166.009 12.4266 175.009 14.1766C184.279 16.0066 196.489 7.94658 205.009 11.4866C213.679 15.0766 216.589 29.4866 224.299 34.6066C232.009 39.7266 246.449 37.0366 253.039 43.6066C259.629 50.1766 256.849 64.6066 262.039 72.3466C267.229 80.0866 281.569 82.9666 285.159 91.6366C288.749 100.307 280.629 112.367 282.459 121.637C284.269 130.627 296.429 138.817 296.429 148.327Z" fill="#525882"/>
<path d="M113.689 65.3267C113.581 65.2031 113.49 65.0652 113.419 64.9167L112.739 63.6967C112.159 62.6367 111.349 61.0767 110.379 59.1367C108.449 55.2567 105.949 49.7967 103.539 43.6367C101.129 37.4767 99.2793 31.7567 98.0793 27.6367C97.4693 25.5567 97.0093 23.8667 96.7193 22.6867C96.5993 22.1467 96.4893 21.6867 96.3993 21.3267C96.3482 21.1717 96.3212 21.0098 96.3193 20.8467C96.3193 20.8467 96.3993 20.9967 96.4993 21.2967L96.9193 22.6367L98.4293 27.5367C99.7293 31.6667 101.629 37.3367 104.029 43.5367C106.429 49.7367 108.869 55.1467 110.709 59.0667C111.619 60.9667 112.369 62.5267 112.919 63.6967L113.519 64.9567C113.593 65.0712 113.651 65.1958 113.689 65.3267V65.3267Z" fill="#263238"/>
<path d="M126.869 60.3168C126.703 59.9618 126.575 59.5896 126.489 59.2068C126.269 58.4968 125.989 57.4468 125.659 56.1468C124.999 53.5468 124.179 49.9368 123.439 45.9168C122.699 41.8968 122.189 38.2268 121.879 35.5668C121.729 34.2368 121.619 33.1568 121.569 32.4068C121.528 32.0179 121.528 31.6257 121.569 31.2368C121.695 31.6092 121.776 31.9953 121.809 32.3868L122.289 35.5168C122.679 38.1568 123.289 41.8068 123.999 45.8268C124.709 49.8468 125.449 53.4268 126.009 56.0668C126.269 57.2868 126.499 58.3268 126.679 59.1568C126.791 59.534 126.855 59.9237 126.869 60.3168V60.3168Z" fill="#263238"/>
<path d="M150.119 58.0067C149.979 58.0067 149.609 46.7867 149.289 32.9467C148.969 19.1067 148.839 7.88672 148.989 7.88672C149.139 7.88672 149.499 19.0967 149.809 32.9367C150.119 46.7767 150.259 57.9967 150.119 58.0067Z" fill="#263238"/>
<path d="M173.519 34.9568C173.649 34.9568 172.039 40.6068 169.909 47.4768C167.779 54.3468 165.909 59.8968 165.809 59.8568C165.709 59.8168 167.279 54.2068 169.409 47.3268C171.539 40.4468 173.379 34.9168 173.519 34.9568Z" fill="#263238"/>
<path d="M183.06 63.9368C183.088 63.7763 183.131 63.6189 183.19 63.4668C183.31 63.1068 183.47 62.6768 183.65 62.1468C184.05 61.0068 184.65 59.3668 185.45 57.3468C187.01 53.3468 189.26 47.7568 191.82 41.6568C194.38 35.5568 196.75 30.0668 198.51 26.1068L200.61 21.4268L201.21 20.1668C201.274 20.0151 201.354 19.8709 201.45 19.7368C201.429 19.9001 201.382 20.059 201.31 20.2068C201.17 20.5568 201 20.9868 200.8 21.5068L198.8 26.2468C197.1 30.3168 194.8 35.7968 192.26 41.8568C189.72 47.9168 187.48 53.4268 185.79 57.4768L183.84 62.2268L183.29 63.5068C183.16 63.7968 183.08 63.9468 183.06 63.9368Z" fill="#263238"/>
<path d="M195.569 70.427C195.717 70.0713 195.909 69.7354 196.139 69.427C196.529 68.787 197.139 67.877 197.879 66.767C199.379 64.547 201.529 61.537 204.049 58.317C206.569 55.097 208.959 52.317 210.749 50.317C211.639 49.317 212.379 48.527 212.899 47.987C213.146 47.684 213.432 47.415 213.749 47.187C213.545 47.5177 213.311 47.829 213.049 48.117L211.049 50.557C209.329 52.617 206.989 55.467 204.479 58.687C201.969 61.907 199.769 64.867 198.199 67.027L196.319 69.587C196.103 69.8955 195.851 70.1774 195.569 70.427V70.427Z" fill="#263238"/>
<path d="M213.749 85.367C213.649 85.257 221.559 77.737 231.419 68.567C241.279 59.397 249.339 52.047 249.419 52.157C249.499 52.267 241.609 59.777 231.749 68.957C221.889 78.137 213.839 85.427 213.749 85.367Z" fill="#263238"/>
<path d="M245.509 88.4268C244.546 89.0407 243.544 89.5918 242.509 90.0768C240.639 91.0768 238.079 92.4668 235.259 94.0768C232.439 95.6868 229.839 97.0768 227.919 97.9368C226.919 98.3768 226.169 98.7268 225.619 98.9368C225.341 99.0761 225.045 99.177 224.739 99.2368C225.705 98.6297 226.707 98.082 227.739 97.5968C229.619 96.5968 232.179 95.1968 234.999 93.5968C237.819 91.9968 240.419 90.5968 242.339 89.7468C243.339 89.2968 244.089 88.9468 244.639 88.7468C244.913 88.6013 245.206 88.4937 245.509 88.4268Z" fill="#263238"/>
<path d="M274.909 100.667C274.959 100.807 265.539 104.247 253.909 108.347C242.279 112.447 232.749 115.677 232.699 115.537C232.649 115.397 242.069 111.967 253.699 107.857C265.329 103.747 274.869 100.537 274.909 100.667Z" fill="#263238"/>
<path d="M284.27 154.137C284.27 154.277 274.02 153.417 261.41 152.217C248.8 151.017 238.59 149.927 238.6 149.787C238.61 149.647 248.85 150.497 261.46 151.697C274.07 152.897 284.29 153.987 284.27 154.137Z" fill="#263238"/>
<path d="M276.749 202.087C276.679 202.217 267.109 197.827 255.369 192.287C243.629 186.747 234.159 182.127 234.219 181.997C234.279 181.867 243.849 186.267 255.599 191.807C267.349 197.347 276.809 201.957 276.749 202.087Z" fill="#263238"/>
<path d="M245.27 247.717C245.16 247.817 238.27 239.807 229.85 229.837C221.43 219.867 214.72 211.717 214.85 211.627C214.98 211.537 221.85 219.537 230.27 229.507C238.69 239.477 245.38 247.627 245.27 247.717Z" fill="#263238"/>
<path d="M219.01 253.747C218.695 253.403 218.417 253.028 218.18 252.627C217.67 251.877 216.95 250.797 216.08 249.437C214.34 246.737 212.01 242.947 209.56 238.697C207.11 234.447 204.99 230.527 203.56 227.697C202.82 226.267 202.24 225.107 201.85 224.287C201.619 223.882 201.435 223.453 201.3 223.007C201.581 223.379 201.825 223.778 202.03 224.197C202.52 225.067 203.14 226.197 203.88 227.527C205.44 230.337 207.6 234.217 210.05 238.467C212.5 242.717 214.78 246.517 216.43 249.277L218.43 252.547C218.659 252.928 218.853 253.33 219.01 253.747V253.747Z" fill="#263238"/>
<path d="M202.669 276.697C202.669 276.697 202.559 276.567 202.409 276.287L201.749 275.067C201.189 273.997 200.419 272.437 199.499 270.497C197.649 266.607 195.279 261.137 193.029 254.967C190.779 248.797 189.079 243.087 188.029 238.967C187.489 236.877 187.029 235.187 186.819 234.017C186.709 233.477 186.609 233.017 186.529 232.657C186.483 232.501 186.462 232.339 186.469 232.177C186.548 232.321 186.605 232.476 186.639 232.637L187.019 233.967C187.359 235.197 187.829 236.857 188.389 238.867C189.569 242.997 191.319 248.667 193.559 254.867C195.799 261.067 198.119 266.497 199.869 270.417L201.969 275.057L202.539 276.317C202.592 276.44 202.636 276.567 202.669 276.697V276.697Z" fill="#263238"/>
<path d="M169.599 260.607C169.39 259.456 169.246 258.294 169.169 257.127C168.939 254.977 168.579 252.007 168.029 248.757C167.479 245.507 166.869 242.577 166.389 240.467C166.076 239.339 165.832 238.194 165.659 237.037C165.822 237.31 165.94 237.607 166.009 237.917C166.199 238.497 166.459 239.337 166.739 240.377C167.319 242.477 167.999 245.377 168.549 248.667C169.099 251.957 169.399 254.927 169.549 257.097C169.619 258.177 169.649 259.097 169.659 259.657C169.686 259.975 169.666 260.295 169.599 260.607Z" fill="#263238"/>
<path d="M148.009 289.427C147.965 289.257 147.948 289.082 147.959 288.907C147.959 288.517 147.959 288.027 147.959 287.437C147.959 286.167 147.959 284.317 147.959 282.037C148.029 277.467 148.239 271.167 148.609 264.207C148.979 257.247 149.419 250.957 149.779 246.407C149.969 244.137 150.139 242.297 150.269 241.027C150.329 240.437 150.389 239.957 150.429 239.567C150.44 239.394 150.47 239.223 150.519 239.057C150.543 239.229 150.543 239.404 150.519 239.577C150.519 239.967 150.519 240.457 150.459 241.047C150.379 242.397 150.269 244.217 150.139 246.437C149.869 251.067 149.509 257.317 149.139 264.237C148.769 271.157 148.499 277.487 148.329 282.047C148.249 284.267 148.179 286.047 148.129 287.447C148.129 288.027 148.129 288.517 148.059 288.907C148.055 289.081 148.038 289.255 148.009 289.427V289.427Z" fill="#263238"/>
<path d="M130.389 239.027C130.389 239.885 130.292 240.741 130.099 241.577C129.829 243.147 129.409 245.297 128.859 247.647C128.309 249.997 127.729 252.117 127.269 253.647C127.066 254.481 126.778 255.292 126.409 256.067C126.499 255.216 126.67 254.375 126.919 253.557L128.359 247.557L129.729 241.557C129.873 240.696 130.094 239.849 130.389 239.027V239.027Z" fill="#263238"/>
<path d="M98.6095 223.757C97.2894 225.919 95.8261 227.99 94.2295 229.957C92.7741 232.028 91.1734 233.993 89.4395 235.837C90.7623 233.677 92.2255 231.606 93.8195 229.637C95.278 227.568 96.8785 225.604 98.6095 223.757V223.757Z" fill="#263238"/>
<path d="M81.9298 212.547C82.0398 212.647 75.8298 219.937 68.0698 228.827C60.3098 237.717 53.9298 244.827 53.8198 244.757C53.7098 244.687 59.9098 237.377 67.6798 228.487C75.4498 219.597 81.8198 212.427 81.9298 212.547Z" fill="#263238"/>
<path d="M73.5889 200.147C73.6789 200.257 70.2189 203.257 65.8789 206.837C63.3068 209.072 60.6198 211.172 57.8289 213.127C57.7389 213.017 61.1889 210.027 65.5389 206.437C68.1125 204.204 70.7994 202.104 73.5889 200.147V200.147Z" fill="#263238"/>
<path d="M63.8198 181.427C63.8898 181.557 55.2398 185.847 44.5198 191.017C33.7998 196.187 25.0098 200.277 25.0098 200.147C25.0098 200.017 33.5898 195.727 44.3098 190.557C55.0298 185.387 63.7598 181.307 63.8198 181.427Z" fill="#263238"/>
<path d="M59.8996 172.097C59.6157 172.233 59.3119 172.325 58.9996 172.367C58.4196 172.507 57.5696 172.687 56.5096 172.877C54.3996 173.267 51.4596 173.717 48.1996 174.047C44.9396 174.377 41.9696 174.517 39.8296 174.547C38.7496 174.547 37.8796 174.547 37.2796 174.547C36.9673 174.573 36.6529 174.546 36.3496 174.467C37.4961 174.303 38.6516 174.209 39.8096 174.187C41.9496 174.057 44.8996 173.857 48.1496 173.537C51.3996 173.217 54.3296 172.827 56.4496 172.537C57.5895 172.319 58.7417 172.172 59.8996 172.097V172.097Z" fill="#263238"/>
<path d="M56.7291 150.557C56.1468 150.605 55.5614 150.605 54.9791 150.557L50.2291 150.317C46.2291 150.117 40.6591 149.937 34.5291 149.967C28.3991 149.997 22.8491 150.247 18.8391 150.487L14.0791 150.777C13.4978 150.837 12.9131 150.857 12.3291 150.837C12.8974 150.702 13.4762 150.615 14.0591 150.577C15.1791 150.437 16.7991 150.277 18.8091 150.117C22.8091 149.787 28.3791 149.477 34.5291 149.447C40.6791 149.417 46.2391 149.657 50.2491 149.947C52.2491 150.087 53.8791 150.227 54.9991 150.357C55.5804 150.374 56.1592 150.441 56.7291 150.557V150.557Z" fill="#263238"/>
<path d="M58.6993 131.637C58.6993 131.767 52.1793 130.087 44.2393 127.867C36.2993 125.647 29.8793 123.737 29.9093 123.607C29.9393 123.477 36.4293 125.147 44.3793 127.367C52.3293 129.587 58.7393 131.497 58.6993 131.637Z" fill="#263238"/>
<path d="M62.8796 115.767C62.719 115.756 62.5608 115.722 62.4096 115.667L61.0896 115.257C59.9396 114.907 58.2996 114.347 56.2796 113.617C51.0316 111.686 45.888 109.483 40.8696 107.017C35.8526 104.542 30.9692 101.805 26.2396 98.817C24.4196 97.667 22.9796 96.707 21.9996 96.007L20.8796 95.207C20.6196 95.017 20.4896 94.917 20.4996 94.897C20.652 94.951 20.7966 95.025 20.9296 95.117L22.1096 95.837C23.1096 96.487 24.5996 97.397 26.4296 98.507C30.0896 100.727 35.2396 103.657 41.0996 106.507C46.9596 109.357 52.4196 111.677 56.4096 113.227C58.4096 114.007 60.0296 114.617 61.1496 115.027L62.4396 115.527C62.7396 115.677 62.8896 115.747 62.8796 115.767Z" fill="#263238"/>
<path d="M72.2995 99.817C72.2095 99.937 67.1495 96.517 60.9895 92.177C54.8295 87.837 49.8995 84.177 49.9895 84.107C50.0795 84.037 55.1395 87.407 61.2995 91.747C67.4595 96.087 72.3795 99.707 72.2995 99.817Z" fill="#263238"/>
<path d="M52.3991 51.207C52.5349 51.2873 52.6622 51.3811 52.7791 51.487L53.7791 52.357L57.4591 55.627L69.5891 66.427L81.7591 77.187L85.4291 80.457L86.4291 81.367C86.5498 81.4662 86.6574 81.5805 86.7491 81.707C86.7491 81.707 86.5991 81.627 86.3591 81.447L85.3091 80.607C84.4091 79.877 83.1091 78.807 81.5291 77.467C78.3491 74.787 73.9991 71.037 69.2591 66.817C64.5191 62.597 60.2591 58.737 57.2591 55.897C55.7391 54.477 54.5191 53.317 53.6891 52.507L52.6891 51.567C52.4991 51.347 52.3891 51.227 52.3991 51.207Z" fill="#263238"/>
<path d="M83.5996 52.1167C83.854 52.3214 84.0824 52.5565 84.2796 52.8167C84.6896 53.2767 85.2796 53.9667 85.9596 54.8167C87.3496 56.5567 89.1996 59.0067 91.1196 61.8167C93.0396 64.6267 94.6596 67.2367 95.7696 69.1567C96.3196 70.1567 96.7696 70.9067 97.0396 71.4667C97.2147 71.7392 97.3494 72.0356 97.4396 72.3467C96.71 71.3901 96.042 70.3881 95.4396 69.3467C94.2496 67.4767 92.5896 64.8967 90.6796 62.1067C88.7696 59.3167 86.9696 56.8267 85.6796 55.0467C84.9201 54.1188 84.2251 53.1398 83.5996 52.1167V52.1167Z" fill="#263238"/>
<g opacity="0.2">
<path d="M43.6289 43.6168L87.1289 81.7068L97.9489 73.0568L72.6989 34.4268C72.6989 34.4268 70.7689 35.8468 65.6989 37.2868C60.8689 38.6268 46.5289 38.9968 43.6289 43.6168Z" fill="black"/>
</g>
<g opacity="0.2">
<path d="M92.0098 11.4267L113.26 64.5967L126.83 60.3467L122.31 14.2267C122.31 14.2267 119.97 14.7767 114.78 14.1167C109.8 13.4267 97.6098 8.67674 92.0098 11.4267Z" fill="black"/>
</g>
<g opacity="0.3">
<path d="M148.699 0.256726L150.119 58.0067L162.849 58.6167L175.729 14.2967C173.054 13.7616 170.51 12.7085 168.239 11.1967C163.829 8.42672 154.859 -0.193274 148.699 0.256726Z" fill="black"/>
</g>
<g opacity="0.2">
<path d="M204.18 11.167L183.06 64.427L194.56 69.917L223.61 34.037C221.425 32.1919 219.56 29.9991 218.09 27.547C215.32 23.117 210.61 12.947 204.18 11.167Z" fill="black"/>
</g>
<g opacity="0.2">
<path d="M253.75 44.4268L214.43 85.4268L223.2 97.2368L261.62 71.5968C260.348 69.2659 259.492 66.7314 259.09 64.1068C258.16 59.0668 258.01 49.9968 253.75 44.4268Z" fill="black"/>
</g>
<g opacity="0.2">
<path d="M284.789 90.647L231.839 112.427L236.239 125.957L282.299 120.957C282.299 120.957 282.019 119.537 282.619 114.337C283.209 109.317 288.489 98.087 284.789 90.647Z" fill="black"/>
</g>
<g opacity="0.2">
<path d="M296.51 148.327L238.79 150.327L238.31 163.057L282.31 175.937C282.601 174.099 283.192 172.322 284.06 170.677C287.33 164.577 296.51 155.937 296.51 148.327Z" fill="black"/>
</g>
<g opacity="0.2">
<path d="M285.88 202.917L232.73 182.197L227.35 193.747L263.51 222.427C265.413 220.604 267.52 219.007 269.79 217.667C274.2 214.847 284.66 210.307 285.88 202.917Z" fill="black"/>
</g>
<g opacity="0.2">
<path d="M207.7 202.087L194.55 213.087C195.55 214.137 213.08 243.937 223.88 262.357C224.03 262.247 224.17 262.117 224.32 262.017C231.44 257.247 244.09 259.157 251.23 254.447L207.7 202.087Z" fill="black"/>
<path d="M183.53 222.977L163.89 229.677L173.19 282.997C173.789 282.78 174.404 282.609 175.03 282.487C184.3 280.647 196.51 288.717 205.03 285.177C206.2 284.68 207.286 284.006 208.25 283.177L183.53 222.977Z" fill="black"/>
<path d="M147.66 296.427L150.8 226.767L133.8 222.467L121.16 282.467L121.63 282.547C130.42 284.217 138.44 295.837 147.66 296.427Z" fill="black"/>
<path d="M105.01 214.907C105.01 214.907 82.5698 244.907 70.8398 261.147C71.384 261.413 71.9086 261.717 72.4098 262.057C80.1198 267.217 83.0398 281.587 91.7098 285.177C92.1068 285.344 92.5143 285.484 92.9298 285.597L124.27 226.257L105.01 214.907Z" fill="black"/>
<path d="M81.9293 190.707L34.0693 223.597C34.2493 223.837 34.4493 224.067 34.6193 224.307C39.8193 232.077 37.0393 246.457 43.6193 253.047C44.2259 253.643 44.8967 254.169 45.6193 254.617C62.5293 235.557 92.8893 201.337 93.9893 200.147L81.9293 190.707Z" fill="black"/>
<path d="M71.0102 167.217L14.4302 176.357C15.3302 185.437 8.18015 196.897 11.5402 205.017C11.7513 205.509 11.9952 205.987 12.2702 206.447C32.0702 196.587 73.4502 176.077 75.1702 175.967L71.0102 167.217Z" fill="black"/>
<path d="M67.8698 135.697L14.3798 120.257C14.3424 120.72 14.279 121.181 14.1898 121.637C12.4098 130.637 0.259808 138.817 0.259808 148.327C0.258046 148.964 0.311585 149.599 0.419811 150.227H65.7098L67.8698 135.697Z" fill="black"/>
<path d="M11.71 91.2169C31.71 101.937 70.79 123.607 70.79 123.607L80.41 105.337L35.22 71.3369C35.0379 71.6968 34.8376 72.0473 34.62 72.3869C29.55 79.9269 15.6 82.8869 11.71 91.2169Z" fill="black"/>
</g>
<path d="M296.429 148.327C296.429 148.327 296.429 148.117 296.369 147.697C296.337 147.07 296.246 146.447 296.099 145.837C295.525 143.436 294.508 141.164 293.099 139.137C291.379 136.367 288.779 133.287 286.099 129.377C284.587 127.294 283.428 124.976 282.669 122.517C282.018 119.654 282.018 116.68 282.669 113.817C283.219 110.817 284.129 107.627 284.929 104.297C285.729 100.967 286.449 97.367 285.709 93.677C285.296 91.8174 284.446 90.083 283.229 88.617C281.922 87.0996 280.427 85.7554 278.779 84.617C275.459 82.267 271.649 80.377 267.999 77.927C266.106 76.7088 264.387 75.2387 262.889 73.557C261.42 71.7435 260.356 69.6362 259.769 67.377C258.479 62.827 258.199 57.957 257.219 53.097C256.789 50.6445 255.958 48.2795 254.759 46.097C253.438 43.8842 251.439 42.1556 249.059 41.167C246.607 40.1818 244.04 39.5098 241.419 39.167C238.759 38.737 236.049 38.427 233.319 37.937C230.532 37.5444 227.829 36.6928 225.319 35.417C222.829 33.9179 220.718 31.8647 219.149 29.417C217.489 27.027 216.059 24.467 214.549 21.947C213.084 19.3612 211.34 16.9435 209.349 14.737C207.284 12.521 204.476 11.1433 201.459 10.867C198.376 10.7608 195.293 11.125 192.319 11.947C189.319 12.677 186.229 13.567 183.079 14.157C179.895 14.9023 176.574 14.8405 173.419 13.977C170.348 12.7647 167.473 11.1032 164.889 9.04704C162.229 7.04704 159.629 4.99704 156.779 3.26704C153.929 1.53704 150.699 0.197038 147.329 0.577038H146.709L146.089 0.717037C145.679 0.807037 145.269 0.887036 144.859 0.997036C144.054 1.25836 143.266 1.56894 142.499 1.92704C140.932 2.66233 139.43 3.52875 138.009 4.51704C135.159 6.45704 132.479 8.68704 129.559 10.667C128.104 11.6858 126.566 12.579 124.959 13.337C123.312 14.0727 121.549 14.5159 119.749 14.647C116.137 14.6718 112.541 14.1595 109.079 13.127C105.607 12.1222 102.063 11.3801 98.4793 10.907C96.6817 10.7309 94.8674 10.8525 93.1094 11.267C91.3638 11.751 89.7548 12.6342 88.4093 13.847C85.6493 16.257 83.7193 19.497 81.7993 22.677C80.0117 26.0027 77.9159 29.1532 75.5393 32.087C74.2731 33.5452 72.7473 34.7556 71.0393 35.657C69.2965 36.4862 67.4646 37.1136 65.5794 37.527C61.8194 38.347 57.9793 38.707 54.1993 39.387C50.4193 40.067 46.5593 41.127 43.7893 43.817C42.4655 45.2247 41.4444 46.889 40.7893 48.707C40.1298 50.5448 39.6411 52.4395 39.3294 54.367C38.6294 58.217 38.3293 62.187 37.3293 66.077C36.9093 68.0495 36.1946 69.9474 35.2093 71.707C34.1712 73.4569 32.8145 74.9968 31.2093 76.247C28.0493 78.787 24.4493 80.667 21.0193 82.767C19.2782 83.8015 17.6079 84.9508 16.0193 86.207C14.4592 87.4624 13.1439 88.9947 12.1393 90.727C11.1899 92.4961 10.7112 94.4796 10.7493 96.487C10.7814 98.5054 11.0159 100.515 11.4493 102.487C12.2993 106.487 13.5693 110.417 14.2393 114.487C14.6243 116.551 14.6951 118.662 14.4493 120.747C14.1275 122.836 13.4187 124.848 12.3593 126.677C10.2793 130.327 7.55935 133.537 5.14935 136.937C3.93761 138.639 2.88643 140.45 2.00935 142.347C1.0748 144.213 0.559442 146.261 0.499344 148.347C0.558917 150.431 1.06714 152.477 1.98935 154.347C2.89967 156.22 3.97738 158.008 5.20934 159.687C7.61934 163.087 10.3393 166.287 12.4293 169.947C13.4927 171.772 14.205 173.78 14.5293 175.867C14.787 177.951 14.7229 180.062 14.3393 182.127C13.6693 186.247 12.3893 190.187 11.5493 194.177C11.1126 196.148 10.8747 198.158 10.8393 200.177C10.7987 202.187 11.2738 204.173 12.2193 205.947C13.2305 207.666 14.5491 209.185 16.1093 210.427C17.698 211.68 19.3684 212.826 21.1093 213.857C24.5393 215.967 28.1093 217.857 31.2993 220.387C32.9036 221.634 34.2602 223.171 35.2993 224.917C36.2818 226.679 36.9995 228.576 37.4293 230.547C38.3693 234.447 38.6893 238.407 39.4293 242.267C39.7376 244.192 40.2264 246.084 40.8894 247.917C41.5422 249.739 42.5634 251.407 43.8894 252.817C46.6594 255.507 50.5593 256.567 54.2993 257.257C58.0393 257.947 61.9193 258.257 65.6793 259.117C67.5639 259.528 69.3956 260.152 71.1394 260.977C72.8468 261.879 74.3725 263.09 75.6394 264.547C78.0214 267.482 80.1208 270.637 81.9093 273.967C83.8293 277.147 85.7593 280.387 88.5193 282.797C89.8648 284.01 91.4738 284.893 93.2194 285.377C94.9774 285.792 96.7917 285.913 98.5893 285.737C102.173 285.264 105.717 284.522 109.189 283.517C112.651 282.485 116.247 281.972 119.859 281.997C121.64 282.141 123.382 282.591 125.009 283.327C126.615 284.087 128.153 284.98 129.609 285.997C132.529 287.997 135.219 290.207 138.059 292.147C139.465 293.126 140.951 293.985 142.499 294.717C143.265 295.077 144.054 295.387 144.859 295.647C145.259 295.757 145.679 295.837 146.089 295.927C146.289 295.977 146.499 296.027 146.699 296.057L147.329 296.107C150.699 296.487 153.929 295.107 156.769 293.407C159.609 291.707 162.229 289.587 164.889 287.627C167.471 285.57 170.346 283.912 173.419 282.707C176.573 281.838 179.895 281.777 183.079 282.527C186.229 283.117 189.279 284.007 192.319 284.737C195.293 285.56 198.376 285.921 201.459 285.807C204.473 285.532 207.279 284.154 209.339 281.937C211.337 279.736 213.081 277.317 214.539 274.727C216.059 272.197 217.489 269.637 219.149 267.257C220.715 264.807 222.827 262.753 225.319 261.257C227.83 259.986 230.533 259.134 233.319 258.737C236.049 258.257 238.759 257.947 241.419 257.507C244.04 257.164 246.607 256.492 249.059 255.507C251.438 254.511 253.435 252.78 254.759 250.567C255.965 248.367 256.793 245.981 257.209 243.507C258.209 238.647 258.469 233.787 259.759 229.237C260.352 226.978 261.419 224.871 262.889 223.057C264.382 221.373 266.102 219.906 267.999 218.697C271.649 216.237 275.459 214.347 278.779 211.997C280.423 210.877 281.916 209.549 283.219 208.047C284.433 206.578 285.286 204.845 285.709 202.987C286.048 201.19 286.099 199.35 285.859 197.537C285.645 195.797 285.327 194.07 284.909 192.367C284.119 189.037 283.209 185.897 282.659 182.857C282.003 179.991 282.003 177.013 282.659 174.147C283.416 171.69 284.575 169.375 286.089 167.297C288.809 163.377 291.409 160.297 293.089 157.537C294.496 155.509 295.513 153.237 296.089 150.837C296.236 150.227 296.326 149.604 296.359 148.977C296.359 148.557 296.419 148.337 296.419 148.337C296.419 148.337 296.419 148.557 296.419 148.977C296.41 149.607 296.333 150.234 296.189 150.847C295.617 153.264 294.6 155.553 293.189 157.597C291.479 160.367 288.889 163.467 286.189 167.377C284.696 169.451 283.551 171.755 282.799 174.197C282.154 177.034 282.154 179.98 282.799 182.817C283.349 185.817 284.269 188.987 285.069 192.317C285.51 194.025 285.844 195.758 286.069 197.507C286.322 199.346 286.275 201.213 285.929 203.037C285.503 204.936 284.641 206.71 283.409 208.217C282.087 209.734 280.579 211.078 278.919 212.217C275.579 214.597 271.759 216.487 268.139 218.937C266.286 220.142 264.604 221.592 263.139 223.247C261.701 225.035 260.658 227.107 260.079 229.327C258.809 233.827 258.529 238.687 257.559 243.577C257.132 246.088 256.291 248.511 255.069 250.747C253.712 253.018 251.667 254.798 249.229 255.827C246.749 256.839 244.152 257.538 241.499 257.907C238.829 258.347 236.119 258.657 233.409 259.147C230.657 259.532 227.988 260.37 225.509 261.627C223.091 263.1 221.039 265.104 219.509 267.487C217.869 269.847 216.449 272.407 214.929 274.937C213.457 277.556 211.696 280.001 209.679 282.227C207.552 284.512 204.658 285.936 201.549 286.227C198.419 286.35 195.289 285.989 192.269 285.157C189.219 284.427 186.179 283.537 183.049 282.957C179.937 282.228 176.693 282.286 173.609 283.127C170.578 284.32 167.743 285.961 165.199 287.997C162.549 289.947 159.939 292.047 157.049 293.797C156.323 294.238 155.576 294.641 154.809 295.007C154.429 295.177 154.049 295.377 153.649 295.537L152.439 295.967C150.798 296.526 149.056 296.731 147.329 296.567L146.689 296.517C146.469 296.517 146.259 296.427 146.049 296.387C145.629 296.287 145.199 296.207 144.779 296.087C143.954 295.824 143.146 295.51 142.359 295.147C140.79 294.402 139.285 293.529 137.859 292.537C134.979 290.537 132.299 288.347 129.399 286.387C127.965 285.389 126.45 284.513 124.869 283.767C123.288 283.059 121.597 282.626 119.869 282.487C116.307 282.474 112.762 282.986 109.349 284.007C105.851 285.021 102.281 285.77 98.6693 286.247C96.8181 286.424 94.9505 286.299 93.1394 285.877C91.3219 285.367 89.6456 284.446 88.2393 283.187C85.3993 280.707 83.4594 277.437 81.5294 274.247C79.7537 270.948 77.6747 267.821 75.3193 264.907C74.0433 263.479 72.5143 262.299 70.8093 261.427C69.0974 260.628 67.3035 260.018 65.4593 259.607C61.7493 258.797 57.9093 258.447 54.0993 257.757C52.1705 257.437 50.2757 256.938 48.4393 256.267C46.5393 255.648 44.8143 254.585 43.4074 253.166C42.0004 251.746 40.9521 250.012 40.3493 248.107C39.6774 246.244 39.1819 244.322 38.8693 242.367C38.1593 238.477 37.8693 234.517 36.8693 230.677C36.457 228.749 35.7557 226.895 34.7893 225.177C33.7743 223.486 32.4555 221.998 30.8993 220.787C27.7893 218.297 24.2093 216.427 20.7593 214.307C19.0174 213.259 17.3471 212.096 15.7593 210.827C14.1464 209.53 12.7898 207.942 11.7593 206.147C10.7705 204.304 10.2713 202.238 10.3093 200.147C10.3436 198.081 10.5848 196.025 11.0293 194.007C11.8893 190.007 13.1493 186.007 13.8193 182.007C14.1868 179.995 14.2509 177.938 14.0093 175.907C13.7004 173.884 13.0225 171.935 12.0093 170.157C10.0093 166.567 7.23934 163.377 4.81934 159.947C3.56205 158.243 2.46726 156.425 1.54935 154.517C0.532188 152.616 0 150.493 0 148.337C0 146.181 0.532188 144.058 1.54935 142.157C2.47114 140.257 3.56575 138.446 4.81934 136.747C7.24934 133.317 9.95935 130.117 12.0093 126.527C13.0333 124.758 13.712 122.81 14.0093 120.787C14.2527 118.752 14.1853 116.692 13.8093 114.677C13.1393 110.627 11.8793 106.677 11.0193 102.677C10.5732 100.66 10.3353 98.6026 10.3093 96.537C10.2698 94.4445 10.7728 92.3774 11.7693 90.537C12.8038 88.7474 14.1599 87.1642 15.7693 85.867C17.3595 84.6009 19.0297 83.4384 20.7693 82.387C24.2193 80.277 27.7693 78.387 30.8993 75.907C32.4611 74.702 33.7809 73.2125 34.7893 71.517C35.7515 69.7969 36.4525 67.9433 36.8693 66.017C37.7893 62.177 38.1193 58.217 38.8693 54.337C39.1841 52.381 39.683 50.4592 40.3594 48.597C41.0126 46.6792 42.0582 44.9185 43.4293 43.427C44.8722 42.0725 46.5725 41.0217 48.4293 40.337C50.2659 39.669 52.1608 39.1735 54.0893 38.857C57.8993 38.167 61.7393 37.857 65.4493 36.997C67.2933 36.5975 69.0852 35.9868 70.7893 35.177C72.4404 34.3018 73.918 33.1327 75.1493 31.727C77.5129 28.8291 79.5987 25.7154 81.3793 22.427C83.3093 19.237 85.2493 15.967 88.0893 13.427C89.496 12.1704 91.1724 11.2535 92.9893 10.747C94.7998 10.3206 96.6682 10.1956 98.5193 10.377C102.131 10.8545 105.701 11.6033 109.199 12.617C112.612 13.6397 116.157 14.1486 119.719 14.127C121.447 13.9956 123.139 13.5659 124.719 12.857C126.3 12.1114 127.815 11.235 129.249 10.237C132.139 8.23704 134.829 6.04704 137.699 4.08704C139.125 3.09782 140.63 2.22819 142.199 1.48704C142.982 1.09925 143.791 0.765145 144.619 0.487038C145.039 0.367038 145.469 0.287035 145.889 0.187035C146.099 0.187035 146.319 0.0870375 146.529 0.0570375H147.179C148.903 -0.111096 150.642 0.0935329 152.279 0.657036L153.489 1.08704C153.889 1.24704 154.269 1.43704 154.659 1.61704C155.439 1.94704 156.149 2.41704 156.899 2.81704C159.779 4.57704 162.389 6.66704 165.039 8.62704C167.588 10.6557 170.421 12.2967 173.449 13.497C176.533 14.3377 179.777 14.3962 182.889 13.667C186.019 13.087 189.059 12.197 192.109 11.467C195.147 10.6398 198.294 10.289 201.439 10.427C204.55 10.7127 207.445 12.1372 209.569 14.427C211.59 16.6506 213.351 19.0962 214.819 21.717C216.339 24.247 217.769 26.797 219.409 29.167C220.932 31.5555 222.986 33.5608 225.409 35.027C227.889 36.283 230.558 37.1242 233.309 37.517C236.019 38.007 238.729 38.317 241.399 38.757C244.053 39.1216 246.651 39.8205 249.129 40.837C251.584 41.8548 253.646 43.6361 255.009 45.917C256.234 48.152 257.079 50.575 257.509 53.087C258.509 57.977 258.759 62.837 260.029 67.337C260.601 69.5597 261.645 71.6333 263.089 73.417C264.551 75.0754 266.234 76.5256 268.089 77.727C271.719 80.177 275.529 82.077 278.869 84.447C280.53 85.584 282.039 86.9282 283.359 88.447C284.599 89.9464 285.466 91.7181 285.889 93.617C286.235 95.4407 286.282 97.3083 286.029 99.147C285.8 100.895 285.466 102.629 285.029 104.337C284.219 107.677 283.309 110.807 282.749 113.837C282.104 116.677 282.104 119.627 282.749 122.467C283.501 124.906 284.646 127.207 286.139 129.277C288.829 133.187 291.429 136.277 293.139 139.067C294.551 141.11 295.569 143.4 296.139 145.817C296.283 146.43 296.36 147.057 296.369 147.687C296.419 148.117 296.429 148.327 296.429 148.327Z" fill="#263238"/>
<path d="M148.34 239.107C198.476 239.107 239.12 198.463 239.12 148.327C239.12 98.1905 198.476 57.5469 148.34 57.5469C98.2032 57.5469 57.5596 98.1905 57.5596 148.327C57.5596 198.463 98.2032 239.107 148.34 239.107Z" fill="white"/>
</svg>
