<svg width="122" height="122" viewBox="0 0 122 122" fill="none" xmlns="http://www.w3.org/2000/svg">
<path d="M111.325 95.3298L110.173 94.3132C106.904 91.4007 104.043 88.0608 101.666 84.3837C99.0713 79.309 97.5159 73.7671 97.0914 68.0831V51.342C97.1138 42.4144 93.8754 33.7858 87.9846 27.0775C82.0938 20.3692 73.956 16.0429 65.1003 14.9115V10.5398C65.1003 9.33991 64.6237 8.18917 63.7752 7.34072C62.9268 6.49228 61.7761 6.01562 60.5762 6.01562C59.3763 6.01562 58.2255 6.49228 57.3771 7.34072C56.5287 8.18917 56.052 9.33991 56.052 10.5398V14.9792C47.2757 16.1922 39.2363 20.5447 33.4228 27.2304C27.6094 33.9162 24.4158 42.4823 24.4337 51.342V68.0831C24.0093 73.7671 22.4538 79.309 19.8587 84.3837C17.5234 88.0517 14.7083 91.391 11.4882 94.3132L10.3359 95.3298V104.886H111.325V95.3298Z" fill="white"/>
<path d="M51.918 108.444C52.2151 110.592 53.2796 112.561 54.9147 113.985C56.5498 115.409 58.6452 116.194 60.8138 116.194C62.9824 116.194 65.0778 115.409 66.7129 113.985C68.348 112.561 69.4124 110.592 69.7096 108.444H51.918Z" fill="white"/>
</svg>
