<svg width="32" height="32" viewBox="0 0 32 32" fill="none" xmlns="http://www.w3.org/2000/svg">
<path d="M20.5201 17.0448C20.7089 16.632 21.2321 16.2496 21.6833 16.1984C22.1345 16.1472 22.5457 15.7344 22.5969 15.2832C22.6513 14.8352 23.0321 14.3104 23.4433 14.12C23.6504 14.0146 23.819 13.8465 23.925 13.6396C24.031 13.4328 24.069 13.1977 24.0337 12.968C23.9409 12.5232 24.1425 11.9072 24.4753 11.6016C24.6403 11.4369 24.7489 11.2242 24.7854 10.9939C24.8219 10.7636 24.7845 10.5277 24.6785 10.32C24.5687 10.0967 24.5117 9.85121 24.5117 9.60241C24.5117 9.3536 24.5687 9.10811 24.6785 8.88481C24.7847 8.67721 24.8223 8.44122 24.7858 8.21089C24.7493 7.98055 24.6405 7.76776 24.4753 7.60321C24.1425 7.29441 23.9425 6.68001 24.0337 6.23681C24.0695 6.00661 24.0317 5.77096 23.9257 5.56351C23.8197 5.35606 23.6508 5.1874 23.4433 5.08161C23.2234 4.96432 23.033 4.79871 22.8864 4.59724C22.7398 4.39576 22.6408 4.16367 22.5969 3.91841C22.5604 3.68908 22.4524 3.47713 22.2883 3.31278C22.1243 3.14844 21.9125 3.0401 21.6833 3.00321C21.4379 2.96009 21.2056 2.86159 21.0041 2.7152C20.8025 2.56881 20.637 2.37839 20.5201 2.15841C20.4145 1.9509 20.2457 1.78233 20.038 1.67706C19.8304 1.5718 19.5946 1.53529 19.3649 1.57281C19.1183 1.60737 18.8671 1.58528 18.6303 1.5082C18.3935 1.43113 18.1774 1.3011 17.9985 1.12801C17.6897 0.792009 17.1137 0.702409 16.7185 0.924809C16.3233 1.14721 15.6753 1.14721 15.2817 0.924809C15.0746 0.817158 14.8386 0.7785 14.608 0.81448C14.3775 0.85046 14.1645 0.959194 14.0001 1.12481C13.8212 1.2981 13.6051 1.42826 13.3683 1.50535C13.1315 1.58243 12.8803 1.60441 12.6337 1.56961C12.4042 1.53269 12.1689 1.56968 11.9618 1.67523C11.7548 1.78078 11.5866 1.94943 11.4817 2.15681C11.2913 2.56641 10.7681 2.94881 10.3169 3.00001C10.0872 3.03691 9.87501 3.14543 9.71066 3.31007C9.54631 3.47471 9.43816 3.68706 9.40166 3.91681C9.35826 4.16207 9.25945 4.39418 9.11278 4.59548C8.9661 4.79678 8.77542 4.96195 8.55526 5.07841C8.34841 5.18473 8.18042 5.35367 8.07527 5.56112C7.97011 5.76856 7.93315 6.00392 7.96966 6.23361C8.05766 6.67681 7.85766 7.29281 7.52486 7.60001C7.19206 7.90721 7.09926 8.48321 7.32166 8.88161C7.54406 9.27521 7.54406 9.92321 7.32166 10.3168C7.21552 10.5247 7.17801 10.7609 7.21452 10.9915C7.25103 11.222 7.35968 11.4351 7.52486 11.6C7.85926 11.904 8.05766 12.52 7.96966 12.9664C7.93311 13.1957 7.97009 13.4306 8.07529 13.6376C8.18049 13.8445 8.34851 14.0128 8.55526 14.1184C8.96806 14.3088 9.34726 14.8336 9.40006 15.2816C9.45446 15.7328 9.86406 16.1456 10.3153 16.1968C10.7665 16.248 11.2897 16.632 11.4801 17.0432C11.5858 17.2498 11.7542 17.4177 11.9611 17.5228C12.168 17.628 12.4028 17.6651 12.6321 17.6288C13.0769 17.5408 13.6929 17.7392 13.9985 18.0736C14.1633 18.2384 14.376 18.3469 14.6063 18.3834C14.8365 18.4199 15.0723 18.3826 15.2801 18.2768C15.6737 18.0544 16.3217 18.0544 16.7169 18.2768C17.1121 18.4992 17.6881 18.4064 17.9969 18.0736C18.3057 17.7376 18.9185 17.5408 19.3633 17.6288C19.593 17.6658 19.8286 17.6293 20.0364 17.5244C20.2441 17.4195 20.4134 17.2517 20.5201 17.0448ZM16.0001 15.0384C14.5573 15.0384 13.1736 14.4653 12.1534 13.4451C11.1332 12.4249 10.5601 11.0412 10.5601 9.59841C10.5601 8.15563 11.1332 6.77195 12.1534 5.75175C13.1736 4.73155 14.5573 4.15841 16.0001 4.15841C17.4428 4.15841 18.8265 4.73155 19.8467 5.75175C20.8669 6.77195 21.4401 8.15563 21.4401 9.59841C21.4401 11.0412 20.8669 12.4249 19.8467 13.4451C18.8265 14.4653 17.4428 15.0384 16.0001 15.0384ZM9.56006 18.2544L7.57126 29.5328L12.5761 28.7904L17.0257 31.2L19.0065 19.9664C17.4071 20.4341 15.7208 20.5228 14.0811 20.2257C12.4415 19.9285 10.8936 19.2536 9.56006 18.2544ZM22.3377 18.3312C21.838 18.6944 21.308 19.014 20.7537 19.2864L19.5569 26.064L24.9473 23.1392L22.3377 18.3312Z" fill="white"/>
</svg>
