<svg width="40" height="40" viewBox="0 0 40 40" fill="none" xmlns="http://www.w3.org/2000/svg">
<path d="M5 20.0005C5 19.5584 5.17559 19.1345 5.48816 18.822C5.80072 18.5094 6.22464 18.3338 6.66667 18.3338H29.31L20.4867 9.51381C20.3317 9.35885 20.2088 9.17489 20.1249 8.97242C20.0411 8.76996 19.9979 8.55296 19.9979 8.33381C19.9979 8.11466 20.0411 7.89766 20.1249 7.6952C20.2088 7.49273 20.3317 7.30877 20.4867 7.15381C20.6416 6.99885 20.8256 6.87593 21.0281 6.79207C21.2305 6.7082 21.4475 6.66504 21.6667 6.66504C21.8858 6.66504 22.1028 6.7082 22.3053 6.79207C22.5077 6.87593 22.6917 6.99885 22.8467 7.15381L34.5133 18.8205C34.6685 18.9753 34.7917 19.1592 34.8757 19.3617C34.9597 19.5642 35.003 19.7813 35.003 20.0005C35.003 20.2197 34.9597 20.4368 34.8757 20.6393C34.7917 20.8417 34.6685 21.0257 34.5133 21.1805L22.8467 32.8471C22.5337 33.1601 22.1093 33.3359 21.6667 33.3359C21.2241 33.3359 20.7996 33.1601 20.4867 32.8471C20.1737 32.5342 19.9979 32.1097 19.9979 31.6671C19.9979 31.2246 20.1737 30.8001 20.4867 30.4871L29.31 21.6671H6.66667C6.22464 21.6671 5.80072 21.4915 5.48816 21.179C5.17559 20.8664 5 20.4425 5 20.0005Z" fill="white"/>
</svg>
