<svg width="445" height="440" viewBox="0 0 445 440" fill="none" xmlns="http://www.w3.org/2000/svg">
<g clip-path="url(#clip0_1201_428)">
<path d="M331.48 271.78H403.74V216.04H331.48V271.78Z" fill="#AD4242"/>
<path d="M336.65 266.92H345.36V257.08H336.65V266.92Z" fill="white"/>
<path d="M381.71 216.19H373.5V228.08H381.71V216.19Z" fill="#FAFAFA"/>
<path d="M381.71 259.72H373.5V271.61H381.71V259.72Z" fill="#FAFAFA"/>
<path d="M349.52 272.17C349.39 272.17 349.29 259.91 349.29 244.79C349.29 229.67 349.39 217.41 349.52 217.41C349.65 217.41 349.75 229.67 349.75 244.79C349.75 259.91 349.65 272.17 349.52 272.17Z" fill="#E0E0E0"/>
<path d="M302.02 367.77H426.7V271.6H302.02V367.77Z" fill="#AD4242"/>
<path d="M310.93 359.37H325.95V342.39H310.93V359.37Z" fill="white"/>
<path d="M388.66 271.85H374.5V292.37H388.66V271.85Z" fill="#FAFAFA"/>
<path d="M388.66 346.96H374.5V367.48H388.66V346.96Z" fill="#FAFAFA"/>
<path d="M333.13 368.43C332.91 368.43 332.73 347.28 332.73 321.19C332.73 295.1 332.91 273.95 333.13 273.95C333.35 273.95 333.53 295.1 333.53 321.19C333.53 347.28 333.35 368.43 333.13 368.43Z" fill="#E0E0E0"/>
<path d="M422.73 71.5801L429.41 85.1101L444.35 87.2801L433.54 97.8201L436.09 112.69L422.73 105.67L409.38 112.69L411.93 97.8201L401.12 87.2801L416.06 85.1101L422.73 71.5801Z" fill="#AD4242"/>
<path d="M25.0204 246.33L29.2304 254.86L38.6504 256.23L31.8404 262.87L33.4404 272.25L25.0204 267.82L16.6104 272.25L18.2104 262.87L11.4004 256.23L20.8204 254.86L25.0204 246.33Z" fill="#AD4242"/>
<path d="M30.25 172.03L39.59 190.97L60.49 194L45.37 208.75L48.94 229.56L30.25 219.74L11.55 229.56L15.12 208.75L0 194L20.9 190.97L30.25 172.03Z" fill="#AD4242"/>
<path d="M416.79 132.69L420.81 140.85L429.82 142.16L423.31 148.52L424.84 157.49L416.79 153.25L408.73 157.49L410.27 148.52L403.75 142.16L412.76 140.85L416.79 132.69Z" fill="#AD4242"/>
<path d="M284.56 0.439941L288.59 8.59994L297.6 9.90994L291.08 16.2599L292.62 25.2299L284.56 20.9999L276.51 25.2299L278.05 16.2599L271.53 9.90994L280.54 8.59994L284.56 0.439941Z" fill="#AD4242"/>
<path d="M376.74 87.7798L379.38 93.1198L385.27 93.9798L381.01 98.1398L382.01 104.01L376.74 101.23L371.46 104.01L372.47 98.1398L368.21 93.9798L374.1 93.1198L376.74 87.7798Z" fill="#AD4242"/>
<path d="M133.44 357.48L138.57 367.88L150.06 369.55L141.75 377.65L143.71 389.09L133.44 383.69L123.17 389.09L125.13 377.65L116.82 369.55L128.3 367.88L133.44 357.48Z" fill="#AD4242"/>
<path d="M147 347.13L149.12 351.43L153.86 352.12L150.43 355.47L151.24 360.19L147 357.96L142.75 360.19L143.56 355.47L140.13 352.12L144.88 351.43L147 347.13Z" fill="#AD4242"/>
<path d="M336.65 307.29L341.17 316.44L351.26 317.9L343.96 325.03L345.68 335.08L336.65 330.33L327.62 335.08L329.34 325.03L322.04 317.9L332.13 316.44L336.65 307.29Z" fill="#525882"/>
<path d="M358.19 299.18L360.32 303.49L365.08 304.18L361.64 307.54L362.45 312.28L358.19 310.04L353.94 312.28L354.75 307.54L351.31 304.18L356.07 303.49L358.19 299.18Z" fill="#525882"/>
<path d="M330 61.0003L333.49 50.0003C330.097 43.1672 329.067 35.4017 330.561 27.9206C332.055 20.4394 335.989 13.6652 341.746 8.65939C347.503 3.6536 354.758 0.699052 362.374 0.258673C369.99 -0.181705 377.537 1.91697 383.833 6.22587C390.128 10.5348 394.816 16.8104 397.163 24.0696C399.509 31.3287 399.381 39.1611 396.799 46.3396C394.216 53.5182 389.325 59.6372 382.892 63.7379C376.459 67.8387 368.847 69.6894 361.25 69.0003C353.851 68.4863 346.851 65.4509 341.42 60.4003V60.4003L330 61.0003Z" fill="#FAFAFA"/>
<path d="M330 61L330.76 60.93L332.96 60.77L341.45 60.19C345.657 64.0871 350.84 66.7721 356.45 67.96C358.182 68.3434 359.94 68.5941 361.71 68.71L364.51 68.82C365.46 68.82 366.42 68.71 367.4 68.66C376.17 67.8484 384.295 63.7037 390.1 57.08C393.363 53.3734 395.776 48.9978 397.17 44.26C398.601 39.2374 398.885 33.9571 398 28.81C397.78 27.4822 397.476 26.1695 397.09 24.88C396.909 24.2273 396.689 23.5861 396.43 22.96C396.19 22.32 395.96 21.68 395.7 21.04C394.573 18.516 393.153 16.1331 391.47 13.94C390.635 12.8331 389.73 11.781 388.76 10.79C388.293 10.2897 387.795 9.81878 387.27 9.38004C386.75 8.93004 386.27 8.44004 385.72 8.02004L384.1 6.81004L383.28 6.21004L382.41 5.69004L380.67 4.69004C380.09 4.36004 379.47 4.10004 378.87 3.81004C374.597 1.8072 369.956 0.708797 365.238 0.583695C360.521 0.458594 355.828 1.30949 351.455 3.08304C347.081 4.85659 343.122 7.51454 339.824 10.8902C336.526 14.2659 333.961 18.2866 332.29 22.7C332.13 23.16 331.96 23.62 331.8 24.07C331.625 24.5154 331.485 24.9734 331.38 25.44L330.7 28.16C330.399 29.904 330.195 31.6634 330.09 33.43C329.857 39.1459 331.06 44.8291 333.59 49.96V49.96C332.42 53.53 331.52 56.27 330.9 58.14C330.6 59.06 330.36 59.76 330.2 60.26L330 61C330 61 330.06 60.77 330.2 60.3C330.34 59.83 330.57 59.11 330.85 58.19C331.43 56.3 332.3 53.52 333.42 49.9V50C330.824 44.8483 329.569 39.1253 329.77 33.36C329.872 31.5704 330.072 29.7877 330.37 28.02C330.59 27.12 330.81 26.21 331.04 25.28C331.145 24.8068 331.285 24.3422 331.46 23.89C331.62 23.43 331.79 22.97 331.95 22.5C333.419 18.5653 335.595 14.9323 338.37 11.78C343.318 6.13034 349.971 2.24505 357.323 0.711527C364.675 -0.821998 372.326 0.0796051 379.12 3.28004C379.72 3.58004 380.36 3.84004 380.95 4.18004L382.71 5.18004L383.6 5.71004L384.43 6.32004L386.1 7.55004C386.65 7.97004 387.1 8.47004 387.67 8.92004C388.203 9.37137 388.71 9.85212 389.19 10.36C390.175 11.3633 391.09 12.4325 391.93 13.56C393.644 15.7844 395.087 18.2047 396.23 20.77C396.49 21.41 396.72 22.06 396.97 22.71C397.229 23.3463 397.449 23.9974 397.63 24.66C398.028 25.9715 398.338 27.3077 398.56 28.66C399.453 33.9062 399.153 39.2862 397.68 44.4C396.255 49.2057 393.797 53.6423 390.48 57.4C384.596 64.0956 376.359 68.2677 367.48 69.05C366.48 69.05 365.48 69.2 364.56 69.2L361.73 69.08C359.946 68.9551 358.174 68.6943 356.43 68.3C350.802 67.0631 345.617 64.3184 341.43 60.36H341.51L332.94 60.81L330.76 60.91L330 61Z" fill="#263238"/>
<path d="M344.82 33.3599L350.49 28.4499L360.05 38.2599L381.46 20.4199L386 26.0599L358.56 48.4099L344.82 33.3599Z" fill="#525882"/>
<path d="M270.63 306.86L78.8599 349.6C76.6256 350.095 74.2863 349.683 72.3553 348.455C70.4243 347.227 69.0593 345.283 68.5599 343.05L6.31987 63.8C5.82482 61.5645 6.23629 59.224 7.4641 57.2913C8.6919 55.3587 10.6359 53.9918 12.8699 53.49L204.64 10.76C205.746 10.5123 206.891 10.4853 208.008 10.6805C209.125 10.8758 210.192 11.2895 211.149 11.8979C212.106 12.5064 212.933 13.2976 213.584 14.2263C214.234 15.155 214.695 16.2029 214.94 17.31L277.18 296.56C277.675 298.794 277.263 301.134 276.035 303.065C274.807 304.996 272.863 306.361 270.63 306.86Z" fill="#E0E0E0"/>
<path d="M270.63 306.86L271.26 306.67C271.887 306.477 272.491 306.215 273.06 305.89C273.99 305.341 274.81 304.626 275.48 303.78C276.398 302.619 277.004 301.242 277.24 299.78C277.38 298.896 277.38 297.995 277.24 297.11C277.08 296.18 276.82 295.21 276.6 294.19C276.15 292.14 275.6 289.91 275.1 287.49C274.02 282.64 272.76 277.05 271.35 270.76C265.73 245.59 257.59 209.16 247.53 164.16C242.53 141.65 237 117 231.1 90.5402C228.147 77.3135 225.097 63.6468 221.95 49.5402C220.357 42.4535 218.754 35.2735 217.14 28.0002L214.69 17.0602C214.229 15.2502 213.179 13.6451 211.705 12.4973C210.232 11.3496 208.418 10.7244 206.55 10.7202C205.611 10.7396 204.677 10.8739 203.77 11.1202L200.96 11.7402L195.33 13.0002L184 15.5602L160.89 20.7202L113.19 31.3402L12.9403 53.6902C10.8269 54.1575 8.9746 55.4207 7.76797 57.2176C6.56134 59.0145 6.09303 61.2071 6.46027 63.3402C7.36027 67.6002 8.34027 71.8602 9.28027 76.1002C11.1736 84.5802 13.0503 93.0035 14.9103 101.37C18.6303 118.097 22.2969 134.563 25.9103 150.77C33.1303 183.16 40.0903 214.41 46.7203 244.17C53.3503 273.93 59.6403 302.17 65.5303 328.68C66.2703 332.013 67.0003 335.293 67.7203 338.52C68.0903 340.14 68.4303 341.78 68.8203 343.36C69.2302 344.931 70.0926 346.346 71.3003 347.43C72.4869 348.513 73.9578 349.234 75.5403 349.51C76.3233 349.641 77.1202 349.668 77.9103 349.59C78.6903 349.49 79.4703 349.29 80.2603 349.12L89.5603 347.05L124.89 339.19L231.52 315.49L260.52 309.07L268.06 307.41L270.64 306.86C270.64 306.86 269.77 307.07 268.07 307.45L260.54 309.15L231.54 315.65L125 339.47L89.6703 347.36L80.3703 349.44C79.5803 349.61 78.8003 349.8 77.9803 349.91C77.1606 349.992 76.3339 349.968 75.5203 349.84C73.8785 349.543 72.3516 348.795 71.1103 347.68C69.8626 346.548 68.9699 345.079 68.5403 343.45C68.1403 341.84 67.8003 340.22 67.4303 338.59C66.7103 335.34 65.9703 332.06 65.2403 328.76C59.2903 302.29 53.0003 274 46.3403 244.25C39.6803 214.5 32.7403 183.25 25.5203 150.86C21.9136 134.667 18.2469 118.2 14.5203 101.46C12.6536 93.1002 10.7736 84.6768 8.88027 76.1902C7.94027 71.9402 7.00027 67.7102 6.05027 63.4102C5.6678 61.1729 6.16054 58.8742 7.42643 56.9903C8.69232 55.1063 10.6343 53.7815 12.8503 53.2902L113.1 31.0002L160.77 20.3802L183.89 15.2302L195.25 12.7002L200.88 11.4502L203.68 10.8202C204.619 10.5775 205.581 10.44 206.55 10.4102C208.508 10.4288 210.405 11.0892 211.95 12.2902C213.484 13.4884 214.574 15.1632 215.05 17.0502C215.88 20.7202 216.69 24.3702 217.51 28.0502C219.124 35.3035 220.714 42.4535 222.28 49.5002C225.42 63.6002 228.464 77.2668 231.41 90.5002L247.8 164.13C257.8 209.13 265.9 245.58 271.49 270.76C272.89 277.05 274.13 282.64 275.2 287.49C275.74 289.91 276.2 292.15 276.69 294.2C276.9 295.2 277.15 296.2 277.31 297.13C277.455 298.024 277.455 298.936 277.31 299.83C277.077 301.319 276.46 302.722 275.52 303.9C274.438 305.282 272.947 306.286 271.26 306.77L270.63 306.86Z" fill="#263238"/>
<g opacity="0.3">
<path d="M88.5902 339.71L263.31 299.77L257.78 265.52L247.88 246.33L80.7402 311.99L88.5902 339.71Z" fill="black"/>
</g>
<g opacity="0.3">
<path d="M161.53 21L168.14 31.91L169.43 37.69L164.94 38.69L161.53 21Z" fill="black"/>
</g>
<path d="M16.2803 65.4203L76.9003 337.42L266.91 295.07L256.07 246.44L206.29 23.0703L16.2803 65.4203Z" fill="white"/>
<path d="M16.2803 65.4202L206.28 22.9102H206.45V23.0802C223.31 98.6602 244.35 192.99 267.11 295.08L267.16 295.28H266.95L76.9503 337.61H76.7603V337.42C41.0003 176.84 16.6503 67.0702 16.2803 65.4202L77.0803 337.42L76.8603 337.27L266.86 294.91L266.7 295.16C244 193 223 98.7002 206.12 23.1102L206.33 23.2402L16.2803 65.4202Z" fill="#263238"/>
<path d="M69.7871 33.0712L153.583 14.4021C155.214 14.0522 156.918 14.3604 158.323 15.2599C159.728 16.1593 160.721 17.5772 161.087 19.2052L165.934 40.9618L69.8302 62.3731L64.983 40.6165C64.6179 38.9779 64.9187 37.2613 65.8193 35.8445C66.7198 34.4276 68.1463 33.4265 69.785 33.0615L69.7871 33.0712Z" fill="#263238"/>
<path d="M121.58 10.52L97.1104 15.97L104.65 36.31L123.08 32.2L121.58 10.52Z" fill="#263238"/>
<path d="M153.58 14.3904C153.58 14.5104 134.86 18.7804 111.73 23.9304C88.6001 29.0804 69.8101 33.1804 69.7901 33.0704C69.7701 32.9604 88.5001 28.6904 111.64 23.5304C134.78 18.3704 153.55 14.2804 153.58 14.3904Z" fill="#455A64"/>
<path d="M70.9999 57.3501C70.8899 57.3501 69.9199 53.4502 68.8299 48.5902C67.7399 43.7302 66.9599 39.7602 67.0699 39.7302C67.1799 39.7002 68.1499 43.6302 69.2399 48.5002C70.3299 53.3702 71.0899 57.3301 70.9999 57.3501Z" fill="#455A64"/>
<path d="M161.39 35.0003C160.591 32.3854 159.924 29.7321 159.39 27.0503C158.39 22.6303 157.7 19.0503 157.81 19.0503C158.611 21.6816 159.279 24.3517 159.81 27.0503C160.79 31.3903 161.5 35.0003 161.39 35.0003Z" fill="#455A64"/>
<path d="M157.58 39.7502C157.58 39.8702 138.37 44.2502 114.58 49.5402C90.7903 54.8302 71.6003 59.0002 71.5703 58.9202C71.5403 58.8402 90.7803 54.4302 114.57 49.1402C138.36 43.8502 157.55 39.6402 157.58 39.7502Z" fill="#455A64"/>
<path d="M107.001 118.88C107.001 118.99 94.0006 121.98 78.0006 125.55C62.0006 129.12 49.0006 131.93 48.9406 131.82C48.8806 131.71 61.8806 128.72 77.9406 125.14C94.0006 121.56 106.941 118.77 107.001 118.88Z" fill="#263238"/>
<path d="M203.68 108C203.68 108.11 169.81 115.76 127.98 125.09C86.1499 134.42 52.1999 141.87 52.1699 141.75C52.1399 141.63 85.9999 134 127.88 124.67C169.76 115.34 203.65 107.88 203.68 108Z" fill="#263238"/>
<path d="M205.761 117.34C205.761 117.45 171.891 125.1 130.061 134.42C88.2308 143.74 54.2808 151.21 54.2608 151.1C54.2408 150.99 88.1208 143.34 130.001 134C171.881 124.66 205.741 117.22 205.761 117.34Z" fill="#263238"/>
<path d="M207.85 126.69C207.85 126.8 173.97 134.45 132.14 143.77C90.3099 153.09 56.3699 160.56 56.3399 160.45C56.3099 160.34 90.2099 152.69 132.05 143.36C173.89 134.03 207.82 126.57 207.85 126.69Z" fill="#263238"/>
<path d="M209.93 136C209.93 136.12 176.06 143.77 134.23 153.09C92.3999 162.41 58.4499 169.91 58.4199 169.8C58.3899 169.69 92.29 162.04 134.13 152.71C175.97 143.38 209.9 135.92 209.93 136Z" fill="#263238"/>
<path d="M212 145.38C212 145.49 178.13 153.14 136.3 162.47C94.47 171.8 60.52 179.26 60.5 179.15C60.48 179.04 94.36 171.38 136.21 162.06C178.06 152.74 212 145.27 212 145.38Z" fill="#263238"/>
<path d="M89.8907 211.18C89.8493 211.077 89.8191 210.97 89.8007 210.86C89.7407 210.63 89.6707 210.34 89.5807 209.97C89.3807 209.16 89.1207 208.04 88.7807 206.63C88.1107 203.74 87.1807 199.68 86.0507 194.82L86.2707 194.95L69.8807 198.64C69.8807 198.69 70.1807 198.17 70.0307 198.39V198.52V198.66L70.0907 198.94L70.2107 199.5C70.3007 199.87 70.3807 200.24 70.4607 200.61C70.6207 201.35 70.7907 202.08 70.9507 202.8C71.2707 204.25 71.5807 205.67 71.8907 207.05C72.4907 209.8 73.0707 212.4 73.5907 214.79L73.3707 214.65L85.2307 212.1L88.5907 211.4L89.4907 211.22H89.8207C89.7308 211.258 89.6368 211.284 89.5407 211.3L88.6807 211.52L85.3807 212.3L73.5207 215H73.3507V214.83L71.6007 207.09C71.2907 205.72 70.9807 204.3 70.6007 202.85C70.4407 202.13 70.2807 201.4 70.1107 200.66C70.0307 200.29 69.9507 199.92 69.8607 199.55L69.7407 198.99L69.6807 198.71V198.57V198.5L69.8407 198.25L86.2507 194.62H86.4307V194.8C87.4907 199.72 88.3707 203.8 89.0007 206.8L89.6907 210.12C89.7607 210.47 89.8207 210.76 89.8607 210.98C89.8752 211.046 89.8852 211.113 89.8907 211.18Z" fill="#263238"/>
<path d="M211.789 170.759L97.374 196.25L99.5008 205.795L213.916 180.305L211.789 170.759Z" fill="#E0E0E0"/>
<path d="M96.2302 239.63C96.1896 239.53 96.1594 239.426 96.1402 239.32L95.9202 238.43C95.7202 237.62 95.4602 236.49 95.1202 235.08C94.4602 232.19 93.5202 228.08 92.4002 223.27L92.6102 223.41L76.2202 227.09C76.2202 227.09 76.5202 226.62 76.3702 226.84V227V227.14L76.4302 227.42L76.5502 227.98C76.6402 228.35 76.7202 228.72 76.8002 229.09C76.9602 229.83 77.1302 230.56 77.2902 231.29C77.6102 232.73 77.9202 234.15 78.2302 235.53C78.8302 238.28 79.4102 240.88 79.9302 243.27L79.7202 243.13L91.5702 240.58L94.9302 239.88L95.8302 239.7L96.1602 239.65C96.1602 239.65 96.0702 239.65 95.8802 239.74L95.0202 239.95L91.7202 240.73L79.7902 243.49H79.6202V243.31C79.0802 240.92 78.4902 238.31 77.8702 235.57C77.5602 234.2 77.2502 232.78 76.8702 231.34C76.7102 230.61 76.5502 229.88 76.3802 229.14C76.3002 228.77 76.2202 228.4 76.1302 228.03L76.0102 227.47L75.9502 227.19V227.05V226.98L76.1102 226.73L92.5102 223.1H92.6902V223.28C93.7502 228.2 94.6302 232.28 95.2602 235.28C95.5502 236.68 95.7902 237.79 95.9502 238.6C96.0202 238.95 96.0802 239.24 96.1202 239.47C96.1606 239.521 96.1974 239.574 96.2302 239.63Z" fill="#263238"/>
<path d="M218.124 199.209L103.709 224.7L105.836 234.246L220.251 208.755L218.124 199.209Z" fill="#E0E0E0"/>
<path d="M102.57 268.08C102.53 267.98 102.499 267.877 102.48 267.77C102.42 267.54 102.35 267.24 102.26 266.88C102.06 266.07 101.8 264.95 101.46 263.54C100.8 260.64 99.8602 256.54 98.7402 251.72L98.9502 251.86L82.5602 255.54L82.7202 255.29V255.34V255.41V255.55L82.7802 255.83L82.9002 256.39C82.9902 256.76 83.0702 257.14 83.1502 257.5C83.3202 258.24 83.4802 258.97 83.6402 259.7C83.9602 261.14 84.2702 262.56 84.5802 263.94C85.1802 266.69 85.7602 269.29 86.2802 271.68L86.0702 271.54L98.0002 269L101.36 268.3L102.26 268.12L102.59 268.06C102.59 268.06 102.5 268.06 102.31 268.15L101.45 268.36L98.1502 269.14L86.2302 271.9L86.0002 272V271.82C85.4602 269.43 84.8702 266.82 84.2502 264.09C83.9502 262.71 83.6302 261.29 83.3002 259.85C83.1402 259.12 82.9802 258.39 82.8102 257.66L82.5702 256.54L82.4402 255.98L82.3802 255.7V255.56V255.49C82.2302 255.71 82.5702 255.18 82.5402 255.23L98.9402 251.61H99.1202V251.78L101.69 263.78C101.98 265.18 102.22 266.3 102.38 267.1C102.45 267.46 102.51 267.74 102.56 267.97C102.565 268.007 102.568 268.044 102.57 268.08V268.08Z" fill="#263238"/>
<path d="M224.459 227.66L110.044 253.15L112.171 262.696L226.586 237.205L224.459 227.66Z" fill="#E0E0E0"/>
<path d="M74.1299 205.3L75.8499 202.6L80.9599 205.44L87.5299 195.52L90.0799 197.27L81.5899 209.77L74.1299 205.3Z" fill="#525882"/>
<path d="M80.2607 232.8L81.9807 230.1L87.0807 232.94L93.6607 223.02L96.2007 224.77L87.7207 237.27L80.2607 232.8Z" fill="#525882"/>
<path d="M86.54 261L88.26 258.3L93.37 261.13L99.94 251.22L102.49 252.97L94 265.47L86.54 261Z" fill="#525882"/>
<path d="M138.91 296.38C138.91 296.49 129.28 298.74 117.34 301.38C105.4 304.02 95.7 306.13 95.67 306C95.64 305.87 105.3 303.64 117.25 301C129.2 298.36 138.89 296.27 138.91 296.38Z" fill="#263238"/>
<path d="M160.461 291.23C157.849 292.03 155.199 292.697 152.521 293.23C149.883 293.894 147.213 294.421 144.521 294.81C147.132 294.01 149.782 293.343 152.461 292.81C155.098 292.146 157.769 291.619 160.461 291.23V291.23Z" fill="#263238"/>
<path d="M231.8 268.78C231.8 268.89 223.13 270.92 212.39 273.32C201.65 275.72 192.91 277.56 192.88 277.45C192.85 277.34 201.55 275.3 212.29 272.91C223.03 270.52 231.77 268.66 231.8 268.78Z" fill="#263238"/>
<path d="M222.51 295.1C222.51 295.1 222.59 294.83 222.7 294.3C222.827 293.53 222.786 292.742 222.58 291.99C222.218 290.805 221.753 289.654 221.19 288.55C220.399 287.076 219.935 285.449 219.83 283.78C219.852 282.756 220.089 281.749 220.525 280.822C220.961 279.895 221.586 279.07 222.36 278.4C223.273 277.648 224.362 277.14 225.525 276.923C226.688 276.706 227.887 276.788 229.01 277.16C230.239 277.54 231.334 278.262 232.17 279.24C232.612 279.768 232.874 280.423 232.92 281.11C232.93 281.479 232.821 281.842 232.611 282.146C232.401 282.45 232.099 282.679 231.75 282.8C231.095 283.009 230.427 283.173 229.75 283.29L227.75 283.7C226.42 283.96 225.05 284.21 223.66 284.39C220.948 284.776 218.196 284.793 215.48 284.44C214.253 284.176 212.971 284.383 211.89 285.02C211.03 285.888 210.3 286.875 209.72 287.95C209.378 288.482 208.897 288.911 208.33 289.19C207.747 289.44 207.092 289.469 206.49 289.27C205.464 288.812 204.489 288.249 203.58 287.59C203.153 287.313 202.673 287.129 202.17 287.05C201.697 287 201.222 287.121 200.83 287.39C200.138 288.025 199.563 288.776 199.13 289.61C198.674 290.325 198.052 290.92 197.318 291.345C196.583 291.77 195.757 292.011 194.91 292.05C193.871 292.083 192.848 291.798 191.975 291.233C191.103 290.669 190.424 289.851 190.03 288.89C189.921 288.634 189.844 288.365 189.8 288.09C189.8 288.09 189.88 288.37 190.1 288.85C190.434 289.556 190.919 290.181 191.52 290.68C192.458 291.479 193.669 291.884 194.9 291.81C195.707 291.764 196.491 291.527 197.187 291.116C197.882 290.705 198.47 290.134 198.9 289.45C199.333 288.574 199.926 287.787 200.65 287.13C201.104 286.811 201.658 286.666 202.21 286.72C202.76 286.794 203.289 286.985 203.76 287.28C204.653 287.92 205.608 288.469 206.61 288.92C207.124 289.093 207.683 289.068 208.18 288.85C208.687 288.591 209.115 288.201 209.42 287.72C210.012 286.613 210.767 285.602 211.66 284.72C212.208 284.321 212.854 284.078 213.53 284.02C214.194 283.945 214.865 283.945 215.53 284.02C218.217 284.37 220.939 284.349 223.62 283.96C224.99 283.78 226.35 283.54 227.68 283.28L229.68 282.87C230.323 282.759 230.957 282.605 231.58 282.41C231.855 282.324 232.094 282.151 232.26 281.916C232.426 281.681 232.511 281.398 232.5 281.11C232.459 280.51 232.228 279.939 231.84 279.48C231.055 278.537 230.013 277.842 228.84 277.48C227.779 277.12 226.644 277.035 225.542 277.235C224.44 277.434 223.407 277.911 222.54 278.62C221.793 279.253 221.187 280.036 220.762 280.918C220.336 281.8 220.101 282.761 220.07 283.74C220.163 285.371 220.603 286.963 221.36 288.41C221.904 289.536 222.349 290.707 222.69 291.91C222.875 292.686 222.875 293.494 222.69 294.27C222.665 294.553 222.604 294.832 222.51 295.1Z" fill="#263238"/>
<path d="M243.18 282.3C243.014 282.371 242.839 282.421 242.66 282.45L241.15 282.82L235.57 284.11C230.86 285.2 224.36 286.74 217.22 288.56C210.08 290.38 203.62 292.11 198.96 293.4L193.44 294.92L191.94 295.32C191.766 295.381 191.585 295.418 191.4 295.43C191.565 295.354 191.736 295.29 191.91 295.24L193.4 294.76C194.69 294.36 196.56 293.76 198.88 293.11C203.52 291.76 209.96 289.97 217.11 288.11C224.26 286.25 230.78 284.8 235.5 283.78C237.87 283.27 239.78 282.88 241.11 282.62L242.64 282.33C242.818 282.298 243 282.288 243.18 282.3V282.3Z" fill="#263238"/>
<path d="M161.155 62.8758L83.4893 80.1792L86.7403 94.7714L164.406 77.468L161.155 62.8758Z" fill="#E0E0E0"/>
</g>
<defs>
<clipPath id="clip0_1201_428">
<rect width="444.35" height="439.13" fill="white"/>
</clipPath>
</defs>
</svg>
