<svg width="70" height="70" viewBox="0 0 70 70" fill="none" xmlns="http://www.w3.org/2000/svg">
<path d="M45.9375 35C45.9375 37.9008 44.7852 40.6828 42.734 42.734C40.6828 44.7852 37.9008 45.9375 35 45.9375C32.0992 45.9375 29.3172 44.7852 27.266 42.734C25.2148 40.6828 24.0625 37.9008 24.0625 35C24.0625 34.3766 24.1281 33.7677 24.2411 33.1771H20.4167V47.7495C20.4167 48.763 21.237 49.5833 22.2505 49.5833H47.7531C48.2389 49.5824 48.7044 49.3887 49.0475 49.0449C49.3906 48.7011 49.5833 48.2352 49.5833 47.7495V33.1771H45.7589C45.8719 33.7677 45.9375 34.3766 45.9375 35ZM35 42.2917C35.9578 42.2914 36.9062 42.1025 37.791 41.7358C38.6758 41.369 39.4796 40.8316 40.1567 40.1542C40.8338 39.4767 41.3709 38.6726 41.7372 37.7876C42.1035 36.9026 42.2919 35.9541 42.2917 34.9964C42.2914 34.0386 42.1025 33.0902 41.7358 32.2054C41.369 31.3206 40.8316 30.5167 40.1542 29.8396C39.4767 29.1625 38.6726 28.6255 37.7876 28.2592C36.9026 27.8929 35.9541 27.7044 34.9964 27.7047C33.062 27.7052 31.2071 28.4741 29.8396 29.8422C28.4722 31.2103 27.7042 33.0656 27.7047 35C27.7052 36.9344 28.4741 38.7893 29.8422 40.1567C31.2103 41.5242 33.0656 42.2922 35 42.2917ZM43.75 27.3438H48.1214C48.4118 27.3438 48.6903 27.2286 48.896 27.0236C49.1017 26.8186 49.2178 26.5404 49.2188 26.25V21.8786C49.2188 21.5876 49.1031 21.3085 48.8973 21.1027C48.6915 20.8969 48.4124 20.7812 48.1214 20.7812H43.75C43.459 20.7812 43.1798 20.8969 42.974 21.1027C42.7682 21.3085 42.6526 21.5876 42.6526 21.8786V26.25C42.6562 26.8516 43.1484 27.3438 43.75 27.3438ZM35 0C25.7174 0 16.815 3.68749 10.2513 10.2513C3.68749 16.815 0 25.7174 0 35C0 44.2826 3.68749 53.185 10.2513 59.7487C16.815 66.3125 25.7174 70 35 70C39.5963 70 44.1475 69.0947 48.3939 67.3358C52.6403 65.5769 56.4987 62.9988 59.7487 59.7487C62.9988 56.4987 65.5769 52.6403 67.3358 48.3939C69.0947 44.1475 70 39.5963 70 35C70 30.4037 69.0947 25.8525 67.3358 21.6061C65.5769 17.3597 62.9988 13.5013 59.7487 10.2513C56.4987 7.00121 52.6403 4.42313 48.3939 2.66422C44.1475 0.905302 39.5963 0 35 0ZM53.2292 49.1786C53.2292 51.4062 51.4062 53.2292 49.1786 53.2292H20.8214C18.5938 53.2292 16.7708 51.4062 16.7708 49.1786V20.8214C16.7708 18.5938 18.5938 16.7708 20.8214 16.7708H49.1786C51.4062 16.7708 53.2292 18.5938 53.2292 20.8214V49.1786Z" fill="#5D8290"/>
</svg>
