<svg width="91" height="60" viewBox="0 0 91 60" fill="none" xmlns="http://www.w3.org/2000/svg">
<rect width="91" height="60" rx="10" fill="white"/>
<path d="M30 30C30 29.558 30.1756 29.134 30.4882 28.8215C30.8007 28.5089 31.2246 28.3333 31.6667 28.3333H54.31L45.4867 19.5133C45.3317 19.3584 45.2088 19.1744 45.1249 18.9719C45.0411 18.7695 44.9979 18.5525 44.9979 18.3333C44.9979 18.1142 45.0411 17.8972 45.1249 17.6947C45.2088 17.4922 45.3317 17.3083 45.4867 17.1533C45.6416 16.9984 45.8256 16.8754 46.0281 16.7916C46.2305 16.7077 46.4475 16.6646 46.6667 16.6646C46.8858 16.6646 47.1028 16.7077 47.3053 16.7916C47.5077 16.8754 47.6917 16.9984 47.8467 17.1533L59.5133 28.82C59.6685 28.9748 59.7917 29.1587 59.8757 29.3612C59.9597 29.5637 60.003 29.7808 60.003 30C60.003 30.2192 59.9597 30.4363 59.8757 30.6388C59.7917 30.8413 59.6685 31.0252 59.5133 31.18L47.8467 42.8467C47.5337 43.1596 47.1093 43.3354 46.6667 43.3354C46.2241 43.3354 45.7996 43.1596 45.4867 42.8467C45.1737 42.5337 44.9979 42.1092 44.9979 41.6667C44.9979 41.2241 45.1737 40.7996 45.4867 40.4867L54.31 31.6667H31.6667C31.2246 31.6667 30.8007 31.4911 30.4882 31.1785C30.1756 30.8659 30 30.442 30 30Z" fill="#51437B"/>
</svg>
