<svg width="50" height="50" viewBox="0 0 50 50" fill="none" xmlns="http://www.w3.org/2000/svg">
<circle cx="25" cy="25" r="25" fill="#525882"/>
<path d="M25 7.5C21.3546 7.5043 17.8597 8.95434 15.282 11.532C12.7044 14.1097 11.2543 17.6046 11.25 21.25C11.2456 24.229 12.2187 27.1272 14.02 29.5C14.02 29.5 14.395 29.9937 14.4563 30.065L25 42.5L35.5488 30.0588C35.6038 29.9925 35.98 29.5 35.98 29.5L35.9813 29.4963C37.7816 27.1245 38.7543 24.2277 38.75 21.25C38.7457 17.6046 37.2957 14.1097 34.718 11.532C32.1403 8.95434 28.6454 7.5043 25 7.5ZM25 26.25C24.0111 26.25 23.0444 25.9568 22.2222 25.4073C21.3999 24.8579 20.7591 24.077 20.3806 23.1634C20.0022 22.2498 19.9032 21.2445 20.0961 20.2745C20.289 19.3046 20.7652 18.4137 21.4645 17.7145C22.1637 17.0152 23.0547 16.539 24.0246 16.3461C24.9945 16.1531 25.9998 16.2522 26.9134 16.6306C27.8271 17.009 28.608 17.6499 29.1574 18.4721C29.7068 19.2944 30 20.2611 30 21.25C29.9984 22.5756 29.471 23.8464 28.5337 24.7837C27.5964 25.721 26.3256 26.2483 25 26.25Z" fill="white"/>
</svg>
