<svg width="80" height="80" viewBox="0 0 80 80" fill="none" xmlns="http://www.w3.org/2000/svg">
<path d="M72.2054 39.6021C70.3018 40.3869 66.4259 41.6596 61.8082 40.7807C53.0163 39.1068 48.8623 31.0265 47.8564 29.0691C44.7526 23.0316 45.0718 17.2406 45.4044 14.571C43.6291 14.1039 41.1019 13.6262 38.0693 13.6813C35.9795 13.7189 25.5165 14.157 18.0846 22.7064C12.2124 29.4609 11.7904 37.1864 11.6896 39.7297C11.2474 50.8412 17.4207 58.4902 19.2545 60.6922C26.7992 69.7508 36.8141 71.7465 39.6027 72.2055C21.7172 72.2055 7 57.4883 7 39.6027C7 21.7172 21.7172 7 39.6027 7C57.4882 7 72.2054 21.7166 72.2054 39.6021Z" fill="url(#paint0_linear_811_162)"/>
<path d="M45.4044 14.5703C48.1419 15.6696 55.1666 18.9192 60.2258 26.644C64.0331 32.4578 64.9685 38.1217 65.2433 41.0756C64.0143 41.0898 62.2625 40.9856 60.2748 40.4118C50.4031 37.5606 46.7194 26.5694 46.3364 25.368C45.6516 23.2197 44.7862 19.4554 45.4044 14.5703Z" fill="url(#paint1_linear_811_162)"/>
<path d="M19.2963 45.6961C19.2963 45.8721 19.3709 46.0173 19.5207 46.1308C19.6705 46.2457 19.8668 46.3418 20.11 46.4204C20.3533 46.499 20.6341 46.5609 20.952 46.6045C21.2698 46.6482 21.5977 46.6966 21.935 46.7497C22.0278 46.7645 22.1024 46.7987 22.1568 46.8525C22.271 46.9647 22.2717 47.1609 22.2724 47.1979C22.2737 47.2557 22.2704 47.2879 22.2683 47.2987C22.2683 47.2987 22.2636 47.3256 22.2475 47.3652C22.2475 47.3652 22.2173 47.4405 22.1608 47.5036C22.0271 47.6535 20.3922 47.5446 20.3922 47.5446C20.3842 47.5439 20.0912 47.5399 19.5052 47.5312C18.6855 47.5191 18.2756 47.513 17.9214 47.5137C17.5082 47.5137 16.9236 47.5211 16.2086 47.5533C16.0783 47.5547 15.9472 47.5567 15.8169 47.5581C15.0616 47.6024 14.5065 47.5755 14.4427 47.4902C14.4138 47.4512 14.3977 47.4082 14.3977 47.4082C14.3742 47.3444 14.3836 47.2866 14.3836 47.2241C14.3836 46.9607 14.477 46.8202 14.6645 46.8021C15.2827 46.6617 15.7685 46.5252 16.1246 46.3935C16.4801 46.2618 16.6575 46.0199 16.6575 45.6685V32.2542C16.6575 32.0526 16.6098 31.8853 16.5137 31.7529C16.4351 31.6434 16.3376 31.5782 16.2227 31.5164C15.9721 31.382 15.7147 31.3087 15.2571 31.2301C14.7296 31.1394 14.5314 31.1434 14.4259 30.9761C14.3742 30.8941 14.348 30.7759 14.3836 30.6731C14.4004 30.6247 14.4817 30.3257 15.1852 30.333C15.536 30.3364 15.8861 30.3404 16.2368 30.3438C16.7892 30.3572 17.3409 30.37 17.8932 30.3834H23.0868C23.7789 30.3572 24.4724 30.3304 25.1645 30.3048C25.2969 30.2914 25.4964 30.2813 25.7356 30.3129C25.9789 30.3438 26.5655 30.4197 26.921 30.8236C27.0728 30.9963 27.136 31.2819 27.2563 31.8476C27.4438 32.7293 27.3221 32.7091 27.4814 33.2319C27.6588 33.8145 27.8792 34.0987 27.724 34.3756C27.7085 34.4018 27.5956 34.5986 27.3826 34.6282C27.2502 34.647 27.1085 34.596 27.0164 34.5073C26.9828 34.475 26.9546 34.436 26.9338 34.3903C26.7086 33.9159 26.4889 33.4993 26.2739 33.1385C26.0582 32.7783 25.8102 32.4705 25.53 32.2159C25.2498 31.9612 24.9165 31.7724 24.5335 31.6494C24.1498 31.5264 23.6674 31.4653 23.0875 31.4653H19.2976L19.2963 45.6961Z" fill="#476977"/>
<path d="M29.0168 38.9025C29.0168 40.3378 28.9456 41.7052 28.8038 43.0055C28.662 44.3057 28.3368 45.4272 27.8281 46.3693C27.5439 46.8927 27.271 47.2623 27.0096 47.4787C26.8188 47.6373 26.5487 47.8167 26.1912 47.8039C25.8021 47.7891 25.3512 47.5358 25.2034 47.0782C25.0059 46.466 25.2646 45.9023 25.8996 45.696C26.3041 45.565 26.6428 45.364 26.9196 45.102C27.1958 44.8406 27.4195 44.467 27.5922 43.9812C27.7643 43.496 27.8872 42.8825 27.9625 42.1427C28.0371 41.4029 28.0747 40.4803 28.0747 39.3742C28.0747 39.135 27.9773 38.959 27.7831 38.8467C27.5889 38.7345 27.3268 38.6485 26.9982 38.5887C26.8638 38.5739 26.7966 38.4919 26.7966 38.3421C26.7966 38.3233 26.7913 38.2668 26.8081 38.1963C26.8121 38.1775 26.8249 38.1224 26.8457 38.0908C26.9095 37.992 27.1145 38.0142 27.1474 38.0182C27.5674 38.0612 30.5052 38.0962 30.733 38.0982C31.6374 38.1062 34.7237 37.9678 34.9032 37.9537C34.9314 37.9517 35.0443 37.9409 35.094 38.0048C35.1088 38.0236 35.1121 38.0397 35.1276 38.1956C35.1397 38.3132 35.139 38.3233 35.139 38.3414C35.139 38.4913 35.0718 38.5733 34.9374 38.588C34.6082 38.6478 34.3091 38.7339 34.041 38.8461C33.7716 38.9583 33.6372 39.1263 33.6372 39.3507V46.2571C33.6372 46.4815 33.7716 46.6495 34.041 46.7617C34.3098 46.8739 34.6088 46.9599 34.9374 47.0197C35.0718 47.0493 35.139 47.14 35.139 47.2892C35.139 47.3369 35.1498 47.3873 35.1276 47.4464C35.1276 47.4464 35.1115 47.4888 35.0812 47.5264C34.9441 47.6924 33.9503 47.5694 33.9503 47.5694C33.6943 47.5378 33.3758 47.5371 32.7394 47.5358C32.1226 47.5345 31.8135 47.5338 31.54 47.5694C31.1892 47.6151 30.4749 47.7421 30.3836 47.5869C30.3473 47.5244 30.3291 47.4464 30.3291 47.4464C30.313 47.3752 30.3177 47.3181 30.3177 47.2892C30.3177 47.14 30.3849 47.0507 30.5193 47.0197C30.8331 46.9599 31.1167 46.8739 31.3713 46.7617C31.6253 46.6495 31.7523 46.4815 31.7523 46.2571V38.9032L29.0168 38.9025Z" fill="#476977"/>
<path d="M44.6675 45.4494C44.7381 45.3694 44.8704 45.2666 45.0035 45.2921C45.1513 45.321 45.2635 45.5139 45.279 45.6812C45.2877 45.7766 45.2743 45.9762 44.7569 46.458C44.5425 46.6575 44.2831 46.892 43.8491 47.142C43.4976 47.3436 43.0978 47.5049 42.6496 47.6238C42.2007 47.7434 41.6853 47.8025 41.1028 47.8025C40.5047 47.8025 39.9369 47.7051 39.3987 47.5116C38.8611 47.3174 38.386 47.0184 37.9748 46.6152C37.5636 46.2114 37.235 45.7107 36.9877 45.1134C36.7404 44.516 36.6174 43.8131 36.6174 43.0061C36.6174 42.2435 36.7632 41.5413 37.0549 40.8989C37.3458 40.2565 37.7235 39.7075 38.1871 39.2512C38.6501 38.7956 39.1628 38.4409 39.7232 38.1862C40.2836 37.9322 40.8252 37.8052 41.3494 37.8052C41.604 37.8052 43.208 37.781 44.3873 39.016C45.5048 40.1859 45.4497 41.6494 45.3516 41.9176C45.2991 42.0607 45.203 42.1554 45.203 42.1554C45.0532 42.3039 44.8577 42.3375 44.7501 42.3463C42.7349 42.4316 40.7197 42.5176 38.7032 42.6029C38.7032 43.1855 38.7852 43.7244 38.9491 44.217C39.1138 44.7102 39.3449 45.1362 39.6439 45.495C39.9423 45.8539 40.3051 46.1341 40.7318 46.3357C41.1585 46.5372 41.6397 46.638 42.1772 46.638C42.6563 46.638 43.1146 46.5258 43.5567 46.3021C43.9982 46.077 44.3678 45.7934 44.6675 45.4494ZM41.0349 38.6102C40.2722 38.6102 39.6856 38.9018 39.275 39.4851C38.8638 40.0677 38.6582 40.8297 38.6582 41.7724C40.8172 41.6911 42.401 41.5923 42.741 41.5245C42.8243 41.5077 43.0084 41.4687 43.1086 41.3188C43.1489 41.2584 43.171 41.1824 43.1798 41.0111C43.1858 40.8935 43.1838 40.6906 43.0985 40.3821C42.9775 39.948 42.7853 39.651 42.6946 39.5187C42.5152 39.2573 42.2874 39.0402 42.0106 38.8682C41.7331 38.6969 41.4085 38.6102 41.0349 38.6102Z" fill="#476977"/>
<path d="M51.4609 38.6553C50.7432 38.6553 50.168 38.9617 49.7339 39.5745C49.3005 40.1873 49.0835 41.0172 49.0835 42.0634C49.0835 43.5135 49.4094 44.6417 50.0592 45.4488C50.709 46.2558 51.5724 46.6596 52.6489 46.6596C53.1273 46.6596 53.5272 46.585 53.8484 46.4352C54.1702 46.286 54.4504 46.1368 54.689 45.987C54.7333 45.9574 54.7857 45.9238 54.8462 45.8862C54.906 45.8492 54.9658 45.8298 55.025 45.8298C55.1634 45.8298 55.2548 45.9615 55.2716 45.987C55.2749 45.9917 55.3462 46.0999 55.3381 46.2376C55.326 46.4298 55.1654 46.5743 54.8912 46.7718C54.5586 47.0111 54.3886 47.124 54.0842 47.2765C53.7704 47.4337 53.4002 47.5601 52.9741 47.6575C52.5481 47.7543 52.0663 47.8033 51.5288 47.8033C50.9153 47.8033 50.3367 47.7025 49.7911 47.5009C49.2454 47.2993 48.767 46.9963 48.3558 46.5931C47.9445 46.1893 47.6193 45.6853 47.3801 45.0799C47.1408 44.4744 47.0212 43.7682 47.0212 42.9612C47.0212 42.1985 47.1664 41.5003 47.458 40.8647C47.749 40.2297 48.1233 39.6874 48.5788 39.2392C49.0344 38.791 49.5431 38.4402 50.1035 38.1856C50.6639 37.9316 51.2136 37.8046 51.7512 37.8046C52.3042 37.8046 52.8048 37.8644 53.253 37.984C53.7019 38.1043 54.0829 38.2608 54.396 38.455C54.4746 38.5034 54.824 38.7332 55.1251 39.1391C55.2689 39.3333 55.3435 39.4892 55.3529 39.6713C55.3569 39.7425 55.363 39.9031 55.2655 40.0496C55.2232 40.1134 55.1446 40.1974 54.8798 40.2942C54.6171 40.3903 54.267 40.5186 53.8356 40.4057C53.722 40.3761 53.5661 40.3352 53.4096 40.2122C53.1818 40.0328 53.1791 39.8561 52.9835 39.5436C52.9043 39.4159 52.7154 39.1646 52.4339 38.9382C52.2047 38.7493 51.8788 38.6553 51.4609 38.6553Z" fill="#476977"/>
<path d="M61.2145 38.6553C60.4968 38.6553 59.9217 38.9617 59.4876 39.5745C59.0542 40.1873 58.8371 41.0172 58.8371 42.0634C58.8371 43.5135 59.163 44.6417 59.8128 45.4488C60.4626 46.2558 61.326 46.6596 62.4025 46.6596C62.8809 46.6596 63.2807 46.585 63.6019 46.4352C63.9238 46.286 64.204 46.1368 64.4425 45.987C64.4869 45.9574 64.5393 45.9238 64.5998 45.8862C64.6596 45.8492 64.7194 45.8298 64.7785 45.8298C64.9169 45.8298 65.0083 45.9615 65.0251 45.987C65.0285 45.9917 65.0997 46.0999 65.0917 46.2376C65.0796 46.4298 64.919 46.5743 64.6448 46.7718C64.3122 47.0111 64.1422 47.124 63.8378 47.2765C63.524 47.4337 63.1537 47.5601 62.7277 47.6575C62.3017 47.7543 61.8199 47.8033 61.2824 47.8033C60.6689 47.8033 60.0903 47.7025 59.5447 47.5009C58.9991 47.2993 58.5206 46.9963 58.1094 46.5931C57.6982 46.1893 57.3729 45.6853 57.1337 45.0799C56.8945 44.4744 56.7749 43.7682 56.7749 42.9612C56.7749 42.1985 56.92 41.5003 57.2117 40.8647C57.5026 40.2297 57.8769 39.6874 58.3325 39.2392C58.7881 38.791 59.2967 38.4402 59.8571 38.1856C60.4176 37.9316 60.9672 37.8046 61.5048 37.8046C62.0578 37.8046 62.5584 37.8644 63.0066 37.984C63.4555 38.1043 63.8364 38.2608 64.1496 38.455C64.2282 38.5034 64.5776 38.7332 64.8786 39.1391C65.0224 39.3333 65.097 39.4892 65.1064 39.6713C65.1105 39.7425 65.1165 39.9031 65.0191 40.0496C64.9768 40.1134 64.8981 40.1974 64.6334 40.2942C64.3707 40.3903 64.0206 40.5186 63.5892 40.4057C63.4756 40.3761 63.3197 40.3352 63.1632 40.2122C62.9354 40.0328 62.9327 39.8561 62.7371 39.5436C62.6578 39.4159 62.469 39.1646 62.1875 38.9382C61.9577 38.7493 61.6324 38.6553 61.2145 38.6553Z" fill="#476977"/>
<defs>
<linearGradient id="paint0_linear_811_162" x1="9.25211" y1="66.5056" x2="65.1174" y2="5.41938" gradientUnits="userSpaceOnUse">
<stop stop-color="#6A737B"/>
<stop offset="0.0627" stop-color="#7C8C91"/>
<stop offset="0.1441" stop-color="#8FA8AB"/>
<stop offset="0.2313" stop-color="#A0BFC0"/>
<stop offset="0.3256" stop-color="#ADD0CF"/>
<stop offset="0.4326" stop-color="#B5DBD9"/>
<stop offset="0.5791" stop-color="#B7DEDC"/>
<stop offset="0.878" stop-color="#BBE2F0"/>
</linearGradient>
<linearGradient id="paint1_linear_811_162" x1="44.1095" y1="13.677" x2="63.0306" y2="41.1176" gradientUnits="userSpaceOnUse">
<stop stop-color="#A6CBDA"/>
<stop offset="1" stop-color="#B3D2CD"/>
</linearGradient>
</defs>
</svg>
