<svg width="50" height="50" viewBox="0 0 50 50" fill="none" xmlns="http://www.w3.org/2000/svg">
<circle cx="25" cy="25" r="25" fill="#525882"/>
<path d="M38.9286 13H11.0714C10.4788 13 10 13.4788 10 14.0714V35.5C10 36.0926 10.4788 36.5714 11.0714 36.5714H38.9286C39.5212 36.5714 40 36.0926 40 35.5V14.0714C40 13.4788 39.5212 13 38.9286 13ZM36.2232 16.6462L25.6596 24.8661C25.3984 25.0703 25.0335 25.0703 24.7723 24.8661L14.2054 16.6462C14.1655 16.6155 14.1363 16.573 14.1218 16.5248C14.1073 16.4767 14.1082 16.4252 14.1245 16.3775C14.1407 16.3299 14.1715 16.2886 14.2124 16.2593C14.2533 16.23 14.3024 16.2143 14.3527 16.2143H36.0759C36.1262 16.2143 36.1753 16.23 36.2162 16.2593C36.2571 16.2886 36.2879 16.3299 36.3041 16.3775C36.3203 16.4252 36.3213 16.4767 36.3068 16.5248C36.2923 16.573 36.263 16.6155 36.2232 16.6462Z" fill="white"/>
</svg>
