<svg width="294" height="307" viewBox="0 0 294 307" fill="none" xmlns="http://www.w3.org/2000/svg">
<g clip-path="url(#clip0_1101_683)">
<path d="M200.31 0.000453421C174.309 0.42439 154.242 21.6919 131.986 35.1872C98.3533 55.5361 55.1825 59.6342 26.7787 86.7661C7.3483 105.349 -2.26093 133.399 0.424004 160.107C3.10894 186.815 17.8054 211.969 39.0729 228.432C52.6389 238.959 68.5365 246.025 84.7874 251.536C101.25 257.118 118.349 261.287 135.73 261.499C159.824 261.781 183.494 254.504 205.256 244.259C220.376 237.122 235.002 228.361 246.943 216.632C258.177 205.539 266.868 191.832 272.733 177.135C287.358 140.818 285.027 99.2723 272.379 62.2485C261.922 31.6544 236.274 -0.635451 200.31 0.000453421Z" fill="#825EEF"/>
<path opacity="0.7" d="M200.31 0.000453421C174.309 0.42439 154.242 21.6919 131.986 35.1872C98.3533 55.5361 55.1825 59.6342 26.7787 86.7661C7.3483 105.349 -2.26093 133.399 0.424004 160.107C3.10894 186.815 17.8054 211.969 39.0729 228.432C52.6389 238.959 68.5365 246.025 84.7874 251.536C101.25 257.118 118.349 261.287 135.73 261.499C159.824 261.781 183.494 254.504 205.256 244.259C220.376 237.122 235.002 228.361 246.943 216.632C258.177 205.539 266.868 191.832 272.733 177.135C287.358 140.818 285.027 99.2723 272.379 62.2485C261.922 31.6544 236.274 -0.635451 200.31 0.000453421Z" fill="white"/>
<path opacity="0.1" d="M216.42 149.791C216.208 144.492 215.854 138.769 215.289 132.904C214.512 121.175 213.028 110.223 210.414 103.37C195.788 100.402 119.55 105.913 119.479 105.913L118.985 103.794C118.914 103.511 118.844 103.229 118.773 102.946L118.42 101.462L118.349 101.109C117.854 99.1305 117.289 97.1521 116.653 95.1737C116.653 95.1737 58.8565 90.0158 39.7087 95.0324C39.7087 95.1737 39.7087 95.3857 39.7087 95.527L39.7793 100.261C39.85 109.446 39.638 117.996 40.1326 127.393V127.464C40.1326 127.464 39.9913 127.464 39.85 127.464C38.2956 127.676 37.0237 128.735 36.5292 130.148C36.3172 130.714 36.2465 131.279 36.3172 131.844L36.5998 134.812C36.5998 134.882 36.5998 134.882 36.5998 134.953C37.3064 142.443 38.0129 149.862 38.0129 149.862C38.0129 149.862 38.3662 149.932 39.0021 149.932L42.1816 150.144C35.3987 150.78 28.0504 159.683 28.4037 167.384C28.6863 175.086 21.3381 189.5 23.1751 197.766C24.5883 204.267 31.8658 214.653 35.3987 222.567C35.328 223.061 35.1867 223.556 35.116 224.121L19.2891 255.846C20.3489 254.291 29.8875 295.766 74.1888 287.005L105.701 235.638C101.815 238.606 105.701 235.638 105.701 235.638C108.74 233.306 112.343 230.198 115.311 226.594C116.653 225.181 117.713 223.768 118.278 222.496C119.409 220.659 120.327 218.681 120.822 216.702C120.963 216.137 121.105 215.642 121.246 215.077C123.789 208.506 127.252 199.603 129.795 193.386C163.004 192.397 197.837 190.347 215.36 186.249C215.36 186.249 215.36 186.249 215.43 186.249C217.126 174.874 217.126 161.944 216.42 149.791ZM45.8558 178.76C45.8558 178.76 45.4318 176.075 45.3612 172.966C45.7144 175.015 46.1384 177.064 46.633 179.042C46.3503 178.972 46.1384 178.901 45.8558 178.76Z" fill="black"/>
<path d="M15.6855 253.937C15.6855 253.937 29.8874 295.907 74.1888 287.075C74.1888 287.075 84.01 240.936 92.2768 234.083C97.576 229.702 109.305 221.859 111.848 216.136C114.392 210.342 124.425 183.422 126.404 180.172C128.382 176.922 105.277 139.545 105.277 139.545L56.5248 164.698L29.4635 212.745C29.4635 212.745 24.3056 243.833 15.6855 253.937Z" fill="white"/>
<path d="M29.0398 216.489C29.0398 216.489 25.5776 242.42 14.1313 255.986" stroke="#263238" stroke-miterlimit="10" stroke-linecap="round" stroke-linejoin="round"/>
<path d="M74.189 287.075C74.189 287.075 83.9395 242.42 92.2769 234.082C92.2769 234.082 111.001 223.201 114.392 210.342C116.724 201.439 120.963 191.194 123.012 186.602" stroke="#263238" stroke-miterlimit="10" stroke-linecap="round" stroke-linejoin="round"/>
<path d="M78.1457 188.015C77.4391 187.592 89.4507 197.201 89.9453 210.343" stroke="#263238" stroke-miterlimit="10" stroke-linecap="round" stroke-linejoin="round"/>
<path d="M208.93 179.961C169.857 189.146 44.0894 187.945 44.0894 187.945C43.0295 185.684 41.7577 180.102 40.4859 173.602C38.0129 160.53 35.6813 143.855 35.6813 143.855L31.5126 143.573C31.5126 143.573 30.806 136.154 30.0995 128.664C29.3929 121.175 33.6323 121.175 33.6323 121.175L33.3496 95.1734L33.279 88.673C52.4268 83.6564 110.223 88.8143 110.223 88.8143L112.061 95.1027L113.05 99.5541L203.984 97.0105C212.322 118.49 208.93 179.961 208.93 179.961Z" fill="#92E3A9"/>
<path d="M194.304 138.203L134.741 141.029C132.268 141.171 130.219 139.263 130.078 136.79L129.513 124.708C129.371 122.235 131.279 120.186 133.752 120.045L193.315 117.218C195.788 117.077 197.837 118.985 197.978 121.458L198.544 133.54C198.614 136.013 196.707 138.133 194.304 138.203Z" fill="#263238"/>
<path d="M198.756 145.904L198.968 147.883L130.29 150.568V148.731L198.756 145.904Z" fill="#263238"/>
<path d="M199.109 152.899L199.18 154.666L130.502 157.209V155.443L199.109 152.899Z" fill="#263238"/>
<path opacity="0.3" d="M203.984 96.9396C203.984 96.9396 214.088 144.986 209.001 179.961C209.001 179.961 144.916 187.45 123.012 186.249L122.094 174.591L123.931 174.308C123.931 174.308 115.099 107.538 113.05 99.4832C113.05 99.4832 189.358 93.9014 203.984 96.9396Z" fill="black"/>
<path opacity="0.8" d="M119.904 174.379L120.681 183.211C120.681 183.211 56.1011 186.037 50.4486 183.988C44.7961 181.939 50.7312 178.618 65.781 177.488C80.7601 176.287 119.904 174.379 119.904 174.379Z" fill="white"/>
<path d="M81.396 136.931C84.6739 136.931 87.3312 134.527 87.3312 131.561C87.3312 128.596 84.6739 126.191 81.396 126.191C78.1182 126.191 75.4609 128.596 75.4609 131.561C75.4609 134.527 78.1182 136.931 81.396 136.931Z" fill="#263238"/>
<path d="M35.752 143.856C37.2357 159.4 39.7087 172.966 44.0894 187.945C71.5039 187.733 98.8478 187.38 126.262 186.532C153.677 185.684 181.798 183.776 208.93 179.961C208.93 179.961 213.805 137.002 203.913 96.9399C193.032 94.6789 113.262 99.4836 113.262 99.4836" stroke="#263238" stroke-miterlimit="10" stroke-linecap="round" stroke-linejoin="round"/>
<path d="M119.904 174.379L120.681 183.211L59.2099 184.624C56.6663 184.836 52.7096 185.189 50.3779 183.988C49.3181 183.423 48.5409 182.08 49.0355 181.02C49.4594 180.031 50.6605 179.678 51.7204 179.466C59.2099 177.911 66.9114 177.276 74.5423 176.71C90.9345 175.509 107.327 174.661 123.79 174.237C123.436 174.237 119.409 141.17 118.985 138.132C117.219 126.191 115.593 114.18 113.474 102.309C112.626 97.7168 111.637 93.1948 110.153 88.7435C84.8581 86.9064 58.3621 85.2813 33.2085 88.6022C33.4205 99.8365 32.9965 109.799 33.5618 121.033" stroke="#263238" stroke-miterlimit="10" stroke-linecap="round" stroke-linejoin="round"/>
<path d="M43.1708 184.623C43.1708 184.623 42.9588 184.058 42.8882 183.21" stroke="#263238" stroke-linecap="round" stroke-linejoin="round"/>
<path d="M43.312 180.526C44.2305 178.194 47.0568 175.509 54.7583 174.661C68.7482 173.107 99.201 170.28 117.077 169.645" stroke="#263238" stroke-linecap="round" stroke-linejoin="round" stroke-dasharray="3.91 3.91"/>
<path d="M118.419 169.574C118.914 169.574 119.338 169.574 119.833 169.503C119.762 169.008 119.691 168.584 119.621 168.09" stroke="#263238" stroke-linecap="round" stroke-linejoin="round"/>
<path d="M119.267 165.405C116.017 142.301 112.484 119.338 108.386 96.3037" stroke="#263238" stroke-linecap="round" stroke-linejoin="round" stroke-dasharray="3.88 3.88"/>
<path d="M108.174 94.9613C108.104 94.4667 108.033 94.0428 107.892 93.5482C107.892 93.5482 107.397 93.4775 106.479 93.4775" stroke="#263238" stroke-linecap="round" stroke-linejoin="round"/>
<path d="M103.652 93.2652C91.9234 92.488 58.5031 90.5096 36.1758 92.064" stroke="#263238" stroke-linecap="round" stroke-linejoin="round" stroke-dasharray="4.07 4.07"/>
<path d="M34.7627 92.2051C34.2681 92.2757 33.8442 92.2757 33.3496 92.3464" stroke="#263238" stroke-linecap="round" stroke-linejoin="round"/>
<path d="M31.5833 143.502L29.8875 125.485C29.6755 123.224 31.3713 121.175 33.7029 121.034C44.0894 120.468 70.9387 119.055 81.2545 119.833C86.2004 120.256 91.5703 121.811 93.9726 126.545C95.951 130.431 96.2336 136.295 92.9128 139.475C87.8255 144.35 78.1456 143.997 71.6453 144.209C59.4218 144.774 31.5833 143.644 31.5833 143.502Z" stroke="#263238" stroke-miterlimit="10" stroke-linecap="round" stroke-linejoin="round"/>
<path d="M95.4567 132.551C95.4567 132.056 98.0003 142.866 88.603 146.47C79.2058 150.073 35.6816 148.943 35.6816 148.943V143.856C35.6816 143.856 66.417 144.491 71.5749 144.35C76.7328 144.209 94.8914 145.905 95.4567 132.551Z" fill="#263238"/>
<path d="M86.4126 193.174C86.4126 193.174 94.1141 197.696 97.011 206.104" stroke="#263238" stroke-miterlimit="10" stroke-linecap="round" stroke-linejoin="round"/>
<path d="M30.0996 123.789C30.0996 123.789 67.83 122.022 77.3685 122.305C86.9778 122.658 91.6411 124.707 92.6303 130.713C93.6194 136.719 87.755 140.464 83.1623 141.17C78.499 141.806 31.5834 142.089 31.5834 142.089" stroke="#263238" stroke-miterlimit="10" stroke-linecap="round" stroke-linejoin="round" stroke-dasharray="4 4"/>
<path d="M56.0305 196.635C56.0305 196.635 50.1661 176.357 39.4264 172.4C39.4264 172.4 37.3067 158.552 41.8993 157.775C46.492 156.997 59.422 148.519 56.0305 137.85C52.6391 127.18 42.5352 143.219 35.7523 143.785C28.9693 144.421 21.621 153.323 21.9037 161.025C22.1863 168.726 14.8381 183.14 16.6751 191.407C18.5122 199.674 29.8878 214.441 30.8063 222.142" fill="white"/>
<path d="M56.0305 196.635C56.0305 196.635 50.1661 176.357 39.4264 172.4C39.4264 172.4 37.3067 158.552 41.8993 157.775C46.492 156.997 59.422 148.519 56.0305 137.85C52.6391 127.18 42.5352 143.219 35.7523 143.785C28.9693 144.421 21.621 153.323 21.9037 161.025C22.1863 168.726 14.8381 183.14 16.6751 191.407C18.5122 199.674 29.8878 214.441 30.8063 222.142" stroke="#263238" stroke-miterlimit="10" stroke-linecap="round" stroke-linejoin="round"/>
<path d="M41.8286 140.676C41.8286 140.676 49.8834 142.16 54.3347 137.002C58.7154 131.844 53.6988 131.562 53.6988 131.562L41.8286 140.676Z" fill="white" stroke="#263238" stroke-miterlimit="10" stroke-linecap="round" stroke-linejoin="round"/>
<path d="M27.415 152.122C28.8988 152.193 30.3119 152.687 31.5837 153.465" stroke="#263238" stroke-miterlimit="10" stroke-linecap="round" stroke-linejoin="round"/>
<path d="M27.2026 155.09C28.6864 155.231 30.0995 155.796 31.23 156.715" stroke="#263238" stroke-miterlimit="10" stroke-linecap="round" stroke-linejoin="round"/>
<path d="M49.0356 182.221C49.0356 182.221 83.6571 180.455 92.7718 180.95" stroke="#263238" stroke-miterlimit="10" stroke-linecap="round" stroke-linejoin="round"/>
<path d="M84.293 178.335C84.293 178.335 92.9837 177.629 98.4242 178.335" stroke="#263238" stroke-miterlimit="10" stroke-linecap="round" stroke-linejoin="round"/>
<path d="M106.408 180.879H120.469" stroke="#263238" stroke-miterlimit="10" stroke-linecap="round" stroke-linejoin="round"/>
<path d="M114.887 103.44C114.887 103.44 176.781 97.9287 201.652 101.038C201.652 101.038 208.365 113.402 206.881 176.64C206.881 176.64 166.607 182.221 122.588 182.928" stroke="#263238" stroke-miterlimit="10" stroke-linecap="round" stroke-linejoin="round" stroke-dasharray="4 4"/>
<g opacity="0.1">
<path opacity="0.1" d="M282.554 190.983C280.787 183.494 278.244 180.667 275.629 178.548C275.629 178.548 275.559 174.308 272.238 171.906C271.39 171.129 270.401 170.493 269.412 169.786C266.303 167.455 262.841 164.84 262.841 164.84C261.216 160.177 259.025 154.525 256.694 148.943L256.835 150.215C254.433 144.35 252.03 138.415 251.394 136.507C251.394 136.507 251.394 136.507 251.394 136.437C252.101 138.344 252.807 140.111 253.585 141.807L244.753 110.506C244.541 109.234 244.329 108.033 244.117 106.832C243.693 103.299 242.562 96.6573 239.736 96.1628C239.665 96.1628 239.524 96.1628 239.453 96.1628C239.453 96.1628 236.203 94.7496 236.203 100.543C232.317 101.815 230.833 104.783 230.41 108.245C230.198 109.234 230.198 110.365 230.339 111.566C230.409 112.838 230.551 114.18 230.763 115.452L218.257 98.989L217.056 97.3639L201.582 77.015L180.809 49.671C177.559 45.361 171.482 44.5838 167.172 47.834L141.312 67.4057L131.208 75.0366C123.507 79.064 125.485 86.9775 127.676 89.8037L172.683 149.014C172.26 148.943 171.977 149.014 171.977 149.014C171.977 149.014 170.705 145.975 167.526 146.47C166.89 146.47 166.254 146.682 165.618 147.106C165.123 147.388 164.699 147.742 164.346 148.236C163.993 148.59 163.71 149.084 163.428 149.579C161.802 152.334 163.286 159.117 165.618 167.384C165.759 167.949 165.9 168.444 166.042 168.939V169.009C166.254 169.716 166.466 170.352 166.678 171.058C168.939 178.972 173.249 194.587 174.026 202.218C174.097 202.924 174.097 203.701 174.167 204.408C174.238 213.24 170.281 227.936 171.977 234.013C172.189 234.79 172.401 235.567 172.683 236.344C173.955 240.442 175.086 244.258 176.993 248.073C179.396 252.737 182.222 257.188 184.907 261.71C189.782 269.977 194.869 278.173 200.098 286.298C202.5 290.043 205.327 293.435 208.082 296.897C209.354 298.522 212.039 300.924 212.533 302.973C212.533 302.973 236.698 304.951 250.264 296.402L248.992 277.184L258.036 224.969C260.65 221.012 268.634 213.381 270.26 210.908C271.107 209.707 271.885 208.506 272.662 207.305C278.668 201.723 281.635 197.413 282.907 192.396C282.836 192.538 282.766 191.902 282.554 190.983ZM198.826 202.43L198.685 202.218C199.815 202.783 202.5 203.843 206.457 204.479C203.631 204.125 200.451 203.631 198.826 202.43ZM209.001 204.761C209.425 204.832 209.849 204.832 210.273 204.832C209.919 204.832 209.495 204.761 209.001 204.761ZM198.544 201.864L196.919 198.614C194.658 192.114 189.57 176.852 189.5 176.781C189.5 176.781 188.157 170.493 185.543 163.922C187.875 164.77 190.63 164.417 192.75 162.791L205.115 153.394C206.386 154.171 207.729 154.878 209.001 155.443L220.588 164.487L211.403 202.218L198.544 201.864ZM245.389 114.887C246.378 119.409 247.862 125.909 249.911 132.197C248.356 127.675 246.519 121.528 245.389 114.887Z" fill="black"/>
<path opacity="0.1" d="M192.962 296.331L193.033 296.684C193.033 296.684 192.962 296.543 192.962 296.331Z" fill="black"/>
</g>
<path d="M235.85 116.3C236.557 115.805 246.943 110.223 252.101 127.11C257.259 143.997 263.406 172.825 263.406 172.825L251.112 175.227C251.112 175.227 239.665 169.15 229.491 153.959C229.491 153.959 215.148 150.215 208.93 141.383C203.278 133.328 220.73 103.864 220.73 103.864L235.85 116.3Z" fill="white"/>
<path d="M231.398 137.355C234.437 141.948 240.23 151.557 248.003 154.596" stroke="#263238" stroke-miterlimit="10" stroke-linecap="round" stroke-linejoin="round"/>
<path d="M222.779 142.23C224.192 142.796 227.725 144.845 229.42 144.915C229.42 144.915 236.627 159.188 248.498 163.781" stroke="#263238" stroke-miterlimit="10" stroke-linecap="round" stroke-linejoin="round"/>
<path d="M216.208 147.529C220.659 151.203 225.887 153.747 229.42 153.888C229.42 153.888 236.627 168.161 248.497 172.754" stroke="#263238" stroke-miterlimit="10" stroke-linecap="round" stroke-linejoin="round"/>
<path d="M242.633 127.958L203.56 157.633C200.169 160.177 195.364 159.541 192.75 156.149L138.486 84.7162C135.942 81.3247 136.578 76.5201 139.97 73.9058L179.043 44.2302C182.434 41.6866 187.239 42.3225 189.853 45.714L244.117 117.147C246.661 120.539 246.025 125.414 242.633 127.958Z" fill="#263238"/>
<path d="M241.503 126.403L205.609 153.676C201.299 156.927 195.223 156.079 191.973 151.839L140.182 83.5856C139.334 82.4551 138.769 81.1833 138.415 79.8408C137.567 76.2374 138.91 72.3513 142.019 69.949L152.123 62.3181L177.912 42.7464C182.222 39.4962 188.299 40.3441 191.549 44.5834L212.322 71.9273L227.795 92.2763L243.34 112.767C246.59 117.077 245.742 123.153 241.503 126.403Z" fill="#92E3A9"/>
<path opacity="0.1" d="M212.322 71.9277L152.123 62.2478L177.912 42.6761C182.222 39.4259 188.298 40.2738 191.549 44.5131L212.322 71.9277Z" fill="black"/>
<path opacity="0.1" d="M241.503 126.403L205.609 153.676C201.299 156.927 195.223 156.079 191.973 151.839L140.182 83.5856C139.334 82.4551 138.769 81.1833 138.416 79.8408L228.997 93.9014L243.34 112.767C246.59 117.077 245.742 123.153 241.503 126.403Z" fill="black"/>
<path d="M194.163 64.2972L187.804 69.1018C186.532 70.091 184.766 69.8083 183.777 68.5365L176.075 58.4327C175.086 57.1609 175.369 55.3945 176.641 54.4053L183 49.6007C184.271 48.6115 186.038 48.8941 187.027 50.1659L194.729 60.2698C195.647 61.5416 195.435 63.308 194.163 64.2972Z" fill="white" stroke="#263238" stroke-miterlimit="10" stroke-linecap="round" stroke-linejoin="round"/>
<path d="M179.961 51.9316L190.913 66.7694" stroke="#263238" stroke-miterlimit="10" stroke-linecap="round" stroke-linejoin="round"/>
<path d="M179.961 63.5197L190.913 55.2529" stroke="#263238" stroke-miterlimit="10" stroke-linecap="round" stroke-linejoin="round"/>
<path d="M201.158 149.225L199.25 150.568L176.499 120.609L178.336 119.196L201.158 149.225Z" fill="#263238"/>
<path d="M204.267 146.894L202.43 148.237L179.679 118.278L181.516 116.865L204.267 146.894Z" fill="#263238"/>
<path d="M207.447 144.562L205.61 145.905L182.788 115.876L184.625 114.463L207.447 144.562Z" fill="#263238"/>
<path d="M210.626 142.23L208.718 143.573L186.25 113.968L188.087 112.555L210.626 142.23Z" fill="#263238"/>
<path d="M214.017 139.687L212.18 141.1L189.57 111.354L191.407 110.012L214.017 139.687Z" fill="#263238"/>
<path d="M214.017 104.782L212.18 106.125L189.57 76.4493L191.407 75.0361L214.017 104.782Z" fill="#263238"/>
<path d="M164.838 52.6709L161.969 54.8506L225.523 138.514L228.392 136.335L164.838 52.6709Z" fill="#263238"/>
<path d="M241.503 126.403L205.609 153.676C201.299 156.927 195.223 156.079 191.973 151.839L140.182 83.5856C139.334 82.4551 138.769 81.1833 138.415 79.8408C137.567 76.2374 138.91 72.3513 142.019 69.949L152.123 62.3181L177.912 42.7464C182.222 39.4962 188.299 40.3441 191.549 44.5834L212.322 71.9273L227.795 92.2763L243.34 112.767C246.59 117.077 245.742 123.153 241.503 126.403Z" stroke="#263238" stroke-miterlimit="10" stroke-linecap="round" stroke-linejoin="round"/>
<path d="M212.463 303.114C212.463 303.114 254.221 317.952 266.797 285.662C266.797 285.662 247.014 261.639 257.824 241.997C264.607 229.632 283.402 202.359 283.402 202.359C283.402 202.359 291.244 194.94 293.647 187.45C293.647 187.45 292.304 179.113 286.369 173.46C286.369 173.46 286.298 169.221 282.978 166.819C279.657 164.416 273.58 159.753 273.58 159.753C273.58 159.753 263.618 135.801 262.134 131.42C260.65 127.039 257.683 118.914 256.199 109.87C254.715 100.826 253.302 91.0754 250.193 91.146C250.193 91.146 246.943 89.7329 246.943 95.5267C246.943 95.5267 240.089 99.0595 241.079 106.549C242.068 114.039 243.057 117.854 242.774 122.093C242.492 126.333 243.834 140.888 247.226 145.481C247.226 145.481 248.356 165.971 250.052 171.341C250.123 171.482 250.123 171.623 250.193 171.765C251.96 176.287 234.154 193.739 224.545 198.402C224.545 198.402 223.556 200.31 219.811 199.744C216.066 199.25 209.778 198.967 208.647 196.212C207.588 193.456 200.31 171.835 200.31 171.835C200.31 171.835 194.446 144.067 182.787 144.067C182.787 144.067 181.021 139.828 176.428 142.16C171.836 144.491 174.874 157.139 176.852 163.992C178.901 170.917 183.988 189.075 184.836 197.413C185.684 205.75 180.95 222.496 182.787 229.067C184.624 235.638 186.532 240.089 192.255 250.899C197.837 261.569 210.414 293.717 212.463 303.114Z" fill="white"/>
<path d="M212.463 303.115C212.463 303.115 203.56 269.482 190.418 247.791C177.276 226.029 184.978 218.327 184.978 200.239C184.978 182.151 170.211 151.345 174.238 144.562C178.195 137.779 183.635 143.22 185.896 149.508C188.157 155.867 184.978 159.471 178.619 159.895" stroke="#263238" stroke-miterlimit="10" stroke-linecap="round" stroke-linejoin="round"/>
<path d="M182.717 143.927C182.717 143.927 190.348 143.432 195.011 155.656C199.674 167.808 207.164 198.756 215.007 208.153" stroke="#263238" stroke-miterlimit="10" stroke-linecap="round" stroke-linejoin="round"/>
<path d="M208.859 196.706C208.93 196.777 219.74 202.853 236.627 197.554" stroke="#263238" stroke-miterlimit="10" stroke-linecap="round" stroke-linejoin="round"/>
<path d="M184.201 179.678C185.896 177.558 188.723 176.499 191.337 176.993" stroke="#263238" stroke-miterlimit="10" stroke-linecap="round" stroke-linejoin="round"/>
<path d="M185.614 183.493C187.027 181.727 189.57 180.879 191.761 181.515" stroke="#263238" stroke-miterlimit="10" stroke-linecap="round" stroke-linejoin="round"/>
<path d="M246.873 95.4561C235.78 99.1302 244.046 115.876 242.704 122.023C241.361 128.099 244.823 139.828 247.508 146.187C247.508 153.606 250.193 171.694 250.193 171.694C248.568 177.417 234.861 194.375 221.578 199.674" stroke="#263238" stroke-miterlimit="10" stroke-linecap="round" stroke-linejoin="round"/>
<path d="M255.069 103.864C255.069 103.864 254.221 91.0752 250.194 91.0752C246.166 91.0752 246.378 99.6952 248.074 106.125C249.77 112.484 256.27 111.565 255.069 103.864Z" stroke="#263238" stroke-miterlimit="10" stroke-linecap="round" stroke-linejoin="round"/>
<path d="M255.069 103.864C255.069 103.864 258.531 124.001 264.395 136.719" stroke="#263238" stroke-miterlimit="10" stroke-linecap="round" stroke-linejoin="round"/>
<path d="M271.249 183.917C274.075 179.325 275.347 175.015 276.407 169.504C276.124 166.041 272.167 154.737 267.575 143.855" stroke="#263238" stroke-miterlimit="10" stroke-linecap="round" stroke-linejoin="round"/>
<path d="M274.004 160.742C278.597 164.204 286.581 166.819 285.663 172.824C284.815 178.406 282.624 184.271 279.516 189.711" stroke="#263238" stroke-miterlimit="10" stroke-linecap="round" stroke-linejoin="round"/>
<path d="M267.787 287.075C267.787 287.075 251.818 264.889 254.998 249.557C257.33 238.323 272.45 218.61 283.331 202.288C289.337 196.706 292.304 192.396 293.576 187.38C291.668 177.912 288.56 175.227 285.592 172.754" stroke="#263238" stroke-miterlimit="10" stroke-linecap="round" stroke-linejoin="round"/>
<path d="M272.097 164.416C268.564 163.427 264.607 163.922 261.428 165.9" stroke="#263238" stroke-miterlimit="10" stroke-linecap="round" stroke-linejoin="round"/>
<path d="M271.178 168.161C269.058 167.808 266.797 168.232 264.89 169.292" stroke="#263238" stroke-miterlimit="10" stroke-linecap="round" stroke-linejoin="round"/>
</g>
<defs>
<clipPath id="clip0_1101_683">
<rect width="294" height="306.506" fill="white"/>
</clipPath>
</defs>
</svg>
