<svg width="294" height="266" viewBox="0 0 294 266" fill="none" xmlns="http://www.w3.org/2000/svg">
<g clip-path="url(#clip0_1101_428)">
<path d="M53.3707 130.717C43.5949 143.862 25.0341 146.57 11.9557 136.794C-1.18876 127.018 -3.89692 108.457 5.87886 95.379C15.6546 82.2346 34.2154 79.5264 47.2938 89.3022C47.2938 89.3022 47.3599 89.3022 47.3599 89.3683C60.4383 99.078 63.1464 117.639 53.3707 130.717Z" fill="#EBEBEB"/>
<path d="M47.7564 126.49C40.3585 136.464 26.2232 138.578 16.1832 131.18C6.20931 123.782 4.09563 109.647 11.4935 99.6066C18.8914 89.6327 33.0266 87.519 43.0666 94.9169C43.0666 94.9169 43.0666 94.9169 43.1327 94.9169C53.1066 102.381 55.1542 116.516 47.7564 126.49Z" fill="#F5F5F5"/>
<path d="M48.1525 125.896C48.0204 125.83 48.5488 124.971 49.2754 123.386C50.3322 121.14 50.9928 118.762 51.323 116.318C51.7854 112.686 51.323 108.987 50.068 105.618C49.6717 104.627 49.2754 103.702 48.747 102.778C48.2186 101.853 47.6241 100.928 46.9636 100.069C46.303 99.1447 45.5104 98.3521 44.7178 97.5595C43.0664 95.9742 41.1509 94.5871 39.0372 93.5963C37.0557 92.6055 34.8759 91.945 32.6962 91.6147C31.6393 91.4826 30.6486 91.3505 29.5917 91.3505C27.6762 91.3505 25.6946 91.5487 23.8451 92.0111C22.1938 92.4074 20.6086 93.0679 19.0894 93.7945C16.9096 94.9174 14.862 96.4366 13.1446 98.154C11.8896 99.409 11.2951 100.202 11.163 100.136C11.0309 100.069 11.4933 99.1447 12.6162 97.7576C14.2675 95.7761 16.2491 94.0587 18.4949 92.7376C21.8636 90.8221 25.6946 89.7653 29.5917 89.6992C31.9036 89.6992 34.2154 90.0295 36.3951 90.69C37.5841 91.0203 38.707 91.4826 39.8299 92.0111C40.9528 92.5395 42.0096 93.2 43.0664 93.9266C44.0572 94.6532 45.048 95.4458 45.9728 96.3045C46.8314 97.1632 47.6241 98.0879 48.3507 99.0787C49.7378 100.928 50.7946 102.976 51.5872 105.156C52.9083 108.788 53.2385 112.752 52.578 116.583C52.1817 119.159 51.257 121.603 49.9359 123.782C48.9451 125.236 48.2186 125.962 48.1525 125.896Z" fill="#525882"/>
<path d="M23.6468 125.302L21.335 128.472L18.4947 126.425L20.7405 123.32C18.0324 121.074 15.9847 118.3 15.3242 115.922L19.4195 113.61C20.2121 115.922 21.5992 118.036 23.4487 119.621L26.8834 114.865C24.3074 111.827 21.5332 108.194 24.4395 104.165C26.6192 101.126 30.7145 100.136 35.5363 102.91L37.8481 99.7393L40.6884 101.787L38.4426 104.891C40.4242 106.477 41.9434 108.524 42.9342 110.836L38.971 113.28C38.1784 111.563 37.0555 109.977 35.6684 108.656L32.1676 113.478C34.8097 116.517 37.5179 120.083 34.6116 124.047C32.4979 127.019 28.4687 128.01 23.6468 125.302ZM29.9218 110.704L32.8282 106.675C31.0447 105.948 29.8558 106.345 29.1953 107.269C28.5347 108.128 28.931 109.383 29.9218 110.704ZM29.8558 121.074C30.5824 120.083 30.12 118.961 29.2613 117.64L26.4211 121.537C28.0063 122.263 29.1953 121.933 29.8558 121.074Z" fill="#525882"/>
<path d="M231.184 214.802C222.729 226.163 206.612 228.541 195.251 220.086C183.89 211.632 181.513 195.515 189.967 184.154C198.422 172.793 214.539 170.415 225.9 178.87C225.9 178.87 225.966 178.87 225.966 178.936C237.327 187.39 239.639 203.441 231.184 214.802Z" fill="#EBEBEB"/>
<path d="M226.296 211.17C219.823 219.823 207.537 221.606 198.884 215.199C190.232 208.726 188.448 196.44 194.855 187.787C201.328 179.134 213.614 177.351 222.267 183.758C222.267 183.758 222.267 183.758 222.333 183.758C230.986 190.231 232.769 202.517 226.296 211.17Z" fill="#F5F5F5"/>
<path d="M226.626 210.641C226.56 210.575 226.957 209.849 227.617 208.461C228.542 206.546 229.136 204.432 229.401 202.319C229.599 200.865 229.599 199.412 229.467 197.893C229.269 196.242 228.938 194.59 228.344 193.005C228.014 192.146 227.617 191.354 227.221 190.561C226.759 189.703 226.23 188.91 225.702 188.183C225.107 187.391 224.447 186.664 223.72 186.004C222.994 185.277 222.201 184.683 221.408 184.088C220.55 183.494 219.691 183.031 218.832 182.569C217.115 181.71 215.265 181.182 213.35 180.852C212.425 180.719 211.566 180.653 210.642 180.653C208.99 180.653 207.273 180.852 205.622 181.248C204.169 181.644 202.847 182.173 201.526 182.833C199.611 183.824 197.894 185.079 196.374 186.598C195.317 187.655 194.723 188.381 194.657 188.249C194.591 188.183 194.987 187.391 195.912 186.202C197.299 184.484 199.082 182.965 200.998 181.842C202.319 181.05 203.772 180.455 205.291 179.993C207.009 179.464 208.792 179.2 210.642 179.2C211.632 179.2 212.557 179.266 213.548 179.398C214.539 179.53 215.53 179.729 216.52 180.059C217.511 180.389 218.502 180.719 219.493 181.182C221.474 182.107 223.258 183.362 224.843 184.881C225.57 185.607 226.296 186.4 226.957 187.259C227.551 188.051 228.08 188.91 228.608 189.835C229.07 190.693 229.467 191.552 229.797 192.477C230.391 194.194 230.788 195.978 230.854 197.761C230.986 199.346 230.854 200.865 230.59 202.451C230.193 204.696 229.401 206.81 228.278 208.726C227.353 210.047 226.692 210.707 226.626 210.641Z" fill="#525882"/>
<path d="M205.358 210.113L203.376 212.887L200.932 211.103L202.914 208.395C200.602 206.48 198.819 204.036 198.224 201.988L201.791 199.941C202.518 201.922 203.706 203.772 205.292 205.159L208.264 201.063C206.018 198.421 203.64 195.317 206.15 191.75C208.066 189.108 211.567 188.249 215.794 190.627L217.776 187.919L220.22 189.702L218.238 192.411C219.955 193.798 221.276 195.515 222.135 197.563L218.7 199.676C218.04 198.157 217.049 196.77 215.86 195.647L212.822 199.874C215.067 202.517 217.445 205.555 214.935 209.056C213.086 211.566 209.585 212.424 205.358 210.113ZM210.84 197.431L213.35 193.93C211.831 193.269 210.774 193.599 210.18 194.458C209.585 195.251 209.981 196.308 210.84 197.431ZM210.774 206.414C211.435 205.555 211.038 204.564 210.246 203.441L207.802 206.81C209.189 207.471 210.18 207.206 210.774 206.414Z" fill="#525882"/>
<path d="M75.8285 38.244C74.1772 47.4253 65.3922 53.5021 56.2109 51.8508C47.0296 50.1995 40.9527 41.3484 42.6041 32.1671C44.2554 22.9858 53.1064 16.909 62.2217 18.6263C62.2217 18.6263 62.2217 18.6263 62.2877 18.6263C71.469 20.3437 77.5459 29.1287 75.8285 38.244Z" fill="#EBEBEB"/>
<path d="M71.8653 37.5171C70.6103 44.5187 63.8729 49.1424 56.8713 47.8213C49.8698 46.5663 45.2461 39.829 46.5671 32.8274C47.8221 25.8258 54.5595 21.2021 61.5611 22.5232C61.5611 22.5232 61.5611 22.5232 61.6271 22.5232C68.5626 23.8442 73.1863 30.5816 71.8653 37.5171Z" fill="#F5F5F5"/>
<path d="M71.9312 37.1208C71.8652 36.5924 71.8652 36.064 71.8652 35.5355C71.8652 34.1484 71.601 32.6953 71.1386 31.3742C70.8083 30.4495 70.412 29.5908 69.8836 28.7321C69.2891 27.8074 68.5626 26.9487 67.7699 26.1561C67.3076 25.7598 66.8452 25.3634 66.3828 25.0332C65.8544 24.7029 65.326 24.3727 64.7976 24.1084C64.2031 23.8442 63.6086 23.58 63.0141 23.3819C62.3536 23.1837 61.7591 23.0516 61.0986 22.9195C60.4381 22.8534 59.7776 22.7874 59.117 22.7874C58.4565 22.7874 57.862 22.8534 57.2015 22.9195C56.607 22.9856 56.0126 23.1837 55.4181 23.3158C54.8236 23.514 54.2952 23.7121 53.7668 23.9763C51.9173 24.9011 50.266 26.2221 49.011 27.9395C48.1523 29.0624 47.4918 30.3174 47.0294 31.7045C46.8973 32.2329 46.7652 32.6953 46.501 33.2237C46.435 32.6953 46.501 32.1669 46.6331 31.6384C46.9634 30.1853 47.5579 28.8642 48.4165 27.6092C49.6715 25.7598 51.3228 24.3066 53.3044 23.3158C53.8989 23.0516 54.4934 22.7874 55.0878 22.5892C55.7484 22.3911 56.3428 22.1929 57.0034 22.1269C57.6639 21.9948 58.3905 21.9287 59.051 21.9287C59.7776 21.9287 60.5042 21.9948 61.1647 22.0608C61.8913 22.1929 62.5518 22.325 63.2784 22.5892C63.9389 22.7874 64.5994 23.0516 65.1939 23.3819C65.7884 23.7121 66.3828 24.0424 66.9113 24.4387C67.4397 24.835 67.902 25.2313 68.3644 25.6937C69.2231 26.5524 69.9497 27.4771 70.5441 28.4679C71.0726 29.3266 71.4689 30.3174 71.7331 31.3082C72.1294 32.6953 72.3276 34.2145 72.1955 35.6676C72.2615 36.064 72.1955 36.6584 71.9312 37.1208Z" fill="#525882"/>
<path d="M59.2493 43L58.853 45.1798L56.8714 44.8495L57.2677 42.6698C55.5504 42.3395 53.899 41.4808 52.644 40.2258L54.1633 37.98C55.154 38.9708 56.409 39.6974 57.7301 40.0276L58.2585 36.725C56.1448 35.8003 53.833 34.6774 54.3614 31.8371C54.6917 29.7234 56.5412 28.2042 59.7117 28.4024L60.108 26.2227L62.0896 26.5529L61.6933 28.7327C63.0804 29.0629 64.4014 29.7234 65.5243 30.5821L64.0711 32.96C63.2125 32.2334 62.2877 31.705 61.2309 31.4408L60.6364 34.8095C62.7501 35.6682 64.9959 36.8571 64.5335 39.6313C64.2033 41.6129 62.4198 43.1321 59.2493 43ZM58.7869 33.9508L59.2493 31.1766C58.1264 31.2427 57.664 31.705 57.5319 32.3655C57.4659 33.0261 57.9943 33.4884 58.7869 33.9508ZM61.363 39.3011C61.4951 38.6405 60.9667 38.1121 60.174 37.7158L59.7117 40.424C60.7685 40.3579 61.2969 39.8955 61.363 39.3011Z" fill="#525882"/>
<path d="M294 265.729C294 265.861 232.901 265.928 157.601 265.928C82.3014 265.928 21.1367 265.795 21.1367 265.729C21.1367 265.663 82.2354 265.531 157.601 265.531C232.967 265.531 294 265.597 294 265.729Z" fill="#263238"/>
<path d="M101.787 57.7297C101.787 57.7297 102.381 28.1381 77.876 13.0781H155.488C155.488 13.0781 177.681 31.0444 177.88 57.7297H101.787Z" fill="#EBEBEB"/>
<path d="M149.609 23.911C149.609 23.9771 140.758 24.1092 129.793 24.1092C118.829 24.1092 109.978 24.0431 109.978 23.911C109.978 23.7789 118.829 23.7129 129.793 23.7129C140.758 23.7129 149.609 23.845 149.609 23.911Z" fill="#455A64"/>
<path d="M158.064 29.2616C158.064 29.3277 146.307 29.4598 131.841 29.4598C117.376 29.4598 105.618 29.3937 105.618 29.2616C105.618 29.1956 117.376 29.0635 131.841 29.0635C146.307 29.0635 158.064 29.1956 158.064 29.2616Z" fill="#263238"/>
<path d="M162.489 42.8017C162.489 42.8677 150.732 42.9998 136.266 42.9998C121.801 42.9998 110.043 42.9338 110.043 42.8017C110.043 42.6696 121.801 42.6035 136.266 42.6035C150.732 42.6035 162.489 42.7356 162.489 42.8017Z" fill="#263238"/>
<path d="M135.077 35.4706C134.747 35.5367 134.351 35.5367 134.021 35.5367L131.114 35.6027C128.604 35.6688 125.236 35.6688 121.471 35.6688C117.706 35.6688 114.271 35.6688 111.827 35.6027L108.921 35.5367C108.59 35.5367 108.194 35.5367 107.864 35.4706C108.194 35.4046 108.59 35.4046 108.921 35.4046L111.827 35.3385C114.337 35.3385 117.706 35.2725 121.471 35.2725C125.236 35.2725 128.67 35.2725 131.114 35.3385L134.021 35.4046C134.351 35.4046 134.681 35.4046 135.077 35.4706Z" fill="#263238"/>
<path d="M158.064 35.4706C157.799 35.5367 157.535 35.5367 157.271 35.5367L155.091 35.6027C153.242 35.6688 150.732 35.6688 147.958 35.6688C145.183 35.6688 142.607 35.6688 140.824 35.6027L138.644 35.5367C138.38 35.5367 138.116 35.5367 137.852 35.4706C138.116 35.4046 138.38 35.4046 138.644 35.4046L140.824 35.3385C142.673 35.3385 145.183 35.2725 147.958 35.2725C150.732 35.2725 153.242 35.2725 155.091 35.3385L157.271 35.4046C157.535 35.4046 157.799 35.4046 158.064 35.4706Z" fill="#263238"/>
<path d="M139.899 50.0683C139.569 50.1343 139.173 50.1343 138.842 50.1343L135.936 50.2004C133.426 50.2004 130.057 50.2664 126.292 50.2664C122.527 50.2664 119.093 50.2664 116.649 50.2004L113.742 50.1343C113.412 50.1343 113.016 50.1343 112.686 50.0683C113.016 50.0022 113.412 50.0022 113.742 50.0022L116.649 49.9362C119.159 49.9362 122.527 49.8701 126.292 49.8701C130.057 49.8701 133.492 49.8701 135.936 49.9362L138.842 50.0022C139.173 50.0022 139.569 50.0022 139.899 50.0683Z" fill="#263238"/>
<path d="M162.885 50.0683C162.621 50.1343 162.357 50.1343 162.093 50.1343L159.913 50.2004C158.064 50.2004 155.554 50.2664 152.779 50.2664C150.005 50.2664 147.495 50.2664 145.646 50.2004L143.466 50.1343C143.202 50.1343 142.938 50.1343 142.673 50.0683C142.938 50.0022 143.202 50.0022 143.466 50.0022L145.646 49.9362C147.495 49.9362 150.005 49.8701 152.779 49.8701C155.554 49.8701 158.064 49.8701 159.913 49.9362L162.093 50.0022C162.357 50.0022 162.621 50.0022 162.885 50.0683Z" fill="#263238"/>
<path d="M85.9343 56.9375H200.403L206.612 255.293C206.81 260.908 202.385 265.598 196.77 265.73C196.638 265.73 196.572 265.73 196.44 265.73H77.4796C73.9788 265.73 71.1385 263.022 70.9404 259.521L65.458 147.496C65.458 147.496 31.507 135.144 32.1015 97.5598C32.0354 97.5598 33.6207 56.9375 85.9343 56.9375Z" fill="#263238"/>
<path d="M92.1434 265.466L87.1895 56.9375H204.631L206.745 256.681C206.877 261.502 203.112 265.598 198.224 265.73C198.092 265.73 198.026 265.73 197.894 265.73L92.1434 265.466Z" fill="#455A64"/>
<path d="M96.833 69.0254L99.2109 166.057H194.855L193.6 69.0254H96.833Z" fill="#263238"/>
<path d="M107.467 81.5748C112.157 82.8298 118.036 82.3014 122.858 82.1032C123.584 82.1032 124.179 81.5088 124.179 80.7822C124.179 80.0556 123.584 79.4611 122.858 79.4611C118.036 79.1969 112.157 78.6685 107.467 79.9895C107.005 80.1216 106.741 80.584 106.873 81.1124C106.939 81.3106 107.137 81.5088 107.467 81.5748Z" fill="#525882"/>
<path d="M130.982 81.3764C135.54 82.5654 141.484 82.3672 146.174 81.9048C146.901 81.9048 147.495 81.3104 147.495 80.5838C147.495 79.8572 146.901 79.2627 146.174 79.2627C141.484 78.8004 135.54 78.6022 130.982 79.7912C130.52 79.9233 130.255 80.3856 130.388 80.848C130.454 81.1122 130.718 81.3104 130.982 81.3764Z" fill="#525882"/>
<path d="M154.167 80.9807C156.479 81.7073 158.989 81.5752 161.367 81.5752C163.81 81.7073 166.254 81.7073 168.698 81.4431C169.887 81.2449 169.887 79.1973 168.698 78.9991C166.254 78.7349 163.81 78.7349 161.367 78.867C158.989 78.9331 156.479 78.801 154.167 79.4615C153.77 79.5936 153.506 79.9899 153.638 80.3862C153.704 80.7165 153.903 80.9147 154.167 80.9807Z" fill="#525882"/>
<path d="M175.7 81.1129C177.417 81.3771 179.201 81.5093 180.984 81.5093C182.701 81.5753 184.617 81.8395 186.268 81.3771C186.863 81.179 187.193 80.5185 187.061 79.924C186.929 79.5277 186.665 79.2635 186.268 79.1314C184.551 78.669 182.701 78.9332 180.984 78.9993C179.201 78.9993 177.483 79.1314 175.7 79.3956C175.237 79.5277 174.973 80.0561 175.105 80.5185C175.171 80.7827 175.436 80.9808 175.7 81.1129Z" fill="#525882"/>
<path d="M127.019 177.615H99.2769V197.431H127.019V177.615Z" fill="#83C0D7"/>
<path d="M104.297 177.615H99.2769V197.431H104.297V177.615Z" fill="#263238"/>
<path d="M160.97 177.615H133.228V197.431H160.97V177.615Z" fill="#83C0D7"/>
<path d="M137.918 177.615H132.898V197.431H137.918V177.615Z" fill="#263238"/>
<path d="M194.921 177.615H167.179V197.431H194.921V177.615Z" fill="#83C0D7"/>
<path d="M171.406 177.615H166.386V197.431H171.406V177.615Z" fill="#263238"/>
<path d="M194.921 203.971H167.179V223.786H194.921V203.971Z" fill="#83C0D7"/>
<path d="M172.331 203.971H167.179V223.786H172.331V203.971Z" fill="#263238"/>
<path d="M127.019 203.971H99.2769V223.786H127.019V203.971Z" fill="#83C0D7"/>
<path d="M104.297 203.971H99.2769V223.786H104.297V203.971Z" fill="#263238"/>
<path d="M127.019 230.062H99.2769V249.877H127.019V230.062Z" fill="#83C0D7"/>
<path opacity="0.3" d="M127.019 230.062H99.2769V249.877H127.019V230.062Z" fill="black"/>
<path d="M104.297 230.062H99.2769V249.877H104.297V230.062Z" fill="#263238"/>
<path d="M160.772 203.971H133.03V223.786H160.772V203.971Z" fill="#83C0D7"/>
<path d="M138.05 203.971H133.03V223.786H138.05V203.971Z" fill="#263238"/>
<path d="M160.97 230.062H133.228V249.877H160.97V230.062Z" fill="#83C0D7"/>
<path opacity="0.3" d="M160.97 230.062H133.228V249.877H160.97V230.062Z" fill="black"/>
<path d="M138.248 230.062H133.228V249.877H138.248V230.062Z" fill="#263238"/>
<path d="M194.921 230.062H167.179V249.877H194.921V230.062Z" fill="#525882"/>
<path d="M172.199 230.062H167.179V249.877H172.199V230.062Z" fill="#263238"/>
<path d="M83.028 265.73C82.5656 265.73 80.8483 219.031 79.1309 161.367C77.4796 103.703 76.4888 56.9375 76.9512 56.9375C77.4135 56.9375 79.1969 103.637 80.8483 161.301C82.4996 218.964 83.4904 265.73 83.028 265.73Z" fill="#455A64"/>
<path d="M194.723 155.025V158.592L205.688 161.3L205.622 155.818L194.723 155.025Z" fill="#455A64"/>
<path d="M61.627 147.892C61.0325 147.628 60.372 147.562 59.7114 147.562C59.0509 147.628 58.4564 147.76 57.7959 148.024L50.2659 150.534L35.6683 155.488L7.92622 164.735C6.80333 165.065 5.87859 165.726 5.28412 166.717C4.68964 167.642 4.49149 168.764 4.62359 169.887C4.7557 170.416 4.8878 170.944 5.08596 171.473L5.61438 173.058C5.94464 174.115 6.34096 175.172 6.67122 176.228C8.05833 180.39 9.44543 184.485 10.7665 188.382C13.4086 196.242 15.8525 203.574 18.0983 210.245C22.5238 223.588 26.1567 234.421 28.6667 241.885C29.9217 245.65 30.8465 248.49 31.507 250.472C31.8373 251.462 32.1015 252.189 32.2336 252.717C32.3657 253.246 32.4978 253.51 32.4978 253.51C32.4978 253.51 32.5638 253.774 32.828 254.236C33.2244 254.897 33.7528 255.491 34.4133 255.888C35.5362 256.548 36.8572 256.746 38.0462 256.416C39.4993 255.954 41.1507 255.359 43.0001 254.765L70.6101 245.451L41.2167 153.638L55.9464 148.684L82.5656 230.127L81.3767 201.791C76.0264 185.872 70.2798 168.632 64.203 150.6C63.8067 149.411 62.8159 148.42 61.627 147.892ZM27.742 189.769L21.1367 168.963L23.3825 168.236L29.9217 189.043L27.742 189.769ZM32.2996 178.276L28.4686 166.188L30.7144 165.462L34.5454 177.549L32.2996 178.276ZM37.3857 193.666L33.5546 181.579L35.8004 180.852L39.6315 192.94L37.3857 193.666ZM38.7067 196.903L40.9525 196.176L51.587 229.731L49.3412 230.458L38.7067 196.903ZM52.5778 240.828L50.332 233.628L52.5778 232.902L54.8235 240.101L52.5778 240.828ZM61.7591 236.997L59.5133 237.723L45.5101 193.468L47.7559 192.742L61.7591 236.997ZM46.633 188.514L44.3872 189.241L36.3288 163.546L38.5746 162.82L46.633 188.514Z" fill="#83C0D7"/>
<path opacity="0.3" d="M61.627 147.892C61.0325 147.628 60.372 147.562 59.7114 147.562C59.0509 147.628 58.4564 147.76 57.7959 148.024L50.2659 150.534L35.6683 155.488L7.92622 164.735C6.80333 165.065 5.87859 165.726 5.28412 166.717C4.68964 167.642 4.49149 168.764 4.62359 169.887C4.7557 170.416 4.8878 170.944 5.08596 171.473L5.61438 173.058C5.94464 174.115 6.34096 175.172 6.67122 176.228C8.05833 180.39 9.44543 184.485 10.7665 188.382C13.4086 196.242 15.8525 203.574 18.0983 210.245C22.5238 223.588 26.1567 234.421 28.6667 241.885C29.9217 245.65 30.8465 248.49 31.507 250.472C31.8373 251.462 32.1015 252.189 32.2336 252.717C32.3657 253.246 32.4978 253.51 32.4978 253.51C32.4978 253.51 32.5638 253.774 32.828 254.236C33.2244 254.897 33.7528 255.491 34.4133 255.888C35.5362 256.548 36.8572 256.746 38.0462 256.416C39.4993 255.954 41.1507 255.359 43.0001 254.765L70.6101 245.451L41.2167 153.638L55.9464 148.684L82.5656 230.127L81.3767 201.791C76.0264 185.872 70.2798 168.632 64.203 150.6C63.8067 149.411 62.8159 148.42 61.627 147.892ZM27.742 189.769L21.1367 168.963L23.3825 168.236L29.9217 189.043L27.742 189.769ZM32.2996 178.276L28.4686 166.188L30.7144 165.462L34.5454 177.549L32.2996 178.276ZM37.3857 193.666L33.5546 181.579L35.8004 180.852L39.6315 192.94L37.3857 193.666ZM38.7067 196.903L40.9525 196.176L51.587 229.731L49.3412 230.458L38.7067 196.903ZM52.5778 240.828L50.332 233.628L52.5778 232.902L54.8235 240.101L52.5778 240.828ZM61.7591 236.997L59.5133 237.723L45.5101 193.468L47.7559 192.742L61.7591 236.997ZM46.633 188.514L44.3872 189.241L36.3288 163.546L38.5746 162.82L46.633 188.514Z" fill="black"/>
<path d="M70.6763 245.65V245.517L43.0663 254.831C41.2169 255.425 39.5655 256.02 38.1124 256.482C36.8574 256.812 35.5363 256.614 34.4795 255.954C33.819 255.557 33.2905 254.963 32.8942 254.302C32.63 253.84 32.564 253.576 32.564 253.576L32.63 253.774C32.6961 253.972 32.7621 254.17 32.8942 254.302C33.2905 255.029 33.819 255.623 34.4795 256.02C35.6024 256.746 36.9234 256.945 38.1784 256.614C39.6316 256.152 41.2829 255.623 43.1324 254.963L74.7716 244.395L82.3016 241.885L83.0281 241.488L70.6763 245.65Z" fill="#263238"/>
<path d="M32.2995 252.783C32.1674 252.255 31.9032 251.528 31.573 250.538C30.9124 248.556 29.9216 245.65 28.7327 241.951C26.2227 234.487 22.6559 223.654 18.1643 210.312C15.9185 203.64 13.4746 196.308 10.8325 188.448C9.51141 184.551 8.1243 180.456 6.7372 176.295C6.40694 175.238 6.01062 174.181 5.68036 173.124L5.15194 171.539C4.95378 171.01 4.82167 170.482 4.68957 169.953C4.49141 168.831 4.68957 167.708 5.28404 166.783C5.87852 165.792 6.80325 165.132 7.92614 164.801L35.6682 155.554L50.3319 150.666L57.8619 148.156C58.4564 147.892 59.1169 147.76 59.7774 147.694C60.4379 147.628 61.0985 147.76 61.6929 148.024C62.8819 148.486 63.8727 149.543 64.269 150.732C70.2798 168.698 76.0924 185.938 81.4427 201.857L81.3766 200.8C76.1584 185.146 70.4779 168.236 64.5992 150.6C64.1369 149.279 63.1461 148.222 61.825 147.694C61.1645 147.43 60.504 147.297 59.7774 147.364C59.1169 147.43 58.4564 147.562 57.7958 147.826L50.3319 150.336L35.6682 155.224L7.92614 164.537C6.7372 164.867 5.74641 165.594 5.08588 166.585C4.42536 167.576 4.2272 168.831 4.42536 169.953C4.55746 170.482 4.68957 171.076 4.88773 171.605C5.08588 172.133 5.28404 172.662 5.41615 173.19C5.74641 174.247 6.14273 175.304 6.47299 176.361C7.86009 180.522 9.2472 184.617 10.5682 188.514L17.9661 210.378L28.6006 242.017C29.8556 245.716 30.8464 248.622 31.5069 250.604C31.8372 251.528 32.1014 252.255 32.2995 252.783L32.5637 253.576C32.4977 253.576 32.4316 253.312 32.2995 252.783Z" fill="#263238"/>
<path d="M47.718 192.754L45.5137 193.451L59.5092 237.727L61.7135 237.03L47.718 192.754Z" fill="white"/>
<path d="M38.491 162.841L36.2866 163.538L44.4092 189.234L46.6135 188.538L38.491 162.841Z" fill="white"/>
<path d="M30.6609 165.475L28.4565 166.172L32.2789 178.264L34.4833 177.567L30.6609 165.475Z" fill="white"/>
<path d="M22.9658 167.663L20.7612 168.359L27.3045 189.082L29.5091 188.386L22.9658 167.663Z" fill="white"/>
<path d="M52.5891 232.923L50.3848 233.62L52.6543 240.8L54.8587 240.103L52.5891 232.923Z" fill="white"/>
<path d="M35.8245 180.857L33.6201 181.554L37.4425 193.646L39.6468 192.949L35.8245 180.857Z" fill="white"/>
<path d="M40.9622 196.238L38.7578 196.935L49.349 230.441L51.5533 229.744L40.9622 196.238Z" fill="white"/>
<path d="M41.2168 153.639L70.6762 245.518V245.65L83.0281 241.489L82.5657 230.127L55.9465 148.685L41.2168 153.639Z" fill="white"/>
<path d="M70.5439 251.132L82.4334 246.905L82.2352 241.687L70.676 245.65L70.5439 251.132Z" fill="#263238"/>
<path d="M221.078 99.0791C221.078 99.1451 220.682 99.2112 220.22 99.2112C219.757 99.2112 219.427 99.0791 219.427 99.013C219.427 98.8809 219.823 98.8809 220.286 98.8809C220.748 98.8809 221.078 99.013 221.078 99.0791Z" fill="#263238"/>
<path d="M227.551 98.8151C227.023 99.0132 226.494 99.1453 225.966 99.0793C225.437 99.2114 224.843 99.1453 224.314 99.0132C225.371 98.749 226.494 98.683 227.551 98.8151Z" fill="#263238"/>
<path d="M233.958 97.6914C233.496 97.9556 232.967 98.1538 232.373 98.2198C231.845 98.418 231.316 98.418 230.722 98.418C231.779 97.8896 232.901 97.6914 233.958 97.6914Z" fill="#263238"/>
<path d="M240.167 95.71C239.705 96.0402 239.243 96.3044 238.714 96.4365C238.186 96.7008 237.657 96.8329 237.129 96.8329C237.591 96.5026 238.054 96.2384 238.582 96.1063C239.044 95.8421 239.573 95.71 240.167 95.71Z" fill="#263238"/>
<path d="M245.98 92.8701C245.584 93.2664 245.121 93.5967 244.593 93.7948C244.131 94.1251 243.602 94.3233 243.074 94.3893C243.47 93.993 243.932 93.6627 244.461 93.4646C244.923 93.2004 245.452 93.0022 245.98 92.8701Z" fill="#263238"/>
<path d="M251.397 89.3033C251.463 89.3694 250.934 89.8979 250.207 90.4265C249.811 90.8229 249.349 91.0871 248.82 91.2193C248.754 91.1532 249.282 90.6247 250.009 90.0961C250.736 89.5676 251.331 89.2372 251.397 89.3033Z" fill="#263238"/>
<path d="M256.152 84.8774C256.219 84.9434 255.756 85.538 255.161 86.1327C254.501 86.7273 253.972 87.2558 253.906 87.1897C253.84 87.1237 254.303 86.5291 254.963 85.9345C255.558 85.2738 256.086 84.8113 256.152 84.8774Z" fill="#263238"/>
<path d="M260.115 79.7256C260.182 79.7917 259.851 80.3863 259.323 81.1791C258.794 81.9719 258.332 82.5005 258.266 82.4344C258.398 81.9058 258.728 81.4434 259.058 80.9809C259.587 80.2541 260.049 79.7256 260.115 79.7256Z" fill="#263238"/>
<path d="M263.021 73.9131C262.823 74.9699 262.361 76.0268 261.7 76.8855C261.766 76.357 261.898 75.8286 262.163 75.3662C262.361 74.8378 262.625 74.3755 263.021 73.9131Z" fill="#263238"/>
<path d="M264.739 67.7041C264.805 68.2325 264.739 68.827 264.541 69.3554C264.475 69.8838 264.276 70.4123 264.012 70.8746C264.012 69.7517 264.276 68.6949 264.739 67.7041Z" fill="#263238"/>
<path d="M265.399 61.2305C265.598 62.2873 265.465 63.4102 265.201 64.467C265.069 63.9386 265.069 63.4102 265.135 62.8157C265.135 62.2873 265.201 61.7589 265.399 61.2305Z" fill="#263238"/>
<path d="M265.069 54.7578C265.399 55.8147 265.465 56.8715 265.333 57.9944C265.135 57.466 265.003 56.9375 265.003 56.4091C264.937 55.8807 264.937 55.2862 265.069 54.7578Z" fill="#263238"/>
<path d="M263.748 48.417C264.012 48.8794 264.21 49.4078 264.343 49.9362C264.541 50.4646 264.607 50.9931 264.541 51.5215C264.276 51.0591 264.078 50.5307 264.012 50.0023C263.814 49.5399 263.748 48.9454 263.748 48.417Z" fill="#263238"/>
<path d="M261.436 42.4062C261.832 42.8026 262.097 43.2649 262.229 43.7934C262.493 44.2557 262.691 44.7841 262.757 45.3786C262.427 44.9823 262.097 44.4539 261.964 43.9255C261.634 43.4631 261.436 42.9347 261.436 42.4062Z" fill="#263238"/>
<path d="M257.936 36.8571C258.002 36.7911 258.464 37.3196 258.993 38.1124C259.323 38.5088 259.587 39.0374 259.785 39.5659C259.719 39.632 259.191 39.0374 258.728 38.3106C258.398 37.9142 258.134 37.3857 257.936 36.8571Z" fill="#263238"/>
<path d="M253.444 32.2337C253.51 32.1677 254.105 32.5641 254.765 33.1587C255.426 33.7533 255.889 34.3479 255.822 34.414C255.756 34.48 255.228 34.0176 254.567 33.423C253.907 32.8283 253.378 32.2998 253.444 32.2337Z" fill="#263238"/>
<path d="M249.414 29.4596C249.48 29.3935 249.811 29.5256 250.207 29.7238C250.604 29.9881 250.868 30.2524 250.802 30.3184C250.736 30.3845 250.405 30.2524 250.009 30.0542C249.613 29.7899 249.348 29.5256 249.414 29.4596Z" fill="#263238"/>
<path d="M231.514 45.7084C244.136 45.7084 254.369 35.4762 254.369 22.8542C254.369 10.2322 244.136 0 231.514 0C218.892 0 208.66 10.2322 208.66 22.8542C208.66 35.4762 218.892 45.7084 231.514 45.7084Z" fill="#83C0D7"/>
<path d="M217.974 24.5714L221.474 21.0046L228.344 27.0814L241.753 14.2012L245.055 17.702L227.815 33.8848L217.974 24.5714Z" fill="white"/>
<path d="M244.857 122.66L241.488 110.308C241.488 110.308 225.636 114.403 224.645 113.148C218.898 106.014 215.992 96.2385 215.067 92.7377C215.199 92.2093 215.398 91.6148 215.596 90.9543C215.794 90.3598 216.124 89.8314 216.454 89.303C216.917 88.7085 217.445 88.1141 218.04 87.6517C218.37 87.4535 218.502 86.9912 218.304 86.6609C218.172 86.4627 218.04 86.3306 217.842 86.3306C217.181 86.2646 215.53 87.3214 214.275 89.1709C213.02 91.0864 212.623 87.5196 212.491 86.1985C212.359 84.8775 211.633 80.9143 211.17 80.6501C210.51 80.2538 209.981 80.8483 210.179 82.1693C210.378 83.4904 210.642 87.3875 209.981 87.4535C209.321 87.5196 208.594 80.8483 208.594 80.8483C208.594 80.8483 208.66 79.3951 207.868 79.4612C206.414 79.5272 207.736 86.5288 207.868 87.1893C207.934 87.6517 207.207 87.7177 207.141 87.2554C207.075 86.727 206.547 80.6501 205.093 80.6501C203.971 80.7162 206.084 86.3967 205.49 87.7177C204.895 89.0388 204.301 83.2262 203.244 83.2922C202.848 83.2922 202.583 83.4243 203.376 86.727C204.037 89.1048 204.895 91.4167 205.82 93.6625H205.754C205.754 93.6625 211.633 128.142 226.891 126.226C243.14 124.245 244.857 122.66 244.857 122.66Z" fill="#FFBE9D"/>
<path d="M221.804 156.875L124.971 149.808C122.197 149.609 120.15 147.232 120.348 144.523L124.707 85.01C124.905 82.2358 127.283 80.1881 129.991 80.3863L226.824 87.4539C229.599 87.6521 231.646 90.03 231.448 92.8042L227.089 152.252C227.023 155.026 224.645 157.073 221.804 156.875C221.87 156.875 221.87 156.875 221.804 156.875Z" fill="#83C0D7"/>
<path d="M221.805 156.875C222.069 156.875 222.399 156.875 222.663 156.875C223.522 156.809 224.381 156.478 225.041 155.95C226.164 155.091 226.891 153.836 227.023 152.383C227.155 150.732 227.287 148.75 227.419 146.571L230.061 109.713C230.325 105.816 230.656 101.721 230.92 97.4934C230.986 96.4366 231.052 95.3797 231.118 94.2568C231.184 93.2 231.382 92.0771 231.052 91.0203C230.722 89.9634 230.127 89.0387 229.203 88.4442C228.74 88.1139 228.278 87.9158 227.749 87.7176C227.221 87.5855 226.626 87.5195 226.098 87.5195L196.903 85.4058L130.058 80.5839C128.605 80.4518 127.217 81.0463 126.227 82.1031C125.764 82.6316 125.368 83.226 125.17 83.9526C124.972 84.6792 124.906 85.3397 124.906 86.0663C124.707 88.9726 124.443 91.8789 124.245 94.7852C123.783 100.598 123.386 106.278 122.99 111.827C122.197 122.99 121.405 133.822 120.612 144.127C120.414 145.382 120.744 146.637 121.471 147.693C122.197 148.684 123.254 149.411 124.509 149.609C126.953 149.873 129.463 150.005 131.907 150.203L146.108 151.26L171.539 153.11L208.396 155.818L218.37 156.611L221.012 156.809L221.805 156.875C221.805 156.875 221.54 156.875 220.946 156.875L218.304 156.677L208.264 156.016L171.407 153.374L145.976 151.591L131.775 150.534C129.331 150.336 126.887 150.203 124.377 149.939C123.056 149.675 121.933 148.948 121.141 147.892C120.348 146.835 120.018 145.448 120.216 144.127C120.942 133.822 121.735 123.056 122.594 111.827C122.99 106.212 123.386 100.532 123.849 94.7852C124.047 91.8789 124.311 88.9726 124.509 86.0663C124.509 85.3397 124.641 84.5471 124.84 83.8205C125.566 81.5747 127.746 80.0555 130.124 80.2537L197.035 85.1416L226.23 87.2553C226.825 87.2553 227.353 87.3874 227.948 87.5195C228.476 87.6516 229.004 87.9158 229.533 88.246C230.458 88.9066 231.184 89.8974 231.514 91.0203C231.646 91.5487 231.713 92.1431 231.713 92.6716C231.713 93.2 231.646 93.7945 231.58 94.3229C231.514 95.3797 231.448 96.5026 231.316 97.5595C230.986 101.787 230.722 105.882 230.391 109.779C229.203 125.302 228.278 137.918 227.683 146.637C227.551 148.816 227.353 150.732 227.221 152.449C227.089 153.902 226.362 155.223 225.173 156.082C224.447 156.611 223.654 156.941 222.729 157.007C222.531 157.007 222.267 157.007 222.069 157.007L221.805 156.875Z" fill="#263238"/>
<path d="M131.313 125.104L130.916 131.049L130.322 130.983L130.718 125.566L129.331 125.5L129.397 124.972L131.313 125.104Z" fill="white"/>
<path d="M137.059 130.916L136.993 131.445L132.832 131.114V130.652L135.474 128.406C136.201 127.812 136.333 127.415 136.399 127.019C136.465 126.358 136.003 125.896 135.078 125.83C134.483 125.764 133.823 125.962 133.427 126.358L133.03 125.962C133.625 125.434 134.417 125.17 135.21 125.236C136.399 125.302 137.125 125.962 137.059 126.953C136.993 127.68 136.597 128.34 135.937 128.736L133.757 130.586L137.059 130.916Z" fill="white"/>
<path d="M143.334 130.388L142.145 130.322L142.013 131.907L141.419 131.841L141.551 130.256L138.182 129.991V129.529L141.617 125.83L142.277 125.896L138.975 129.529L141.551 129.727L141.617 128.34L142.211 128.406L142.079 129.793L143.268 129.859V130.388H143.334Z" fill="white"/>
<path d="M152.449 131.048L151.261 130.982L151.128 132.567L150.534 132.501L150.666 130.916L147.297 130.652V130.189L150.732 126.49L151.393 126.556L148.09 130.123L150.666 130.321L150.732 128.934L151.327 129L151.194 130.387L152.383 130.453V131.048H152.449Z" fill="white"/>
<path d="M157.602 131.246C157.535 132.237 156.743 132.964 155.356 132.898C154.563 132.898 153.837 132.567 153.308 131.973L153.638 131.511C154.101 131.973 154.761 132.303 155.422 132.303C156.413 132.369 157.007 131.907 157.073 131.18C157.139 130.454 156.677 129.925 155.158 129.793L153.903 129.727L154.431 126.755L157.668 127.019L157.602 127.548L154.893 127.349L154.563 129.199L155.356 129.265C157.073 129.397 157.734 130.19 157.602 131.246Z" fill="white"/>
<path d="M163.48 131.643C163.414 132.633 162.489 133.426 161.499 133.36C161.432 133.36 161.366 133.36 161.366 133.36C159.781 133.228 158.989 132.105 159.121 130.19C159.253 128.142 160.442 127.217 162.027 127.349C162.489 127.349 163.018 127.481 163.414 127.746L163.15 128.208C162.82 128.01 162.423 127.878 162.027 127.812C160.772 127.746 159.847 128.472 159.781 130.057C159.781 130.19 159.781 130.388 159.781 130.52C160.177 129.859 160.904 129.529 161.697 129.661C162.687 129.595 163.546 130.388 163.546 131.378C163.48 131.511 163.48 131.577 163.48 131.643ZM162.886 131.643C162.952 130.85 162.423 130.322 161.499 130.256C160.772 130.123 160.045 130.586 159.913 131.378V131.445C159.847 132.105 160.376 132.766 161.366 132.832C162.093 132.964 162.754 132.501 162.886 131.775C162.886 131.709 162.886 131.643 162.886 131.643Z" fill="white"/>
<path d="M171.605 132.303C171.539 133.294 170.746 134.02 169.359 133.888C168.567 133.888 167.84 133.558 167.312 132.963L167.642 132.501C168.104 132.963 168.765 133.294 169.425 133.294C170.416 133.36 171.01 132.963 171.01 132.237C171.077 131.51 170.614 131.048 169.491 130.916L169.095 130.85V130.387L170.878 128.472L167.84 128.274L167.906 127.745L171.737 128.009V128.406L169.888 130.387C171.077 130.651 171.671 131.378 171.605 132.303Z" fill="white"/>
<path d="M177.55 132.633C177.484 133.624 176.559 134.417 175.568 134.351C175.502 134.351 175.436 134.351 175.37 134.351C173.785 134.218 172.992 133.096 173.124 131.18C173.256 129.198 174.445 128.208 176.03 128.34C176.493 128.34 177.021 128.472 177.417 128.736L177.153 129.198C176.823 129 176.427 128.868 176.03 128.802C174.775 128.736 173.851 129.463 173.719 131.048C173.719 131.18 173.719 131.378 173.719 131.51C174.115 130.85 174.841 130.52 175.634 130.652C176.625 130.586 177.484 131.378 177.484 132.369C177.55 132.501 177.55 132.567 177.55 132.633ZM176.955 132.633C177.021 131.841 176.493 131.312 175.568 131.246C174.841 131.114 174.115 131.576 173.983 132.369V132.435C173.917 133.096 174.445 133.756 175.436 133.822C176.162 133.954 176.823 133.492 176.955 132.765C176.955 132.699 176.955 132.699 176.955 132.633Z" fill="white"/>
<path d="M183.296 128.868V129.331L180.39 134.615L179.729 134.549L182.57 129.331L179.531 129.133L179.465 130.255L178.871 130.189L179.003 128.538L183.296 128.868Z" fill="white"/>
<path d="M191.751 129.529V129.991L188.844 135.275L188.184 135.209L191.024 129.991L187.986 129.793L187.92 130.916L187.325 130.85L187.457 129.198L191.751 129.529Z" fill="white"/>
<path d="M197.299 134.219C197.233 135.275 196.308 135.87 194.855 135.738C193.468 135.606 192.609 134.945 192.675 133.888C192.741 133.228 193.27 132.633 193.93 132.501C193.402 132.303 193.006 131.709 193.072 131.114C193.138 130.123 193.996 129.595 195.251 129.727C196.506 129.859 197.299 130.454 197.233 131.444C197.233 132.039 196.771 132.567 196.176 132.699C196.903 132.898 197.365 133.492 197.299 134.219ZM196.639 134.153C196.705 133.426 196.11 132.898 195.053 132.832C193.996 132.765 193.336 133.162 193.336 133.888C193.27 134.615 193.864 135.143 194.921 135.209C195.978 135.342 196.639 134.879 196.639 134.153ZM195.119 132.369C196.044 132.435 196.639 132.039 196.639 131.444C196.705 130.784 196.11 130.322 195.251 130.255C194.393 130.189 193.732 130.52 193.732 131.18C193.666 131.841 194.195 132.303 195.119 132.369Z" fill="white"/>
<path d="M203.112 133.294C202.979 135.341 201.791 136.266 200.205 136.134C199.743 136.134 199.214 136.002 198.818 135.738L199.082 135.275C199.413 135.474 199.809 135.606 200.205 135.672C201.46 135.738 202.385 135.011 202.451 133.426C202.451 133.294 202.451 133.096 202.451 132.964C202.055 133.624 201.328 133.954 200.536 133.822C199.545 133.888 198.686 133.096 198.686 132.105C198.686 132.039 198.686 131.973 198.686 131.907C198.752 130.916 199.677 130.123 200.668 130.189C200.734 130.189 200.8 130.189 200.8 130.189C202.517 130.255 203.244 131.378 203.112 133.294ZM202.385 132.039C202.451 131.378 201.923 130.718 200.932 130.652C200.205 130.52 199.545 130.982 199.413 131.709C199.413 131.775 199.413 131.775 199.413 131.841C199.347 132.633 199.875 133.162 200.8 133.228C201.526 133.36 202.253 132.898 202.451 132.171C202.385 132.105 202.385 132.039 202.385 132.039Z" fill="white"/>
<path d="M174.467 138.626L174.28 141.195L221.78 144.65L221.967 142.08L174.467 138.626Z" fill="white"/>
<path d="M197.212 145.48L197.025 148.05L221.335 149.818L221.522 147.249L197.212 145.48Z" fill="white"/>
<path d="M132.436 105.156L145.844 106.146C147.628 106.278 149.015 107.864 148.883 109.647L148.288 117.97C148.156 119.753 146.571 121.14 144.787 121.008L131.379 120.017C129.595 119.885 128.208 118.3 128.34 116.517L128.935 108.194C129.067 106.345 130.652 105.023 132.436 105.156Z" fill="#455A64"/>
<path d="M128.406 115.658L128.472 114.733L138.71 115.459C139.899 115.591 140.956 114.733 141.088 113.544C141.22 112.355 140.362 111.298 139.173 111.166C139.107 111.166 139.107 111.166 139.041 111.166L128.803 110.439L128.869 109.515L139.107 110.241C140.824 110.439 142.079 111.959 141.881 113.676C141.683 115.327 140.296 116.516 138.644 116.45L128.406 115.658Z" fill="#83C0D7"/>
<path d="M141.553 112.969L141.48 113.957L148.529 114.477L148.602 113.489L141.553 112.969Z" fill="#83C0D7"/>
<path d="M132.42 92.753L132.098 97.167L183.288 100.899L183.609 96.485L132.42 92.753Z" fill="white"/>
<path d="M251 81.2447C249.613 83.5566 249.745 86.3968 250.142 89.0389C250.538 91.681 251.132 94.3892 250.538 96.9652C250.142 98.6826 249.217 100.4 249.679 102.117C250.009 103.306 250.868 104.297 251.331 105.42C251.991 107.071 251.595 108.921 251.397 110.638C251.198 112.422 251.198 114.337 252.321 115.658C253.774 117.309 256.417 117.243 258.398 116.319C260.38 115.394 261.965 113.743 263.814 112.554C265.664 111.365 268.042 110.572 270.023 111.497C270.948 111.959 271.741 112.686 272.732 112.818C274.119 112.95 275.242 111.629 276.629 111.233C277.818 110.902 279.073 111.299 280.262 111.167C282.705 110.902 284.555 108.26 284.159 105.816C283.696 103.306 281.715 101.391 279.205 100.994C278.148 100.796 276.893 100.796 276.364 99.9376C275.506 98.6166 277.025 96.9652 276.761 95.446C276.563 94.3231 275.506 93.5966 274.515 93.2002C273.458 92.7379 272.335 92.4737 271.543 91.681C270.156 90.2939 270.288 88.0481 269.825 86.0666C269.099 82.896 266.126 76.2908 259.587 75.6963" fill="#263238"/>
<path d="M247.962 263.154L248.094 258.464L256.813 258.662L256.681 265.465H256.152C253.774 265.532 243.866 265.73 242.281 265.201C240.498 264.673 247.962 263.154 247.962 263.154Z" fill="#83C0D7"/>
<path d="M253.576 265.333C253.708 264.607 254.105 263.946 254.699 263.484C255.294 263.021 256.02 262.823 256.747 262.889L256.681 265.333H253.576Z" fill="#83C0D7"/>
<path d="M244.329 264.012C244.329 264.012 241.687 264.738 242.017 265.135C242.347 265.597 252.321 265.795 256.681 265.465V265.267L245.055 265.135C245.121 265.135 244.857 264.078 244.329 264.012Z" fill="#83C0D7"/>
<path d="M256.879 265.267H256.747H256.284L254.699 265.334C253.378 265.334 251.528 265.334 249.481 265.334C247.433 265.334 245.584 265.201 244.263 265.135L242.677 265.069H242.281H242.149H242.281H242.677L244.263 265.135C245.584 265.201 247.433 265.267 249.481 265.267C251.528 265.267 253.378 265.334 254.699 265.334L256.879 265.267Z" fill="#263238"/>
<path d="M245.055 265.267C244.989 265.003 244.923 264.739 244.791 264.474C244.659 264.276 244.461 264.012 244.263 263.88C244.527 264.012 244.725 264.21 244.857 264.474C245.055 264.739 245.122 265.003 245.055 265.267Z" fill="#263238"/>
<path d="M247.698 264.012C247.698 264.012 247.566 263.88 247.434 263.682C247.301 263.483 247.235 263.285 247.235 263.285C247.235 263.285 247.367 263.417 247.5 263.615C247.632 263.814 247.698 264.012 247.698 264.012Z" fill="#263238"/>
<path d="M248.424 263.682C248.424 263.682 248.292 263.616 248.094 263.484C247.962 263.352 247.83 263.22 247.83 263.22C247.83 263.22 247.962 263.286 248.16 263.418C248.358 263.55 248.424 263.682 248.424 263.682Z" fill="#263238"/>
<path d="M248.887 262.889C248.887 262.889 248.689 262.955 248.424 262.955C248.16 262.955 247.962 262.955 247.962 262.889C248.094 262.823 248.292 262.823 248.424 262.823C248.557 262.757 248.689 262.823 248.887 262.889Z" fill="#263238"/>
<path d="M249.019 262.295C248.887 262.361 248.689 262.427 248.49 262.427C248.292 262.427 248.16 262.427 247.962 262.361C248.16 262.361 248.292 262.361 248.49 262.361C248.689 262.295 248.887 262.295 249.019 262.295Z" fill="#263238"/>
<path d="M247.367 263.286C247.169 263.286 246.971 263.286 246.773 263.286C246.575 263.286 246.376 263.22 246.178 263.154C246.046 263.088 245.98 263.088 245.848 263.022C245.782 262.956 245.716 262.89 245.716 262.823C245.716 262.757 245.716 262.625 245.782 262.625C246.244 262.427 246.773 262.559 247.037 262.956C247.103 263.088 247.169 263.22 247.235 263.352C247.235 263.418 247.235 263.484 247.235 263.484C247.169 263.286 247.103 263.154 246.971 263.022C246.839 262.89 246.707 262.757 246.509 262.691C246.31 262.625 246.046 262.625 245.848 262.691C245.782 262.757 245.782 262.89 245.914 262.956C245.98 263.022 246.112 263.088 246.244 263.088C246.443 263.154 246.641 263.22 246.839 263.22C247.169 263.22 247.367 263.22 247.367 263.286Z" fill="#263238"/>
<path d="M247.235 263.286C247.169 263.153 247.169 263.021 247.169 262.889C247.169 262.757 247.235 262.625 247.367 262.493C247.433 262.295 247.631 262.229 247.83 262.229C247.962 262.229 248.028 262.361 247.962 262.493C247.962 262.559 247.896 262.691 247.896 262.757C247.83 262.889 247.697 263.021 247.631 263.087C247.565 263.153 247.433 263.22 247.235 263.286C247.301 263.286 247.433 263.153 247.565 263.021C247.631 262.889 247.764 262.823 247.83 262.691C247.896 262.559 247.962 262.361 247.83 262.361C247.697 262.361 247.565 262.493 247.433 262.625C247.367 262.757 247.301 262.823 247.301 262.955C247.301 263.021 247.235 263.153 247.235 263.286Z" fill="#263238"/>
<path d="M256.747 262.889C256.747 262.889 256.482 262.889 256.086 262.889C255.029 262.955 254.105 263.682 253.774 264.672C253.642 265.069 253.642 265.267 253.576 265.267C253.576 265.201 253.576 265.135 253.576 265.069C253.708 263.814 254.765 262.823 256.086 262.757C256.218 262.757 256.416 262.757 256.548 262.757C256.681 262.889 256.747 262.889 256.747 262.889Z" fill="#263238"/>
<path d="M255.888 259.256C255.954 259.85 255.954 260.445 255.954 261.039C255.954 261.634 255.954 262.228 255.888 262.823C255.822 262.228 255.822 261.634 255.822 261.039C255.822 260.445 255.822 259.85 255.888 259.256Z" fill="#263238"/>
<path d="M252.454 264.474C252.058 264.541 251.595 264.607 251.199 264.541C250.802 264.541 250.34 264.541 249.943 264.408C249.943 264.342 250.538 264.408 251.199 264.408C251.925 264.474 252.454 264.474 252.454 264.474Z" fill="#263238"/>
<path d="M254.17 264.54C254.17 264.54 254.104 264.673 254.038 264.805C253.972 264.937 253.972 265.069 253.906 265.069C253.906 265.069 253.84 264.937 253.972 264.805C254.038 264.54 254.17 264.474 254.17 264.54Z" fill="#263238"/>
<path d="M254.831 263.682C254.831 263.682 254.765 263.814 254.699 263.88C254.633 263.946 254.501 264.012 254.501 264.012C254.501 264.012 254.501 263.88 254.633 263.814C254.765 263.748 254.831 263.682 254.831 263.682Z" fill="#263238"/>
<path d="M255.756 263.351C255.756 263.351 255.624 263.351 255.492 263.417C255.36 263.483 255.294 263.55 255.228 263.483C255.161 263.417 255.294 263.351 255.426 263.285C255.69 263.285 255.822 263.351 255.756 263.351Z" fill="#263238"/>
<path d="M256.406 263.217C256.406 263.217 256.342 263.281 256.279 263.281C256.216 263.281 256.152 263.281 256.152 263.281C256.152 263.281 256.216 263.217 256.279 263.217C256.342 263.154 256.406 263.154 256.406 263.217Z" fill="#263238"/>
<path d="M272.798 263.154L272.93 258.464L281.649 258.662L281.517 265.465H280.988C278.544 265.532 268.702 265.73 267.117 265.201C265.334 264.673 272.798 263.154 272.798 263.154Z" fill="#83C0D7"/>
<path d="M278.346 265.333C278.478 264.607 278.874 263.946 279.535 263.484C280.129 263.021 280.856 262.823 281.582 262.889L281.516 265.333H278.346Z" fill="#83C0D7"/>
<path d="M269.099 264.012C269.099 264.012 266.457 264.738 266.787 265.135C267.117 265.597 277.091 265.795 281.45 265.465V265.267L269.825 265.135C269.891 265.135 269.627 264.078 269.099 264.012Z" fill="#83C0D7"/>
<path d="M281.648 265.267H281.516H281.12L279.535 265.334C278.214 265.334 276.364 265.334 274.317 265.334C272.269 265.334 270.42 265.201 269.099 265.135L267.513 265.069H267.117H266.985H267.117H267.579L269.165 265.135C270.486 265.201 272.335 265.267 274.383 265.267C276.43 265.267 278.28 265.334 279.601 265.334L281.648 265.267Z" fill="#263238"/>
<path d="M269.892 265.267C269.825 265.003 269.759 264.739 269.627 264.474C269.495 264.276 269.297 264.012 269.099 263.88C269.561 264.144 269.892 264.739 269.892 265.267Z" fill="#263238"/>
<path d="M272.467 264.012C272.467 264.012 272.335 263.88 272.203 263.682C272.071 263.483 272.005 263.285 272.005 263.285C272.005 263.285 272.137 263.417 272.269 263.615C272.401 263.814 272.467 264.012 272.467 264.012Z" fill="#263238"/>
<path d="M273.194 263.682C273.194 263.682 273.062 263.616 272.863 263.484C272.665 263.352 272.599 263.22 272.599 263.22C272.599 263.22 272.731 263.286 272.929 263.418C273.128 263.55 273.194 263.682 273.194 263.682Z" fill="#263238"/>
<path d="M273.656 262.889C273.656 262.889 273.458 262.955 273.194 262.955C272.93 262.955 272.731 262.955 272.731 262.889C272.864 262.823 273.062 262.823 273.194 262.823C273.326 262.757 273.524 262.823 273.656 262.889Z" fill="#263238"/>
<path d="M273.789 262.295C273.656 262.361 273.458 262.427 273.26 262.427C273.062 262.427 272.93 262.427 272.731 262.361C272.93 262.361 273.062 262.361 273.26 262.361C273.458 262.295 273.59 262.295 273.789 262.295Z" fill="#263238"/>
<path d="M272.203 263.286C272.005 263.286 271.807 263.286 271.609 263.286C271.411 263.286 271.212 263.22 271.014 263.154C270.882 263.088 270.75 263.088 270.684 263.022C270.618 262.956 270.552 262.89 270.552 262.823C270.552 262.757 270.552 262.625 270.618 262.625C271.08 262.427 271.609 262.559 271.873 262.956C271.939 263.088 272.005 263.22 272.071 263.352C272.071 263.418 272.071 263.484 272.071 263.484C272.005 263.286 271.939 263.154 271.807 263.022C271.675 262.89 271.543 262.757 271.345 262.691C271.146 262.625 270.882 262.625 270.684 262.691C270.618 262.757 270.618 262.89 270.75 262.956C270.882 263.022 270.948 263.088 271.08 263.088C271.278 263.154 271.477 263.22 271.675 263.22C272.005 263.22 272.203 263.22 272.203 263.286Z" fill="#263238"/>
<path d="M272.071 263.286C272.005 263.153 272.005 263.021 272.005 262.889C272.005 262.757 272.071 262.625 272.137 262.493C272.203 262.295 272.401 262.229 272.599 262.229C272.732 262.229 272.798 262.361 272.798 262.493C272.798 262.559 272.732 262.691 272.666 262.757C272.599 262.889 272.467 263.021 272.401 263.087C272.335 263.153 272.203 263.22 272.071 263.286C272.137 263.286 272.203 263.153 272.401 263.021C272.467 262.889 272.599 262.823 272.666 262.691C272.732 262.559 272.798 262.361 272.666 262.361C272.533 262.361 272.401 262.493 272.269 262.559C272.203 262.691 272.137 262.823 272.137 262.955C272.071 263.021 272.071 263.153 272.071 263.286Z" fill="#263238"/>
<path d="M281.516 262.889C281.516 262.889 281.252 262.889 280.856 262.889C280.327 262.955 279.865 263.153 279.469 263.417C279.072 263.748 278.742 264.144 278.544 264.672C278.412 265.069 278.412 265.267 278.346 265.267C278.346 265.201 278.346 265.135 278.346 265.069C278.346 264.936 278.412 264.738 278.478 264.606C278.808 263.549 279.733 262.823 280.856 262.757C280.988 262.757 281.186 262.757 281.318 262.757C281.384 262.823 281.45 262.823 281.516 262.889Z" fill="#263238"/>
<path d="M280.658 259.256C280.724 259.85 280.724 260.445 280.724 261.039C280.724 261.634 280.724 262.228 280.658 262.823C280.592 262.228 280.592 261.634 280.592 261.039C280.592 260.445 280.592 259.85 280.658 259.256Z" fill="#263238"/>
<path d="M277.289 264.474C276.893 264.541 276.43 264.607 276.034 264.541C275.638 264.541 275.175 264.541 274.779 264.408C274.779 264.342 275.373 264.408 276.034 264.408C276.695 264.408 277.289 264.474 277.289 264.474Z" fill="#263238"/>
<path d="M279.007 264.54C279.007 264.54 278.94 264.673 278.874 264.805C278.808 264.937 278.808 265.069 278.742 265.069C278.742 265.069 278.676 264.937 278.742 264.805C278.808 264.673 278.94 264.474 279.007 264.54Z" fill="#263238"/>
<path d="M279.667 263.682C279.667 263.682 279.601 263.814 279.535 263.88C279.469 263.946 279.336 264.012 279.336 264.012C279.336 264.012 279.402 263.88 279.469 263.814C279.535 263.748 279.601 263.682 279.667 263.682Z" fill="#263238"/>
<path d="M280.592 263.351C280.592 263.351 280.46 263.351 280.328 263.417C280.196 263.483 280.13 263.55 280.063 263.483C279.997 263.417 280.13 263.351 280.262 263.285C280.46 263.285 280.592 263.351 280.592 263.351Z" fill="#263238"/>
<path d="M281.241 263.217C281.241 263.217 281.178 263.281 281.114 263.281C281.051 263.281 280.988 263.281 280.988 263.281C280.988 263.281 281.051 263.217 281.114 263.217C281.178 263.154 281.241 263.154 281.241 263.217Z" fill="#263238"/>
<path d="M246.244 143.268L242.083 205.687V261.964H258.794C258.794 261.964 259.521 213.415 259.059 210.245C259.059 210.245 261.767 161.63 262.097 162.291C262.757 163.678 262.691 205.027 263.682 210.179C264.607 215.331 268.966 261.964 268.966 261.964H285.083L279.667 208.462C279.535 201.988 277.883 145.381 277.883 145.381L246.244 143.268Z" fill="#263238"/>
<path d="M284.687 258.794C284.489 258.926 284.291 258.992 284.092 258.992C283.498 259.058 282.903 258.926 282.309 258.728C281.516 258.332 280.724 258.068 279.865 257.869C278.94 257.737 277.95 258.2 277.025 258.86C276.166 259.521 275.175 259.983 274.052 260.247C273.128 260.313 272.269 260.247 271.41 259.917C270.816 259.719 270.287 259.521 269.759 259.256C269.561 259.19 269.363 259.058 269.165 258.926C269.165 258.86 270.023 259.256 271.476 259.719C272.269 259.983 273.128 260.049 273.986 259.983C275.043 259.785 275.968 259.323 276.761 258.662C277.223 258.332 277.751 258.068 278.28 257.869C278.808 257.671 279.337 257.605 279.865 257.671C280.724 257.869 281.582 258.2 282.375 258.596C282.903 258.86 283.432 258.992 284.026 258.992C284.423 258.86 284.621 258.794 284.687 258.794Z" fill="#455A64"/>
<path d="M258.926 258.398C258.728 258.265 258.596 258.067 258.398 258.001C257.87 257.671 257.209 257.605 256.615 257.737C255.756 258.001 254.897 258.397 254.171 258.992C253.708 259.322 253.18 259.586 252.651 259.785C252.057 260.049 251.462 260.115 250.802 259.983C249.547 259.785 248.556 259.124 247.499 258.86C246.575 258.662 245.65 258.728 244.791 258.992C243.272 259.454 242.347 259.917 242.347 259.851C242.545 259.719 242.743 259.586 242.942 259.52C243.536 259.256 244.131 258.992 244.725 258.794C245.65 258.464 246.641 258.397 247.565 258.596C248.622 258.86 249.679 259.454 250.802 259.653C251.925 259.851 253.048 259.256 253.906 258.728C254.699 258.133 255.558 257.737 256.482 257.539C257.143 257.407 257.804 257.539 258.398 257.935C258.662 258.001 258.794 258.199 258.926 258.398Z" fill="#455A64"/>
<path d="M276.694 156.214C276.43 156.412 276.034 156.544 275.704 156.544C274.052 156.809 272.335 156.346 271.014 155.223C270.551 154.827 270.287 154.497 270.353 154.431C272.137 156.016 274.449 156.61 276.694 156.214Z" fill="#455A64"/>
<path d="M248.953 153.836C249.019 153.836 249.019 154.166 248.821 154.629C248.556 155.289 248.226 155.818 247.698 156.28C247.169 156.742 246.575 157.072 245.914 157.205C245.386 157.337 245.056 157.271 245.056 157.271C246.839 156.874 248.292 155.553 248.953 153.836Z" fill="#455A64"/>
<path d="M209.387 130.784L208.925 136.729L208.33 136.663L208.726 131.246L207.339 131.114L207.405 130.586L209.387 130.784Z" fill="white"/>
<path d="M215.068 136.596L215.002 137.125L210.84 136.86V136.398L213.482 134.152C214.209 133.558 214.341 133.161 214.407 132.765C214.473 132.105 214.011 131.642 213.086 131.576C212.492 131.51 211.897 131.708 211.435 132.105L211.038 131.708C211.633 131.18 212.426 130.916 213.218 130.982C214.407 131.048 215.134 131.708 215.068 132.699C215.002 133.293 214.803 133.756 213.945 134.482L211.765 136.332L215.068 136.596Z" fill="white"/>
<path d="M220.484 135.87C220.418 136.86 219.625 137.587 218.238 137.455C217.445 137.455 216.719 137.124 216.19 136.53L216.521 136.068C216.983 136.596 217.644 136.86 218.304 136.86C219.295 136.926 219.889 136.53 219.889 135.803C219.889 135.077 219.493 134.615 218.37 134.482H217.974L218.04 134.02L219.823 132.105L216.785 131.906L216.851 131.378L220.682 131.642V132.038L218.833 134.02C219.955 134.218 220.55 134.879 220.484 135.87Z" fill="white"/>
<path d="M251.661 77.7432C250.472 78.9321 249.877 80.6495 250.009 82.3008C250.141 83.9521 250.67 85.6034 251.595 87.0566" fill="#263238"/>
<path d="M266.06 103.571L266.985 82.8961L258.662 76.6211L251.132 80.32C251.132 80.32 250.868 89.7656 251.132 93.9269C251.396 98.0221 255.492 98.4845 255.492 98.4845C255.492 98.4845 255.359 100.73 255.227 103.108C255.095 106.081 257.341 108.591 260.247 108.789C263.22 108.987 265.796 106.741 265.994 103.769C266.06 103.637 266.06 103.637 266.06 103.571Z" fill="#FFBE9D"/>
<path d="M252.52 87.1897C252.52 87.4539 252.784 87.7182 253.048 87.7182C253.312 87.7182 253.577 87.4539 253.577 87.1897C253.577 86.9254 253.312 86.6611 253.048 86.6611C252.718 86.6611 252.52 86.8593 252.52 87.1897Z" fill="#263238"/>
<path d="M251.463 86.595C251.529 86.6611 251.925 86.3307 252.454 86.3307C252.982 86.3307 253.445 86.595 253.511 86.5289C253.577 86.4628 253.445 86.3968 253.313 86.2646C253.048 86.1325 252.784 86.0003 252.454 86.0664C252.123 86.0664 251.859 86.1985 251.661 86.3968C251.463 86.4628 251.397 86.595 251.463 86.595Z" fill="#263238"/>
<path d="M258.596 87.1897C258.596 87.4539 258.86 87.7182 259.125 87.7182C259.389 87.7182 259.653 87.52 259.653 87.1897C259.653 86.9254 259.455 86.6611 259.125 86.6611C258.86 86.6611 258.596 86.8593 258.596 87.1897Z" fill="#263238"/>
<path d="M257.738 86.595C257.804 86.6611 258.2 86.3307 258.729 86.3307C259.257 86.3307 259.72 86.595 259.786 86.5289C259.852 86.4628 259.72 86.3968 259.587 86.2646C259.323 86.1325 259.059 86.0003 258.729 86.0664C258.398 86.0664 258.134 86.1985 257.936 86.3968C257.738 86.4628 257.672 86.595 257.738 86.595Z" fill="#263238"/>
<path d="M257.54 91.9453C256.681 92.4078 255.756 92.6721 254.831 92.8703C255.294 93.4649 256.02 93.6631 256.681 93.3988C257.275 93.2667 257.672 92.606 257.54 92.0114V91.9453Z" fill="white"/>
<path d="M255.558 98.4178C257.539 98.3518 259.389 97.6912 260.974 96.5684C260.974 96.5684 259.719 99.6068 255.624 99.4086L255.558 98.4178Z" fill="#EB996E"/>
<path d="M255.69 91.4168C255.36 91.3507 255.096 91.2847 254.765 91.2847C254.633 91.2847 254.501 91.2847 254.435 91.1526C254.435 91.0205 254.435 90.8223 254.501 90.6902C254.633 90.2939 254.765 89.8976 254.897 89.5013C255.162 88.6426 255.426 87.916 255.558 87.3876C255.69 87.1234 255.756 86.7932 255.756 86.4629C255.624 86.7271 255.492 86.9913 255.426 87.3216C255.228 87.85 254.963 88.6426 254.699 89.4352C254.567 89.8315 254.435 90.2279 254.303 90.6242C254.237 90.8223 254.171 91.0205 254.237 91.2186C254.303 91.3507 254.369 91.4168 254.501 91.4168C254.567 91.4168 254.633 91.4168 254.765 91.4168C255.096 91.4828 255.36 91.4828 255.69 91.4168Z" fill="#263238"/>
<path d="M266.39 90.2276C266.324 89.567 266.391 88.8405 266.589 88.1799C266.787 87.5194 267.381 87.057 268.042 86.9249C268.834 86.8589 269.561 87.4534 269.693 88.246C269.825 89.0386 269.363 89.8312 268.702 90.2276C267.976 90.6239 267.117 90.6239 266.39 90.2936" fill="#FFBE9D"/>
<path d="M267.579 89.634C267.579 89.5679 267.778 89.7 268.108 89.5679C268.504 89.4358 268.702 89.1054 268.702 88.709C268.769 88.5108 268.702 88.3126 268.57 88.1805C268.438 88.1144 268.306 88.0483 268.108 88.0483C267.778 88.0483 267.579 88.1805 267.579 88.1144C267.579 88.0483 267.712 87.9162 268.108 87.8501C268.306 87.7841 268.57 87.8501 268.769 87.9823C268.967 88.1805 269.099 88.5108 269.033 88.7751C269.033 89.0394 268.901 89.3036 268.702 89.5679C268.57 89.7661 268.306 89.8322 268.108 89.8982C267.712 89.8982 267.513 89.634 267.579 89.634Z" fill="#EB996E"/>
<path d="M251.198 78.1399C249.349 80.3857 251.793 81.8389 253.048 82.7636C253.972 83.4902 256.746 85.4057 259.124 84.481C258.266 83.3581 257.275 82.8296 256.945 81.7728C257.935 83.1599 258.992 84.2167 260.644 84.4149C260.313 83.4241 259.851 81.4425 260.181 81.3765C260.644 85.2736 264.276 88.5762 266.852 87.3212C267.843 84.8112 267.513 82.037 266.06 79.7912C264.607 77.5454 262.229 76.0923 259.587 75.696C256.548 75.1675 253.444 76.0923 251.198 78.1399Z" fill="#263238"/>
<path d="M268.505 90.6244C268.505 90.5583 268.835 90.8886 268.703 91.4172C268.637 91.7475 268.373 92.0118 268.108 92.1439C267.712 92.3421 267.315 92.276 266.919 92.0778C266.589 91.8796 266.324 91.4832 266.258 91.0868C266.192 90.7565 266.324 90.4262 266.523 90.1619C266.853 89.6994 267.249 89.6334 267.249 89.6994C267.249 89.7655 266.985 89.8976 266.721 90.294C266.589 90.4922 266.523 90.7565 266.589 91.0208C266.655 91.3511 266.787 91.6154 267.117 91.7475C267.382 91.8796 267.712 91.9457 267.976 91.8136C268.24 91.7475 268.373 91.5493 268.505 91.285C268.505 91.0868 268.571 90.8886 268.505 90.6244Z" fill="#83C0D7"/>
<path d="M239.969 124.641L246.178 123.386L248.094 133.823C246.508 139.173 245.187 144.589 244.131 150.072L258.662 159.121L260.908 154.894L264.475 158.328L279.931 150.138C278.016 140.23 273.194 137.654 273.194 136.002C273.194 131.379 272.533 135.87 276.43 120.546C280.327 105.222 266.192 103.637 266.192 103.637C266.192 103.637 266.522 105.75 255.227 103.703C251.132 102.976 234.685 111.563 234.685 111.563L239.969 124.641Z" fill="#83C0D7"/>
<path d="M255.161 103.636C255.161 103.636 255.029 114.997 257.737 114.204C260.445 113.412 265.862 108.59 266.126 103.504L255.161 103.636Z" fill="#FFBE9D"/>
<path d="M255.822 123.518C255.756 122.197 255.888 120.81 256.086 119.489C256.152 118.167 256.35 116.846 256.681 115.525C256.747 116.846 256.615 118.234 256.416 119.555C256.35 120.876 256.152 122.263 255.822 123.518Z" fill="#263238"/>
<path d="M257.539 122.593C257.341 121.536 257.275 120.48 257.275 119.357C257.209 118.3 257.209 117.177 257.341 116.12C257.54 117.177 257.606 118.234 257.606 119.357C257.738 120.48 257.738 121.536 257.539 122.593Z" fill="#263238"/>
<path d="M255.161 124.641C255.095 124.641 255.029 124.377 255.161 124.047C255.293 123.716 255.558 123.584 255.624 123.65C255.69 123.716 255.558 123.915 255.492 124.179C255.359 124.443 255.227 124.641 255.161 124.641Z" fill="#263238"/>
<path d="M255.492 124.641C255.426 124.641 255.36 124.377 255.426 124.112C255.492 123.848 255.624 123.65 255.69 123.716C255.756 123.716 255.822 123.98 255.756 124.244C255.756 124.443 255.624 124.641 255.492 124.641Z" fill="#263238"/>
<path d="M255.888 124.641C255.822 124.641 255.69 124.443 255.69 124.178C255.69 123.914 255.69 123.716 255.822 123.716C255.954 123.716 256.02 123.914 256.02 124.178C256.02 124.443 255.954 124.641 255.888 124.641Z" fill="#263238"/>
<path d="M256.417 124.839C256.351 124.839 256.218 124.509 256.086 124.179C255.954 123.848 255.69 123.584 255.756 123.452C255.822 123.386 256.152 123.584 256.351 123.981C256.615 124.443 256.549 124.839 256.417 124.839Z" fill="#263238"/>
<path d="M257.606 123.65C257.539 123.717 257.341 123.386 257.341 122.99C257.341 122.593 257.539 122.329 257.606 122.329C257.672 122.329 257.672 122.659 257.672 122.99C257.672 123.32 257.738 123.584 257.606 123.65Z" fill="#263238"/>
<path d="M258.002 123.452C257.936 123.452 257.804 123.254 257.804 122.989C257.804 122.725 257.804 122.461 257.936 122.461C258.068 122.461 258.134 122.659 258.134 122.923C258.134 123.188 258.068 123.452 258.002 123.452Z" fill="#263238"/>
<path d="M258.53 123.386C258.464 123.453 258.266 123.32 258.068 123.056C257.87 122.792 257.803 122.594 257.869 122.528C257.936 122.462 258.134 122.594 258.332 122.858C258.53 123.056 258.596 123.32 258.53 123.386Z" fill="#263238"/>
<path d="M258.729 123.188C258.663 123.254 258.464 123.056 258.266 122.858C258.068 122.66 257.87 122.527 257.936 122.461C258.002 122.395 258.266 122.395 258.53 122.594C258.795 122.792 258.795 123.122 258.729 123.188Z" fill="#263238"/>
<path d="M254.303 104.891C254.303 104.825 254.501 104.759 254.765 104.957C254.963 105.222 254.963 105.552 254.699 105.75C254.435 105.948 254.105 105.948 253.906 105.684C253.906 105.618 253.84 105.618 253.84 105.552C253.774 105.354 253.774 105.156 253.906 105.023C254.105 104.825 254.303 104.891 254.303 104.891C254.303 104.957 254.171 105.023 254.105 105.156C254.038 105.354 254.105 105.552 254.369 105.552C254.633 105.552 254.633 105.288 254.567 105.156C254.501 105.023 254.303 104.957 254.303 104.891Z" fill="#263238"/>
<path d="M254.567 107.071C254.501 107.137 254.303 107.071 254.171 107.005C253.973 106.939 253.906 106.741 253.973 106.609C254.039 106.543 254.237 106.543 254.369 106.675C254.567 106.807 254.633 106.939 254.567 107.071Z" fill="#263238"/>
<path d="M254.765 107.534C254.831 107.6 254.765 107.798 254.501 107.93C254.237 108.062 254.039 107.93 254.039 107.864C254.039 107.732 254.237 107.732 254.369 107.666C254.501 107.6 254.699 107.468 254.765 107.534Z" fill="#263238"/>
<path d="M254.765 108.59C254.831 108.656 254.765 108.788 254.633 108.986C254.567 109.118 254.369 109.184 254.303 109.118C254.237 109.052 254.303 108.854 254.369 108.722C254.567 108.656 254.699 108.59 254.765 108.59Z" fill="#263238"/>
<path d="M254.501 109.845C254.501 109.779 254.765 109.713 255.096 109.977C255.294 110.176 255.36 110.374 255.294 110.638C255.228 110.968 254.897 111.167 254.567 111.167C254.237 111.167 253.972 110.902 253.906 110.572C253.84 110.308 253.972 110.043 254.171 109.911C254.567 109.713 254.831 109.911 254.765 109.911C254.699 109.977 254.501 109.911 254.303 110.043C254.171 110.109 254.105 110.308 254.171 110.44C254.237 110.638 254.369 110.704 254.567 110.704C254.831 110.704 255.029 110.44 254.963 110.242C254.963 110.176 254.897 110.043 254.897 109.977C254.699 109.911 254.501 109.911 254.501 109.845Z" fill="#263238"/>
<path d="M255.228 111.76C255.294 111.826 255.095 112.025 254.963 112.157C254.831 112.355 254.699 112.487 254.567 112.487C254.501 112.487 254.501 112.223 254.699 111.959C254.897 111.694 255.161 111.694 255.228 111.76Z" fill="#263238"/>
<path d="M255.624 112.949C255.69 112.949 255.69 113.214 255.492 113.478C255.294 113.742 255.03 113.742 254.963 113.676C254.897 113.61 255.03 113.412 255.228 113.28C255.36 113.082 255.492 112.883 255.624 112.949Z" fill="#263238"/>
<path d="M255.822 114.866C255.756 114.866 255.624 114.667 255.624 114.337C255.624 114.073 255.624 113.809 255.756 113.809C255.888 113.809 255.954 114.007 255.954 114.337C255.954 114.667 255.888 114.866 255.822 114.866Z" fill="#263238"/>
<path d="M258.993 115.195C258.927 115.261 258.728 115.261 258.596 115.195C258.398 115.129 258.332 114.931 258.332 114.865C258.398 114.799 258.596 114.799 258.728 114.865C258.927 114.997 259.059 115.063 258.993 115.195Z" fill="#263238"/>
<path d="M260.115 113.875C260.182 113.941 260.049 114.139 259.851 114.337C259.653 114.535 259.455 114.667 259.389 114.601C259.323 114.535 259.455 114.337 259.653 114.139C259.851 113.941 260.049 113.809 260.115 113.875Z" fill="#263238"/>
<path d="M261.04 113.148C261.04 113.082 261.239 113.082 261.437 113.082L261.503 113.148C261.635 113.28 261.701 113.412 261.635 113.611C261.569 113.809 261.437 114.007 261.239 114.007C261.04 114.007 260.776 113.875 260.71 113.677C260.644 113.478 260.71 113.28 260.842 113.214C261.04 113.016 261.239 113.148 261.239 113.148C261.239 113.214 261.106 113.214 261.04 113.346C260.974 113.412 260.974 113.478 261.04 113.544C261.106 113.611 261.172 113.677 261.239 113.677C261.371 113.677 261.437 113.412 261.371 113.346L261.437 113.412C261.172 113.214 261.04 113.214 261.04 113.148Z" fill="#263238"/>
<path d="M261.965 112.949C261.899 112.949 261.833 112.685 261.899 112.421C261.965 112.157 262.097 111.958 262.163 112.025C262.229 112.025 262.295 112.289 262.229 112.553C262.163 112.751 262.097 112.949 261.965 112.949Z" fill="#263238"/>
<path d="M263.418 111.959C263.418 112.025 263.154 112.025 262.956 111.959C262.757 111.893 262.559 111.695 262.625 111.629C262.691 111.563 262.89 111.563 263.088 111.629C263.286 111.695 263.484 111.827 263.418 111.959Z" fill="#263238"/>
<path d="M263.616 110.704C263.682 110.704 263.682 110.836 263.748 110.902C263.814 110.968 263.947 111.034 264.013 110.902C264.079 110.77 264.013 110.704 263.881 110.704C263.748 110.704 263.682 110.638 263.616 110.704C263.616 110.704 263.616 110.506 263.881 110.439C264.013 110.439 264.145 110.439 264.277 110.572C264.409 110.704 264.409 110.902 264.277 111.1C264.211 111.298 264.013 111.364 263.814 111.298C263.682 111.232 263.55 111.166 263.55 111.034C263.418 110.77 263.55 110.638 263.616 110.704Z" fill="#263238"/>
<path d="M264.607 109.647C264.541 109.647 264.409 109.581 264.343 109.448C264.277 109.316 264.343 109.184 264.409 109.118C264.475 109.118 264.607 109.184 264.673 109.316C264.739 109.448 264.673 109.581 264.607 109.647Z" fill="#263238"/>
<path d="M265.532 108.722C265.466 108.788 265.267 108.788 265.135 108.656C264.937 108.524 264.871 108.392 264.871 108.326C264.937 108.26 265.069 108.26 265.267 108.392C265.466 108.458 265.598 108.59 265.532 108.722Z" fill="#263238"/>
<path d="M266.192 107.335C266.258 107.401 266.06 107.599 265.862 107.665C265.664 107.731 265.399 107.798 265.399 107.665C265.399 107.533 265.532 107.401 265.73 107.335C265.928 107.203 266.126 107.269 266.192 107.335Z" fill="#263238"/>
<path d="M266.522 105.684C266.522 105.618 266.655 105.552 266.853 105.618C266.985 105.684 267.051 105.816 267.051 106.015C267.051 106.213 266.919 106.411 266.721 106.477C266.522 106.543 266.324 106.477 266.192 106.345C266.126 106.213 266.06 106.081 266.126 105.949C266.258 105.684 266.456 105.618 266.522 105.684C266.456 105.75 266.39 105.816 266.456 105.949C266.456 106.081 266.522 106.213 266.721 106.147C266.853 106.081 266.853 105.949 266.787 105.882C266.588 105.684 266.522 105.684 266.522 105.684Z" fill="#263238"/>
<path d="M267.381 104.231C267.381 104.297 267.249 104.429 266.985 104.495C266.787 104.561 266.589 104.495 266.522 104.429C266.522 104.363 266.655 104.231 266.919 104.164C267.183 104.098 267.381 104.098 267.381 104.231Z" fill="#263238"/>
<path d="M266.457 103.768L266.787 103.504Z" fill="#263238"/>
<path d="M236.468 113.148C236.402 113.148 236.336 112.95 236.402 112.752C236.468 112.553 236.601 112.487 236.667 112.487C236.733 112.487 236.799 112.685 236.733 112.884C236.667 113.082 236.535 113.214 236.468 113.148Z" fill="#263238"/>
<path d="M237.261 114.138C237.261 114.072 237.394 114.006 237.592 114.072C237.856 114.204 237.922 114.469 237.856 114.667C237.79 114.799 237.724 114.865 237.592 114.931C237.394 115.063 237.195 114.997 237.063 114.865C236.931 114.733 236.931 114.601 236.931 114.469C236.997 114.204 237.195 114.204 237.195 114.204C237.195 114.27 237.129 114.337 237.195 114.469C237.261 114.601 237.328 114.733 237.46 114.667C237.592 114.601 237.592 114.469 237.46 114.337C237.328 114.138 237.261 114.138 237.261 114.138Z" fill="#263238"/>
<path d="M238.252 116.252C238.186 116.318 237.988 116.318 237.79 116.252C237.592 116.186 237.459 115.988 237.459 115.922C237.526 115.856 237.724 115.856 237.922 115.922C238.12 116.054 238.252 116.186 238.252 116.252Z" fill="#263238"/>
<path d="M238.517 117.573C238.517 117.639 238.318 117.705 238.186 117.639C238.054 117.573 237.922 117.441 237.922 117.375C237.922 117.309 238.12 117.243 238.252 117.309C238.384 117.375 238.517 117.507 238.517 117.573Z" fill="#263238"/>
<path d="M238.912 118.498C238.979 118.564 238.979 118.762 238.846 118.894C238.714 119.093 238.582 119.225 238.516 119.159C238.45 119.093 238.45 118.894 238.582 118.762C238.714 118.63 238.78 118.498 238.912 118.498Z" fill="#263238"/>
<path d="M239.111 119.423C239.045 119.423 239.243 119.159 239.573 119.291C239.771 119.357 239.904 119.489 239.97 119.687C240.036 119.952 239.904 120.282 239.639 120.348C239.375 120.414 239.111 120.414 238.913 120.216C238.78 120.018 238.78 119.753 238.913 119.621C239.045 119.489 239.177 119.489 239.309 119.621C239.375 119.687 239.375 119.753 239.309 119.753C239.243 119.753 239.243 119.753 239.243 119.687C239.177 119.621 239.111 119.687 239.111 119.753C239.111 119.819 239.111 119.952 239.177 120.018C239.309 120.084 239.441 120.084 239.507 120.084C239.771 120.018 239.639 119.687 239.441 119.555C239.309 119.423 239.177 119.423 239.111 119.423Z" fill="#263238"/>
<path d="M240.102 121.14C240.168 121.206 240.102 121.338 239.97 121.47C239.837 121.603 239.705 121.603 239.639 121.536C239.573 121.47 239.639 121.338 239.771 121.206C239.903 121.074 240.036 121.074 240.102 121.14Z" fill="#263238"/>
<path d="M240.498 122.263C240.564 122.329 240.498 122.528 240.366 122.66C240.234 122.792 240.101 122.858 239.969 122.792C239.903 122.726 239.969 122.528 240.101 122.395C240.234 122.263 240.432 122.197 240.498 122.263Z" fill="#263238"/>
<path d="M247.235 151.657C247.169 151.723 246.971 151.525 246.839 151.327C246.707 151.128 246.641 150.864 246.773 150.798C246.839 150.732 247.037 150.93 247.169 151.128C247.235 151.393 247.301 151.657 247.235 151.657Z" fill="#263238"/>
<path d="M247.764 151.657C247.697 151.723 247.499 151.525 247.433 151.327C247.367 151.128 247.301 150.864 247.433 150.798C247.565 150.732 247.697 150.93 247.764 151.128C247.83 151.327 247.896 151.657 247.764 151.657Z" fill="#263238"/>
<path d="M248.622 152.119C248.622 152.185 248.622 152.251 248.622 152.317C248.622 152.383 248.688 152.449 248.82 152.383C248.886 152.317 248.886 152.251 248.82 152.185C248.688 152.119 248.622 152.119 248.622 152.119C248.622 152.053 248.688 151.921 248.952 151.987C249.151 152.053 249.283 152.251 249.217 152.449C249.217 152.581 249.085 152.647 249.018 152.713C248.886 152.846 248.688 152.846 248.556 152.713C248.424 152.647 248.424 152.515 248.424 152.383C248.424 152.119 248.556 152.053 248.622 152.119Z" fill="#263238"/>
<path d="M250.604 152.515C250.67 152.581 250.538 152.779 250.34 152.912C250.141 153.044 249.943 153.11 249.877 153.044C249.811 152.978 249.943 152.779 250.141 152.647C250.34 152.515 250.604 152.449 250.604 152.515Z" fill="#263238"/>
<path d="M251.33 153.176C251.397 153.242 251.264 153.374 251.132 153.44C251 153.506 250.802 153.506 250.736 153.44C250.67 153.374 250.802 153.242 250.934 153.176C251.066 153.109 251.264 153.109 251.33 153.176Z" fill="#263238"/>
<path d="M252.255 154.233C252.123 154.233 252.057 154.101 252.057 153.903C252.057 153.704 252.123 153.572 252.189 153.572C252.255 153.572 252.387 153.704 252.387 153.903C252.387 154.101 252.321 154.233 252.255 154.233Z" fill="#263238"/>
<path d="M253.774 154.232C253.774 154.298 253.708 154.364 253.774 154.496C253.84 154.629 253.907 154.695 254.039 154.629C254.171 154.563 254.171 154.43 254.039 154.298C253.907 154.166 253.84 154.232 253.774 154.232C253.774 154.166 253.907 154.034 254.171 154.1C254.303 154.166 254.435 154.232 254.501 154.43C254.567 154.695 254.369 154.959 254.105 155.025C253.973 155.025 253.84 155.025 253.708 154.959C253.576 154.827 253.51 154.695 253.576 154.563C253.576 154.232 253.708 154.166 253.774 154.232Z" fill="#263238"/>
<path d="M255.558 154.959C255.624 155.025 255.558 155.223 255.36 155.355C255.162 155.488 254.964 155.62 254.897 155.488C254.831 155.355 254.964 155.223 255.096 155.091C255.294 154.959 255.492 154.827 255.558 154.959Z" fill="#263238"/>
<path d="M256.747 155.619C256.813 155.685 256.681 155.883 256.483 156.016C256.218 156.148 256.02 156.082 256.02 155.95C256.02 155.817 256.152 155.751 256.35 155.685C256.549 155.619 256.681 155.553 256.747 155.619Z" fill="#263238"/>
<path d="M257.606 156.941C257.54 156.941 257.407 156.875 257.341 156.677C257.275 156.545 257.341 156.347 257.407 156.347C257.473 156.347 257.606 156.413 257.672 156.545C257.738 156.743 257.738 156.875 257.606 156.941Z" fill="#263238"/>
<path d="M258.662 156.28C258.596 156.28 258.728 156.082 258.926 156.082C259.059 156.082 259.191 156.214 259.257 156.346C259.323 156.544 259.257 156.743 259.059 156.875C258.86 157.007 258.662 156.941 258.53 156.809C258.464 156.677 258.398 156.544 258.464 156.346C258.596 156.148 258.794 156.148 258.794 156.214C258.794 156.28 258.728 156.28 258.728 156.412C258.728 156.544 258.794 156.611 258.926 156.544C259.059 156.478 258.992 156.412 258.86 156.28C258.794 156.28 258.662 156.346 258.662 156.28Z" fill="#263238"/>
<path d="M259.587 155.356C259.521 155.422 259.389 155.356 259.257 155.223C259.191 155.091 259.191 154.959 259.257 154.893C259.323 154.827 259.455 154.893 259.587 155.025C259.719 155.157 259.653 155.356 259.587 155.356Z" fill="#263238"/>
<path d="M260.05 154.629C259.984 154.695 259.851 154.695 259.719 154.563C259.587 154.431 259.587 154.299 259.653 154.233C259.719 154.167 259.851 154.167 259.984 154.299C260.116 154.431 260.116 154.563 260.05 154.629Z" fill="#263238"/>
<path d="M260.578 153.176C260.512 153.176 260.644 152.978 260.842 153.044C260.974 153.11 261.04 153.176 261.04 153.308C261.04 153.507 260.842 153.705 260.644 153.639C260.512 153.639 260.446 153.573 260.38 153.44C260.314 153.308 260.314 153.176 260.38 153.11C260.446 152.912 260.578 152.912 260.644 152.978C260.644 153.044 260.644 153.11 260.644 153.176C260.644 153.242 260.644 153.242 260.71 153.308C260.71 153.308 260.71 153.308 260.776 153.308H260.842V153.242C260.776 153.242 260.644 153.176 260.578 153.176Z" fill="#263238"/>
<path d="M261.635 154.233C261.502 154.167 261.502 154.101 261.502 153.969C261.502 153.837 261.635 153.771 261.701 153.771C261.833 153.837 261.833 153.903 261.833 154.035C261.833 154.167 261.767 154.233 261.635 154.233Z" fill="#263238"/>
<path d="M262.097 154.827C262.031 154.761 261.965 154.629 262.031 154.563C262.031 154.43 262.097 154.364 262.229 154.298C262.361 154.232 262.427 154.43 262.427 154.563C262.361 154.761 262.229 154.893 262.097 154.827Z" fill="#263238"/>
<path d="M262.824 155.619C262.758 155.685 262.626 155.751 262.559 155.685C262.427 155.685 262.361 155.619 262.295 155.487C262.229 155.355 262.427 155.289 262.626 155.355C262.758 155.355 262.824 155.487 262.824 155.619Z" fill="#263238"/>
<path d="M263.352 156.214C263.352 156.148 263.418 156.082 263.616 156.082C263.748 156.082 263.881 156.214 263.881 156.346C263.947 156.545 263.814 156.809 263.616 156.809C263.484 156.875 263.352 156.809 263.22 156.677C263.154 156.545 263.154 156.412 263.22 156.28C263.352 156.082 263.484 156.148 263.484 156.148C263.484 156.214 263.418 156.214 263.418 156.346C263.418 156.412 263.418 156.412 263.484 156.412C263.55 156.412 263.484 156.412 263.55 156.412C263.616 156.412 263.616 156.346 263.616 156.346C263.616 156.28 263.616 156.28 263.55 156.28C263.418 156.28 263.352 156.28 263.352 156.214Z" fill="#263238"/>
<path d="M264.211 157.536C264.079 157.536 264.013 157.404 264.079 157.271C264.079 157.139 264.145 157.073 264.277 157.073C264.409 157.073 264.475 157.205 264.409 157.271C264.343 157.47 264.277 157.536 264.211 157.536Z" fill="#263238"/>
<path d="M265.466 156.875C265.466 156.941 265.268 157.007 265.07 156.941C264.871 156.875 264.739 156.809 264.739 156.677C264.739 156.545 264.937 156.545 265.136 156.611C265.334 156.677 265.466 156.809 265.466 156.875Z" fill="#263238"/>
<path d="M265.928 156.611C265.862 156.611 265.73 156.545 265.73 156.413C265.73 156.281 265.796 156.148 265.862 156.148C265.994 156.148 266.06 156.215 266.06 156.347C266.126 156.479 266.06 156.611 265.928 156.611Z" fill="#263238"/>
<path d="M266.853 155.95C266.787 155.95 266.655 155.818 266.655 155.686C266.655 155.554 266.721 155.422 266.853 155.422C266.985 155.422 267.051 155.554 267.051 155.686C267.051 155.818 266.919 155.95 266.853 155.95Z" fill="#263238"/>
<path d="M267.513 154.959C267.513 154.893 267.646 154.827 267.844 154.893C267.976 154.959 268.042 155.157 268.042 155.289C267.976 155.488 267.844 155.62 267.58 155.62C267.381 155.62 267.183 155.488 267.183 155.289C267.183 155.157 267.249 154.959 267.381 154.893C267.58 154.761 267.712 154.959 267.712 154.959C267.712 154.959 267.58 154.959 267.513 155.091C267.447 155.157 267.447 155.157 267.447 155.223C267.447 155.223 267.513 155.289 267.58 155.289C267.646 155.289 267.646 155.289 267.712 155.223C267.712 155.157 267.712 155.157 267.712 155.091C267.712 155.025 267.58 154.959 267.513 154.959Z" fill="#263238"/>
<path d="M269.297 154.365C269.231 154.431 269.099 154.431 268.967 154.431C268.835 154.431 268.702 154.365 268.702 154.298C268.636 154.232 268.835 154.034 269.033 154.1C269.231 154.166 269.363 154.298 269.297 154.365Z" fill="#263238"/>
<path d="M270.222 153.902C270.155 153.969 269.957 153.969 269.825 153.969C269.627 153.902 269.429 153.902 269.429 153.77C269.429 153.638 269.627 153.572 269.891 153.638C270.089 153.638 270.288 153.836 270.222 153.902Z" fill="#263238"/>
<path d="M270.75 153.506C270.684 153.506 270.618 153.374 270.618 153.242C270.618 153.11 270.684 152.978 270.816 153.044C270.882 153.044 270.948 153.176 270.948 153.308C270.948 153.374 270.816 153.506 270.75 153.506Z" fill="#263238"/>
<path d="M271.542 152.251C271.542 152.251 271.608 152.053 271.873 152.119C272.005 152.185 272.137 152.251 272.137 152.449C272.137 152.647 272.071 152.846 271.873 152.912C271.674 152.978 271.476 152.912 271.344 152.714C271.278 152.581 271.278 152.383 271.41 152.317C271.608 152.185 271.741 152.317 271.741 152.317C271.674 152.317 271.608 152.383 271.608 152.449C271.542 152.515 271.608 152.515 271.608 152.515C271.608 152.515 271.674 152.581 271.741 152.581C271.807 152.581 271.807 152.515 271.807 152.449C271.807 152.383 271.807 152.383 271.741 152.317C271.674 152.317 271.542 152.317 271.542 152.251Z" fill="#263238"/>
<path d="M272.665 152.251C272.533 152.185 272.533 152.118 272.533 151.986C272.533 151.854 272.665 151.788 272.731 151.788C272.797 151.788 272.863 151.92 272.863 152.052C272.863 152.185 272.731 152.251 272.665 152.251Z" fill="#263238"/>
<path d="M273.59 151.459C273.458 151.459 273.392 151.326 273.458 151.194C273.458 151.128 273.524 150.996 273.59 150.996C273.656 150.996 273.788 151.062 273.788 151.128V151.194C273.788 151.326 273.722 151.459 273.59 151.459Z" fill="#263238"/>
<path d="M274.977 150.666C274.911 150.732 274.779 150.732 274.581 150.666C274.383 150.6 274.25 150.6 274.25 150.468C274.25 150.401 274.449 150.269 274.647 150.335C274.911 150.401 275.043 150.6 274.977 150.666Z" fill="#263238"/>
<path d="M275.638 150.203C275.572 150.27 275.44 150.137 275.506 149.939C275.572 149.741 275.704 149.741 275.77 149.807C275.836 149.873 275.836 149.939 275.836 150.005C275.77 150.137 275.704 150.137 275.638 150.203Z" fill="#263238"/>
<path d="M276.364 149.411C276.232 149.411 276.166 149.279 276.232 149.146C276.232 149.014 276.364 148.948 276.43 148.948C276.496 148.948 276.562 149.08 276.562 149.213C276.562 149.345 276.496 149.411 276.364 149.411Z" fill="#263238"/>
<path d="M266.853 114.337L262.493 118.763L273.128 129.199C273.128 129.199 275.307 122.924 276.827 117.376C277.817 113.478 266.853 114.337 266.853 114.337Z" fill="#83C0D7"/>
<path d="M265.135 119.159C265.069 119.159 264.937 118.961 264.937 118.697C264.937 118.433 265.003 118.234 265.069 118.234C265.135 118.234 265.267 118.433 265.267 118.697C265.267 118.961 265.267 119.159 265.135 119.159Z" fill="#263238"/>
<path d="M266.192 119.356C266.192 119.422 266.06 119.555 265.796 119.555C265.532 119.555 265.399 119.489 265.399 119.356C265.399 119.224 265.532 119.158 265.796 119.158C265.994 119.158 266.192 119.29 266.192 119.356Z" fill="#263238"/>
<path d="M266.456 120.81C266.39 120.744 266.39 120.612 266.39 120.414C266.39 120.216 266.39 120.084 266.456 120.017C266.522 119.951 266.72 120.084 266.72 120.414C266.72 120.744 266.522 120.876 266.456 120.81Z" fill="#263238"/>
<path d="M267.315 120.942C267.249 120.942 267.447 120.744 267.711 120.81C267.91 120.876 268.042 121.009 268.042 121.207C268.042 121.471 267.844 121.735 267.579 121.801C267.381 121.801 267.183 121.735 267.051 121.537C266.985 121.339 267.051 121.141 267.183 121.009C267.249 120.942 267.381 120.876 267.513 120.876C267.579 120.876 267.645 120.942 267.579 120.942C267.513 120.942 267.447 121.009 267.315 121.141C267.183 121.273 267.249 121.471 267.513 121.405C267.778 121.339 267.712 121.141 267.513 121.009C267.315 120.876 267.315 121.009 267.315 120.942Z" fill="#263238"/>
<path d="M268.438 122.726C268.372 122.726 268.306 122.528 268.372 122.395C268.438 122.263 268.504 122.131 268.636 122.197C268.703 122.197 268.769 122.395 268.702 122.528C268.636 122.66 268.57 122.792 268.438 122.726Z" fill="#263238"/>
<path d="M269.429 122.593C269.495 122.593 269.561 122.857 269.495 123.188C269.429 123.518 269.297 123.716 269.231 123.716C269.165 123.716 269.099 123.452 269.165 123.122C269.231 122.791 269.363 122.527 269.429 122.593Z" fill="#263238"/>
<path d="M270.486 123.783C270.486 123.849 270.353 123.981 270.089 123.981C269.825 123.981 269.693 123.915 269.693 123.849C269.693 123.783 269.825 123.65 270.089 123.65C270.287 123.65 270.486 123.65 270.486 123.783Z" fill="#263238"/>
<path d="M270.948 124.245C270.948 124.179 271.08 124.113 271.344 124.179C271.476 124.245 271.609 124.377 271.675 124.575C271.741 124.773 271.609 125.038 271.41 125.17C271.212 125.302 270.948 125.236 270.816 125.038C270.75 124.839 270.75 124.641 270.882 124.509C270.948 124.443 271.08 124.377 271.212 124.443C271.278 124.509 271.278 124.509 271.278 124.509C271.278 124.509 271.146 124.509 271.08 124.641C271.014 124.773 271.08 124.906 271.278 124.839C271.477 124.773 271.41 124.575 271.278 124.443C271.08 124.311 270.948 124.311 270.948 124.245Z" fill="#263238"/>
<path d="M272.005 126.623C271.939 126.623 271.807 126.358 271.807 126.094C271.807 125.764 271.873 125.565 272.005 125.565C272.071 125.565 272.203 125.83 272.203 126.094C272.203 126.358 272.137 126.623 272.005 126.623Z" fill="#263238"/>
<path d="M270.42 109.845C270.156 110.373 269.825 110.836 269.495 111.232C268.835 112.091 267.91 113.213 266.853 114.402C265.796 115.591 264.805 116.648 264.079 117.441C263.682 117.903 263.286 118.299 262.824 118.63C263.154 118.167 263.484 117.705 263.881 117.243C264.541 116.45 265.532 115.327 266.589 114.138L269.297 111.034C269.627 110.637 270.023 110.241 270.42 109.845Z" fill="#263238"/>
<path d="M277.883 149.345C277.883 149.411 277.685 149.477 277.487 149.411C277.289 149.345 277.157 149.279 277.157 149.147C277.157 149.014 277.355 149.014 277.553 149.081C277.751 149.147 277.883 149.279 277.883 149.345Z" fill="#263238"/>
<path d="M278.346 148.552C278.346 148.552 278.412 148.42 278.61 148.42C278.742 148.42 278.875 148.486 278.875 148.618C278.941 148.75 278.875 148.948 278.742 149.015H278.676C278.346 149.081 278.082 148.75 278.214 148.552C278.28 148.486 278.346 148.42 278.412 148.42C278.478 148.42 278.478 148.486 278.478 148.486C278.412 148.486 278.412 148.552 278.412 148.618C278.412 148.618 278.478 148.684 278.544 148.684C278.544 148.684 278.544 148.618 278.478 148.618C278.478 148.618 278.346 148.618 278.346 148.552Z" fill="#263238"/>
<path d="M222.135 125.103C221.739 123.848 217.049 121.272 217.71 120.612C218.634 119.687 222.531 123.518 222.862 123.782C223.192 124.046 223.654 123.584 223.324 123.32C222.862 122.989 217.908 119.026 218.833 118.168C219.361 117.639 220.154 118.696 220.154 118.696C220.154 118.696 224.513 122.725 224.909 122.263C225.306 121.801 222.862 119.357 221.937 118.63C221.012 117.837 221.078 117.111 221.673 117.045C222.135 116.979 224.909 119.224 225.768 120.017C226.627 120.81 228.939 122.989 228.674 120.942V120.876C228.344 118.894 228.674 117.243 229.137 116.847C229.401 116.582 229.797 116.582 230.061 116.847C230.194 116.979 230.26 117.177 230.26 117.375C230.26 117.441 230.26 117.573 230.26 117.639C230.26 117.705 230.26 117.705 230.26 117.771C230.26 118.432 230.26 119.158 230.392 119.819C230.458 120.413 230.656 121.008 230.986 121.602C231.316 122.263 231.647 122.791 231.911 123.188C235.081 124.905 244.197 129.529 253.312 130.255C254.963 130.387 263.286 119.555 263.286 119.555L271.476 127.613C270.354 129.529 269.957 129.925 264.409 137.587C255.294 150.005 226.759 129.463 226.759 129.463L226.495 129.331C224.315 128.274 222.201 127.085 220.154 125.764C217.71 124.046 217.842 123.848 218.106 123.584C218.766 122.791 222.531 126.424 222.135 125.103Z" fill="#FFBE9D"/>
</g>
<defs>
<clipPath id="clip0_1101_428">
<rect width="294" height="265.862" fill="white"/>
</clipPath>
</defs>
</svg>
