<svg width="294" height="304" viewBox="0 0 294 304" fill="none" xmlns="http://www.w3.org/2000/svg">
<g clip-path="url(#clip0_1101_768)">
<path opacity="0.18" d="M63.8306 107.214H63.8847L58.0967 85.7927L60.4768 85.1435V85.1976C61.0718 87.3073 63.2356 88.5514 65.3453 88.0105C67.4549 87.4155 68.6991 85.2517 68.1581 83.1421C68.1581 83.1421 68.1581 83.088 68.104 83.088L70.7546 82.3847V82.4388C71.3497 84.5485 73.5134 85.7927 75.6231 85.2517C77.7327 84.6567 78.9769 82.4929 78.436 80.3833C78.436 80.3833 78.436 80.3292 78.3819 80.3292L81.0325 79.626V79.6801C81.6275 81.7897 83.7913 83.0339 85.9009 82.4929C88.0106 81.8979 89.2547 79.7341 88.7138 77.6245C88.7138 77.6245 88.7138 77.5704 88.6597 77.5704L91.3103 76.8672V76.9213C91.9053 79.0309 94.0691 80.2751 96.1787 79.7341C98.2884 79.1391 99.5326 76.9754 98.9916 74.8657C98.9916 74.8657 98.9916 74.8116 98.9375 74.8116L101.588 74.1084V74.1625C102.183 76.2721 104.347 77.5163 106.457 76.9754C108.566 76.3803 109.81 74.2166 109.269 72.1069C109.269 72.1069 109.269 72.0528 109.215 72.0528L111.866 71.3496V71.4037C112.461 73.5134 114.625 74.7575 116.734 74.2166C118.844 73.6215 120.088 71.4578 119.547 69.3481C119.547 69.3481 119.547 69.294 119.493 69.294L122.144 68.5908V68.6449C122.739 70.7546 124.903 71.9987 127.012 71.4578C129.122 70.8628 130.366 68.699 129.825 66.5893C129.825 66.5893 129.825 66.5352 129.771 66.5352L132.422 65.832V65.8861C133.017 67.9958 135.18 69.2399 137.29 68.699C139.4 68.104 140.644 65.9402 140.103 63.8306C140.103 63.8306 140.103 63.7765 140.049 63.7765L142.699 63.0732L172.126 171.748L177.915 193.169L175.534 193.818V193.764C174.939 191.654 172.776 190.41 170.666 190.951C168.556 191.546 167.312 193.71 167.853 195.82C167.853 195.82 167.853 195.874 167.907 195.874L165.257 196.577V196.523C164.662 194.413 162.498 193.169 160.388 193.71C158.278 194.305 157.034 196.469 157.575 198.578C157.575 198.578 157.575 198.632 157.629 198.632L154.979 199.336V199.282C154.384 197.172 152.22 195.928 150.11 196.469C148.001 197.064 146.756 199.227 147.297 201.337C147.297 201.337 147.297 201.391 147.352 201.391L144.701 202.094V202.04C144.106 199.931 141.942 198.686 139.832 199.227C137.723 199.822 136.479 201.986 137.02 204.096C137.02 204.096 137.02 204.15 137.074 204.15L134.423 204.853V204.799C133.828 202.689 131.664 201.445 129.555 201.986C127.445 202.581 126.201 204.745 126.742 206.855C126.742 206.855 126.742 206.909 126.796 206.909L124.145 207.612V207.558C123.55 205.448 121.386 204.204 119.277 204.745C117.167 205.34 115.923 207.504 116.464 209.613C116.464 209.613 116.464 209.668 116.518 209.668L113.867 210.371V210.317C113.272 208.207 111.109 206.963 108.999 207.504C106.889 208.099 105.645 210.263 106.186 212.372C106.186 212.372 106.186 212.426 106.24 212.426L103.59 213.13V213.075C102.995 210.966 100.831 209.722 98.7212 210.263C96.6115 210.858 95.3673 213.021 95.9083 215.131C95.9083 215.131 95.9083 215.185 95.9624 215.185L93.3118 215.888L63.8306 107.214Z" fill="#D6D6D6"/>
<path d="M168.719 130.961L205.232 147.297C208.748 148.866 211.723 151.517 213.671 154.87L236.282 209.722L200.905 235.903L180.403 163.255L175.697 155.628L168.719 130.961Z" fill="#FFD7C0"/>
<path d="M236.228 209.775L252.456 227.897L215.51 254.781L200.904 235.957L236.228 209.775Z" fill="#FFD7C0"/>
<path d="M175.102 152.598L171.856 139.67L190.086 152.49C194.251 155.033 197.334 159.036 198.741 163.688L205.935 179.699L175.102 152.598Z" fill="#E3AE95"/>
<path d="M157.088 173.262L160.496 183.107C162.119 187.813 165.852 191.492 170.612 193.006L180.295 196.09L165.689 167.853L157.088 173.262Z" fill="#E3AE95"/>
<path d="M161.74 184.027L165.148 193.872C166.771 198.578 170.503 202.256 175.264 203.771L184.947 206.854L170.341 178.617L161.74 184.027Z" fill="#E3AE95"/>
<path d="M171.153 197.009L174.561 206.854C176.184 211.56 179.916 215.239 184.676 216.753L194.359 219.837L179.754 191.6L171.153 197.009Z" fill="#E3AE95"/>
<path d="M69.8892 87.5234H69.9433L64.1553 66.1022L66.5354 65.4531V65.5072C67.1304 67.6169 69.2942 68.861 71.4038 68.3201C73.5135 67.725 74.7577 65.5613 74.2167 63.4516C74.2167 63.4516 74.2167 63.3975 74.1626 63.3975L76.8132 62.6943V62.7484C77.4083 64.8581 79.572 66.1022 81.6817 65.5613C83.7913 64.9663 85.0355 62.8025 84.4946 60.6928C84.4946 60.6928 84.4946 60.6387 84.4405 60.6387L87.0911 59.9355V59.9896C87.6861 62.0993 89.8498 63.3434 91.9595 62.8025C94.0692 62.2075 95.3133 60.0437 94.7724 57.9341C94.7724 57.9341 94.7724 57.88 94.7183 57.88L97.3689 57.1767V57.2308C97.9639 59.3405 100.128 60.5847 102.237 60.0437C104.347 59.4487 105.591 57.2849 105.05 55.1753C105.05 55.1753 105.05 55.1212 104.996 55.1212L107.647 54.418V54.472C108.242 56.5817 110.406 57.8259 112.515 57.2849C114.625 56.6899 115.869 54.5261 115.328 52.4165C115.328 52.4165 115.328 52.3624 115.274 52.3624L117.925 51.6592V51.7133C118.52 53.8229 120.683 55.0671 122.793 54.5261C124.903 53.9311 126.147 51.7674 125.606 49.6577C125.606 49.6577 125.606 49.6036 125.552 49.6036L128.202 48.9004V48.9545C128.797 51.0641 130.961 52.3083 133.071 51.7674C135.18 51.1723 136.425 49.0086 135.884 46.8989C135.884 46.8989 135.884 46.8448 135.83 46.8448L138.48 46.1416V46.1957C139.075 48.3054 141.239 49.5495 143.349 49.0086C145.458 48.4135 146.702 46.2498 146.162 44.1401C146.162 44.1401 146.162 44.086 146.107 44.086L148.758 43.3828L178.51 151.679L184.298 173.1L181.918 173.749V173.695C181.323 171.585 179.159 170.341 177.049 170.882C174.939 171.477 173.695 173.641 174.236 175.75C174.236 175.75 174.236 175.805 174.29 175.805L171.64 176.508V176.454C171.045 174.344 168.881 173.1 166.771 173.641C164.662 174.236 163.417 176.4 163.958 178.509C163.958 178.509 163.958 178.563 164.012 178.563L161.362 179.267V179.212C160.767 177.103 158.603 175.859 156.493 176.4C154.384 176.995 153.14 179.158 153.681 181.268C153.681 181.268 153.681 181.322 153.735 181.322L151.084 182.025V181.971C150.489 179.862 148.325 178.617 146.216 179.158C144.106 179.753 142.862 181.917 143.403 184.027C143.403 184.027 143.403 184.081 143.457 184.081L140.806 184.784V184.73C140.211 182.62 138.047 181.376 135.938 181.917C133.828 182.512 132.584 184.676 133.125 186.786C133.125 186.786 133.125 186.84 133.179 186.84L130.528 187.543V187.489C129.933 185.379 127.77 184.135 125.66 184.676C123.55 185.271 122.306 187.435 122.847 189.544C122.847 189.544 122.847 189.598 122.901 189.598L120.251 190.302V190.248C119.656 188.138 117.492 186.894 115.382 187.435C113.272 188.03 112.028 190.193 112.569 192.303C112.569 192.303 112.569 192.357 112.623 192.357L109.973 193.06V193.006C109.378 190.897 107.214 189.653 105.104 190.194C102.995 190.789 101.75 192.952 102.291 195.062C102.291 195.062 102.291 195.116 102.346 195.116L99.6949 195.819L69.8892 87.5234Z" fill="#FDFFFB"/>
<path d="M200.904 235.957L183.432 214.157C179.267 208.964 176.021 203.176 173.641 197.009L166.068 176.67L149.786 151.354C146.919 146.864 148.217 140.914 152.707 138.047L153.031 137.83C157.305 135.126 162.93 136.154 165.905 140.211L178.131 156.709L199.93 174.56L200.904 235.957Z" fill="#FFD7C0"/>
<path d="M156.547 152.652L165.04 147.243C165.689 146.81 165.906 145.945 165.473 145.241L163.958 142.861C162.227 140.102 158.549 139.345 155.844 141.076L154.87 141.725C152.112 143.456 151.354 147.135 153.085 149.839L154.6 152.219C154.979 152.923 155.898 153.085 156.547 152.652Z" fill="#E9C3AE"/>
<path d="M246.451 214.86L201.932 245.045L209.83 255.377L254.457 224.489L246.451 214.86Z" fill="#FDFFFB"/>
<path d="M260.516 218.755L204.096 260.245L237.904 303.628L294 259.812L260.516 218.755Z" fill="#525882"/>
<path d="M97.7841 87.7993L94.4521 75.4653L98.6197 74.3395C99.5833 74.0791 100.419 74.0301 101.126 74.1923C101.832 74.3505 102.411 74.6745 102.862 75.1643C103.313 75.6542 103.637 76.2625 103.833 76.9892C104.029 77.7159 104.055 78.4005 103.91 79.0428C103.764 79.6852 103.428 80.2499 102.9 80.7371C102.372 81.2202 101.63 81.5909 100.674 81.849L97.3016 82.7601L96.9372 81.4111L100.262 80.513C100.92 80.3351 101.424 80.0956 101.773 79.7944C102.127 79.4921 102.346 79.1399 102.431 78.7378C102.52 78.3306 102.497 77.88 102.364 77.3862C102.23 76.8923 102.021 76.4857 101.737 76.1662C101.452 75.8467 101.08 75.6414 100.62 75.5502C100.16 75.455 99.5959 75.4974 98.9294 75.6774L96.3036 76.3868L99.2777 87.3958L97.7841 87.7993ZM102.093 80.6903L106.625 85.411L104.891 85.8795L100.407 81.1458L102.093 80.6903ZM108.632 84.8688L105.3 72.5348L112.744 70.5238L113.102 71.8488L107.152 73.4562L108.277 77.6238L113.842 76.1205L114.2 77.4454L108.635 78.9487L109.768 83.1404L115.814 81.5069L116.172 82.8318L108.632 84.8688ZM126.402 70.9698L124.909 71.3732C124.704 70.9675 124.448 70.6319 124.139 70.3663C123.834 70.0997 123.496 69.8982 123.123 69.762C122.753 69.6207 122.364 69.5448 121.956 69.5343C121.548 69.5239 121.14 69.5739 120.73 69.6846C119.984 69.8863 119.358 70.2578 118.854 70.799C118.353 71.3391 118.024 72.0248 117.865 72.856C117.71 73.6862 117.777 74.6353 118.065 75.7033C118.354 76.7713 118.774 77.6249 119.326 78.2642C119.882 78.9024 120.512 79.3289 121.216 79.5436C121.924 79.7572 122.652 79.7632 123.399 79.5614C123.808 79.4508 124.186 79.2883 124.533 79.0739C124.88 78.8595 125.179 78.6002 125.428 78.2958C125.681 77.9864 125.871 77.6398 126 77.256C126.132 76.8671 126.185 76.448 126.158 75.9985L127.652 75.595C127.71 76.2557 127.657 76.8752 127.495 77.4533C127.332 78.0314 127.077 78.5548 126.73 79.0234C126.381 79.488 125.957 79.8849 125.455 80.2142C124.958 80.5424 124.398 80.7905 123.776 80.9586C122.724 81.2428 121.719 81.2386 120.761 80.9459C119.803 80.6533 118.962 80.0966 118.236 79.276C117.51 78.4554 116.972 77.3946 116.62 76.0938C116.269 74.7929 116.2 73.6053 116.414 72.5308C116.627 71.4564 117.074 70.5516 117.755 69.8164C118.435 69.0812 119.301 68.5715 120.353 68.2874C120.975 68.1192 121.584 68.0518 122.179 68.0849C122.777 68.117 123.345 68.248 123.881 68.478C124.416 68.704 124.899 69.0258 125.331 69.4434C125.761 69.857 126.118 70.3658 126.402 70.9698ZM103.261 108.073L99.9289 95.7387L107.373 93.7278L107.731 95.0527L101.78 96.6602L102.906 100.828L108.471 99.3244L108.829 100.649L103.264 102.153L104.397 106.344L110.443 104.711L110.801 106.036L103.261 108.073ZM111.558 92.5971L114.89 104.931L113.397 105.335L110.065 93.0005L111.558 92.5971ZM117.885 104.122L114.553 91.7881L118.721 90.6622C119.688 90.4008 120.526 90.3618 121.235 90.5451C121.947 90.7234 122.531 91.0675 122.987 91.5774C123.444 92.0874 123.77 92.7057 123.966 93.4324C124.163 94.1591 124.193 94.8597 124.056 95.5342C123.923 96.2076 123.598 96.8039 123.079 97.3232C122.559 97.8384 121.819 98.2257 120.86 98.4849L117.873 99.2919L117.515 97.9669L120.454 97.173C121.116 96.994 121.617 96.7359 121.957 96.3986C122.296 96.0612 122.504 95.6735 122.579 95.2352C122.658 94.7918 122.63 94.3232 122.497 93.8294C122.364 93.3355 122.152 92.9188 121.862 92.5793C121.576 92.2386 121.201 92.0127 120.735 91.9014C120.269 91.7861 119.701 91.819 119.03 92.0002L116.404 92.7095L119.379 103.719L117.885 104.122ZM125.002 90.387L124.644 89.0621L133.894 86.5631L134.252 87.888L130.374 88.9358L133.348 99.9449L131.854 100.348L128.88 89.3393L125.002 90.387Z" fill="#707070"/>
<path d="M144.76 70.8901L82.5635 87.6924L83.2406 90.1991L145.437 73.3968L144.76 70.8901Z" fill="#707070"/>
<path d="M158.776 122.707L96.5791 139.509L97.2563 142.015L159.453 125.213L158.776 122.707Z" fill="#707070"/>
<path d="M143.307 134.434L114.271 142.278L114.949 144.785L143.984 136.941L143.307 134.434Z" fill="#707070"/>
<path d="M121.294 92.7103L86.4619 102.12L87.1391 104.627L121.971 95.217L121.294 92.7103Z" fill="#DADADA"/>
<path d="M100.493 105.325L88.2734 108.626L88.9506 111.133L101.171 107.831L100.493 105.325Z" fill="#DADADA"/>
<path d="M114.655 108.47L90.0063 115.129L90.6835 117.636L115.332 110.977L114.655 108.47Z" fill="#DADADA"/>
<path d="M126.588 112.234L91.7554 121.644L92.4325 124.15L127.265 114.74L126.588 112.234Z" fill="#DADADA"/>
<path d="M108.236 124.202L93.5098 128.181L94.1869 130.687L108.914 126.709L108.236 124.202Z" fill="#DADADA"/>
<path d="M148.209 85.4008L133.744 89.3086L134.421 91.8153L148.886 87.9074L148.209 85.4008Z" fill="#DADADA"/>
<path d="M150.001 91.9389L135.535 95.8467L136.212 98.3533L150.678 94.4455L150.001 91.9389Z" fill="#DADADA"/>
<path d="M151.74 98.4906L137.274 102.398L137.952 104.905L152.417 100.997L151.74 98.4906Z" fill="#DADADA"/>
<path d="M153.517 104.977L139.051 108.885L139.728 111.391L154.194 107.484L153.517 104.977Z" fill="#DADADA"/>
<path d="M155.308 111.515L140.843 115.423L141.52 117.93L155.985 114.022L155.308 111.515Z" fill="#DADADA"/>
<path d="M103.128 160.708L102.083 160.99L106.542 177.492L107.586 177.21L103.128 160.708Z" fill="#707070"/>
<path d="M105.46 160.107L104.416 160.389L108.874 176.891L109.918 176.609L105.46 160.107Z" fill="#707070"/>
<path d="M110.713 158.668L110.19 158.81L114.648 175.312L115.171 175.171L110.713 158.668Z" fill="#707070"/>
<path d="M112.494 158.175L111.972 158.316L116.43 174.819L116.952 174.678L112.494 158.175Z" fill="#707070"/>
<path d="M109.431 159.018L106.82 159.724L111.278 176.226L113.889 175.52L109.431 159.018Z" fill="#707070"/>
<path d="M116.35 157.129L113.739 157.834L118.197 174.336L120.808 173.631L116.35 157.129Z" fill="#707070"/>
<path d="M117.903 156.751L116.859 157.033L121.317 173.535L122.361 173.253L117.903 156.751Z" fill="#707070"/>
<path d="M120.222 156.098L119.177 156.38L123.635 172.882L124.68 172.6L120.222 156.098Z" fill="#707070"/>
<path d="M133.147 152.59L132.103 152.872L136.561 169.374L137.605 169.092L133.147 152.59Z" fill="#707070"/>
<path d="M135.479 151.991L134.434 152.273L138.892 168.776L139.937 168.494L135.479 151.991Z" fill="#707070"/>
<path d="M125.474 154.66L124.952 154.801L129.41 171.303L129.932 171.162L125.474 154.66Z" fill="#707070"/>
<path d="M127.269 154.219L126.747 154.36L131.205 170.863L131.727 170.721L127.269 154.219Z" fill="#707070"/>
<path d="M124.125 155.035L121.514 155.74L125.97 172.242L128.582 171.537L124.125 155.035Z" fill="#707070"/>
<path d="M131.073 153.186L128.462 153.892L132.92 170.394L135.531 169.688L131.073 153.186Z" fill="#707070"/>
</g>
<defs>
<clipPath id="clip0_1101_768">
<rect width="294" height="303.629" fill="white"/>
</clipPath>
</defs>
</svg>
