<svg width="50" height="50" viewBox="0 0 50 50" fill="none" xmlns="http://www.w3.org/2000/svg">
<circle cx="25" cy="25" r="25" fill="#525882"/>
<g clip-path="url(#clip0_973_406)">
<path d="M39.5832 34.9461L35.3535 39.1418C34.7292 39.7821 33.9016 39.999 33.0956 40C29.5313 39.8932 26.1623 38.1424 23.3961 36.3446C18.8555 33.0414 14.6894 28.9455 12.0746 23.9958C11.0718 21.9202 9.89505 19.272 10.0075 16.9552C10.0175 16.0837 10.2524 15.2284 10.8661 14.6666L15.0958 10.4391C15.9741 9.69205 16.8235 9.95035 17.3855 10.8205L20.7883 17.2731C21.1465 18.0375 20.941 18.8566 20.4067 19.4028L18.8483 20.9603C18.7521 21.0921 18.6909 21.2421 18.6893 21.4053C19.2869 23.7184 21.0972 25.8503 22.6964 27.3175C24.2956 28.7847 26.0145 30.7724 28.2458 31.243C28.5216 31.3199 28.8594 31.347 29.0568 31.1635L30.8695 29.32C31.4944 28.8463 32.3967 28.6148 33.0638 29.0021H33.0956L39.2334 32.6257C40.1344 33.1905 40.2283 34.282 39.5832 34.9461Z" fill="white"/>
</g>
<defs>
<clipPath id="clip0_973_406">
<rect width="30" height="30" fill="white" transform="translate(10 10)"/>
</clipPath>
</defs>
</svg>
