<svg width="34" height="34" viewBox="0 0 34 34" fill="none" xmlns="http://www.w3.org/2000/svg">
<path d="M33.1945 16.9832C33.1945 16.6115 33.0117 16.2847 32.7337 16.0798L32.7396 16.0697L28.8235 13.8088L31.0777 9.90452L31.0701 9.8999C31.1413 9.73898 31.1736 9.56356 31.1643 9.38784C31.155 9.21212 31.1045 9.04107 31.0168 8.88854C30.9284 8.73615 30.8053 8.60675 30.6575 8.51086C30.5097 8.41497 30.3414 8.35529 30.1663 8.33665V8.32574H25.6437V3.8162H25.6345C25.6156 3.64124 25.5559 3.47318 25.46 3.32564C25.3641 3.17809 25.2348 3.05521 25.0826 2.96695C24.9298 2.87895 24.7584 2.82833 24.5823 2.8192C24.4063 2.81008 24.2306 2.84272 24.0695 2.91445L24.0641 2.9048L20.0821 5.20387L17.8771 1.38439L17.8691 1.38901C17.7653 1.24694 17.6295 1.13131 17.4727 1.05148C17.3158 0.971658 17.1424 0.929881 16.9665 0.929535C16.5948 0.929535 16.2676 1.11223 16.0631 1.39027L16.053 1.38439L13.8115 5.26687L9.95165 3.03835L9.94703 3.04633C9.78612 2.97513 9.61069 2.94286 9.43498 2.95213C9.25926 2.96139 9.0882 3.01194 8.93567 3.09967C8.78318 3.18798 8.65369 3.31103 8.55772 3.45882C8.46175 3.6066 8.40202 3.77495 8.38337 3.95018H8.37203V8.43326H3.91499V8.44208C3.74004 8.4609 3.57198 8.52067 3.42444 8.61655C3.27689 8.71243 3.15401 8.84173 3.06575 8.99396C2.97798 9.14664 2.92745 9.31786 2.91826 9.49373C2.90906 9.6696 2.94146 9.84516 3.01283 10.0062L3.00317 10.012L5.20649 13.8286L1.26101 16.1067L1.26563 16.1146C1.12356 16.2184 1.00793 16.3542 0.928102 16.5111C0.848276 16.6679 0.806498 16.8413 0.806152 17.0172C0.806152 17.3889 0.988852 17.7161 1.26689 17.9206L1.26101 17.9307L5.17709 20.1916L2.92295 24.0959L2.93051 24.1001C2.85931 24.261 2.82704 24.4364 2.8363 24.6122C2.84557 24.7879 2.89612 24.9589 2.98385 25.1115C3.07223 25.2638 3.19531 25.3932 3.34309 25.4891C3.49087 25.585 3.65918 25.6447 3.83435 25.6633V25.6747H8.35649V30.1838H8.36573C8.40437 30.5265 8.59631 30.8474 8.91761 31.033C9.07041 31.1209 9.2418 31.1715 9.41784 31.1806C9.59388 31.1898 9.76959 31.1572 9.93065 31.0855L9.93611 31.0952L13.9181 28.7961L16.1231 32.6156L16.1311 32.611C16.2349 32.753 16.3707 32.8687 16.5275 32.9485C16.6843 33.0283 16.8577 33.0701 17.0337 33.0705C17.4054 33.0705 17.7326 32.8878 17.9371 32.6101L17.9468 32.6156L20.1883 28.7331L24.0485 30.9616L24.0532 30.9537C24.2141 31.0249 24.3895 31.0571 24.5652 31.0479C24.7409 31.0386 24.912 30.988 25.0645 30.9003C25.217 30.8121 25.3466 30.689 25.4425 30.5412C25.5385 30.3934 25.5982 30.2251 25.6168 30.0498H25.6282V25.5672H30.0856V25.5583C30.2606 25.5395 30.4286 25.4797 30.5762 25.3839C30.7237 25.288 30.8466 25.1587 30.9349 25.0065C31.0226 24.8538 31.0732 24.6826 31.0823 24.5067C31.0915 24.3308 31.0591 24.1553 30.9878 23.9943L30.9974 23.9888L28.7941 20.1723L32.7396 17.8942L32.735 17.8862C32.8771 17.7823 32.9927 17.6464 33.0725 17.4895C33.1523 17.3327 33.1941 17.1592 33.1945 16.9832ZM11.7656 23.3827C10.829 23.9237 9.97979 23.9976 9.25781 23.8036L9.35903 22.6708C9.90587 22.8292 10.6127 22.8283 11.2805 22.4424C11.8547 22.111 11.9769 21.7011 11.8135 21.4184C11.3267 20.5759 8.87687 22.775 7.82393 20.9518C7.35857 20.1454 7.66979 19.074 8.81093 18.4154C9.58079 17.9706 10.3544 17.8345 11.0899 18.0004L10.9601 19.1021C10.3582 18.966 9.73871 19.1004 9.24479 19.3852C8.80883 19.6372 8.67065 19.9686 8.83865 20.2596C9.27923 21.0223 11.764 18.9005 12.8081 20.7086C13.3201 21.5944 13.0668 22.6322 11.7656 23.3827ZM17.6217 19.8858L16.843 19.2411L14.7653 20.4406L14.9337 21.4377L13.764 22.1127L12.8337 16.1894L14.1269 15.4431L18.7914 19.2109L17.6217 19.8858ZM19.198 18.9761L16.4003 14.1301L17.4394 13.53L19.7129 17.4675L21.7616 16.2847L22.2862 17.1932L19.198 18.9761ZM22.983 16.7908L20.1854 11.9453L23.6143 9.965L24.1384 10.873L21.7415 12.2574L22.3286 13.2746L24.6748 11.9197L25.1989 12.8277L22.8528 14.1822L23.4904 15.2868L25.8877 13.9025L26.4123 14.8105L22.983 16.7908Z" fill="white"/>
</svg>
