<svg width="70" height="70" viewBox="0 0 70 70" fill="none" xmlns="http://www.w3.org/2000/svg">
<path d="M35 0C15.6642 0 0 15.6665 0 35C0 54.3335 15.6665 70 35 70C54.3358 70 70 54.3335 70 35C70 15.6665 54.3335 0 35 0ZM52.1906 23.9784L46.4461 51.0481C46.0216 52.9674 44.879 53.4326 43.2848 52.5294L34.5348 46.0803L30.3145 50.1448C29.8494 50.61 29.4542 51.0052 28.551 51.0052L29.1719 42.0994L45.3871 27.449C46.0939 26.8281 45.2313 26.4758 44.2987 27.0968L24.2584 39.7126L15.6213 37.0164C13.7448 36.4248 13.7019 35.14 16.0165 34.2368L49.761 21.2235C51.3281 20.659 52.6964 21.6052 52.1884 23.9761L52.1906 23.9784Z" fill="#3C5762"/>
</svg>
