<svg width="70" height="70" viewBox="0 0 70 70" fill="none" xmlns="http://www.w3.org/2000/svg">
<path d="M35 0C15.6698 0 0 15.6698 0 35C0 54.3302 15.6698 70 35 70C54.3302 70 70 54.3302 70 35C70 15.6698 54.3302 0 35 0ZM48.4604 39.488C48.4604 39.488 51.5557 42.5432 52.3177 43.9615C52.3396 43.9906 52.3505 44.0198 52.3578 44.0344C52.6677 44.5557 52.7406 44.9604 52.5875 45.263C52.3323 45.7661 51.4573 46.0141 51.1583 46.0359H45.6896C45.3104 46.0359 44.5156 45.9375 43.5531 45.274C42.813 44.7562 42.0839 43.9068 41.3729 43.0792C40.312 41.8469 39.3932 40.7823 38.4672 40.7823C38.3496 40.7821 38.2327 40.8005 38.1208 40.837C37.4208 41.063 36.524 42.062 36.524 44.7234C36.524 45.5547 35.8677 46.0323 35.4047 46.0323H32.9C32.0469 46.0323 27.6026 45.7333 23.6651 41.5807C18.8453 36.4948 14.5068 26.2937 14.4703 26.199C14.1969 25.5391 14.762 25.1854 15.3781 25.1854H20.9016C21.638 25.1854 21.8786 25.6339 22.0464 26.0312C22.2432 26.4943 22.9651 28.3354 24.15 30.4062C26.0714 33.7823 27.249 35.1531 28.1932 35.1531C28.3703 35.151 28.5442 35.106 28.7 35.0219C29.9323 34.3365 29.7026 29.9432 29.6479 29.0318C29.6479 28.8604 29.6443 27.0667 29.0135 26.2062C28.5615 25.5828 27.7922 25.3458 27.3255 25.2583C27.5144 24.9977 27.7633 24.7864 28.051 24.6422C28.8969 24.2193 30.4208 24.1573 31.9339 24.1573H32.776C34.4167 24.1792 34.8396 24.2849 35.4339 24.4344C36.637 24.7224 36.6625 25.499 36.5568 28.1568C36.524 28.9115 36.4911 29.7646 36.4911 30.7708C36.4911 30.9896 36.4802 31.2229 36.4802 31.4708C36.4438 32.8234 36.4 34.3583 37.3552 34.9891C37.4798 35.0672 37.6238 35.1089 37.7708 35.1094C38.1026 35.1094 39.1016 35.1094 41.8068 30.4682C42.6411 28.9744 43.3661 27.422 43.976 25.8234C44.0307 25.7286 44.1911 25.437 44.3807 25.324C44.5206 25.2526 44.6758 25.2163 44.8328 25.2182H51.326C52.0333 25.2182 52.5182 25.324 52.6094 25.5974C52.7698 26.0312 52.5802 27.3547 49.6161 31.3687L48.2927 33.1151C45.6057 36.637 45.6057 36.8156 48.4604 39.488Z" fill="#3C5762"/>
</svg>
